<svg width="22" height="20" viewBox="0 0 22 20" fill="none" xmlns="http://www.w3.org/2000/svg">
<path d="M21.425 10.275C21.425 10.2 21.425 10.2 21.425 10.275C21.35 10.2 21.35 10.125 21.35 10.125L18.35 5.625C18.2 5.4 17.975 5.25 17.75 5.25H14.75V4.35L18.65 3.75C18.95 3.675 19.25 3.375 19.25 3V1.5C19.25 1.05 18.95 0.75 18.5 0.75H11.75C11.45 0.75 11.225 0.9 11.075 1.2L9.05 5.25H1.25C0.8 5.25 0.5 5.55 0.5 6V9.75C0.5 9.975 0.575 10.125 0.725 10.275L2.75 12.3C1.4 12.9 0.5 14.25 0.5 15.75C0.5 17.85 2.15 19.5 4.25 19.5C6.35 19.5 8 17.85 8 15.75C8 15.525 8 15.225 7.925 15H11.075C11 15.225 11 15.525 11 15.75C11 17.85 12.65 19.5 14.75 19.5C16.85 19.5 18.5 17.85 18.5 15.75H20.75C21.2 15.75 21.5 15.45 21.5 15V10.5C21.5 10.425 21.5 10.35 21.425 10.275ZM14.75 6.75H17.375L19.4 9.75H18.725C17.975 9.75 17.3 9.3 17 8.7C16.775 8.4 16.55 8.25 16.25 8.25H14.75V6.75ZM4.25 18C2.975 18 2 17.025 2 15.75C2 14.475 2.975 13.5 4.25 13.5C5.525 13.5 6.5 14.475 6.5 15.75C6.5 17.025 5.525 18 4.25 18ZM11.75 10.5H4.25C3.8 10.5 3.5 10.2 3.5 9.75C3.5 9.3 3.8 9 4.25 9H11.75C12.2 9 12.5 9.3 12.5 9.75C12.5 10.2 12.2 10.5 11.75 10.5ZM14.75 18C13.475 18 12.5 17.025 12.5 15.75C12.5 14.475 13.475 13.5 14.75 13.5C16.025 13.5 17 14.475 17 15.75C17 17.025 16.025 18 14.75 18Z" fill="#FAAD14"/>
</svg>
