<svg width="16" height="16" viewBox="0 0 16 16" fill="none" xmlns="http://www.w3.org/2000/svg">
<path d="M9 11H3C1.9 11 1 11.9 1 13C1 14.1 1.9 15 3 15H9C10.1 15 11 14.1 11 13C11 11.9 10.1 11 9 11ZM3.95 13.2C3.95 13.25 3.9 13.3 3.85 13.35C3.75 13.45 3.65 13.5 3.5 13.5C3.45 13.5 3.45 13.5 3.4 13.5C3.35 13.5 3.35 13.5 3.3 13.45C3.25 13.45 3.25 13.4 3.2 13.4L3.15 13.35C3.1 13.3 3.05 13.25 3.05 13.2C3 13.15 3 13.05 3 13C3 12.85 3.05 12.75 3.15 12.65L3.2 12.6C3.25 12.6 3.25 12.55 3.3 12.55C3.35 12.55 3.35 12.55 3.4 12.5C3.55 12.45 3.75 12.5 3.85 12.65C3.95 12.75 4 12.85 4 13C4 13.05 4 13.15 3.95 13.2ZM6.45 13.2C6.45 13.25 6.4 13.3 6.35 13.35C6.35 13.35 6.3 13.4 6.25 13.4C6.25 13.4 6.2 13.45 6.15 13.45C6.1 13.45 6.1 13.45 6.05 13.5C6 13.5 6 13.5 5.95 13.5C5.8 13.5 5.7 13.45 5.6 13.35C5.55 13.3 5.5 13.25 5.5 13.2C5.5 13.15 5.45 13.05 5.45 13C5.45 12.85 5.5 12.75 5.6 12.65C5.7 12.55 5.9 12.5 6.05 12.5C6.1 12.5 6.1 12.5 6.15 12.55C6.2 12.55 6.2 12.6 6.25 12.6C6.3 12.6 6.3 12.65 6.35 12.65L6.4 12.7C6.4 12.75 6.45 12.75 6.45 12.8C6.45 12.85 6.45 12.85 6.5 12.9C6.5 12.95 6.5 12.95 6.5 13C6.5 13.05 6.5 13.15 6.45 13.2ZM8.85 13.35C8.85 13.35 8.8 13.4 8.75 13.4C8.75 13.4 8.7 13.45 8.65 13.45C8.6 13.45 8.6 13.45 8.55 13.5C8.5 13.5 8.5 13.5 8.45 13.5C8.4 13.5 8.4 13.5 8.35 13.5C8.3 13.5 8.3 13.5 8.25 13.45C8.2 13.45 8.2 13.4 8.15 13.4L8.1 13.35C8.05 13.25 8 13.15 8 13C8 12.95 8 12.95 8 12.9C8 12.85 8 12.85 8.05 12.8C8.05 12.75 8.05 12.75 8.1 12.7C8.1 12.65 8.15 12.65 8.15 12.65L8.2 12.6C8.25 12.6 8.25 12.55 8.3 12.55C8.35 12.55 8.35 12.55 8.4 12.5C8.45 12.5 8.55 12.5 8.6 12.5C8.65 12.5 8.65 12.5 8.7 12.55C8.75 12.55 8.75 12.6 8.8 12.6C8.85 12.6 8.85 12.65 8.9 12.65L8.95 12.7C8.95 12.75 9 12.75 9 12.8C9 12.85 9 12.85 9.05 12.9C9.05 12.95 9.05 12.95 9.05 13C9 13.15 8.95 13.25 8.85 13.35Z" fill="white"/>
<path d="M15 7C15 6.95 15 6.9 14.95 6.85L12.45 1.35C12.35 1.1 12.2 1 12 1H10.5H8.5C8.4 1 8.35 1 8.25 1.05C8.25 1.05 8.2 1.05 8.2 1.1C8.15 1.15 8.1 1.15 8.1 1.2L5.1 5.2C5.1 5.25 5.05 5.25 5.05 5.3C5.05 5.3 5.05 5.3 5.05 5.35C5.05 5.4 5 5.45 5 5.5V7.5H4C2.6 7.5 1.5 8.6 1.5 10C1.5 10.3 1.7 10.5 2 10.5H9.5C9.8 10.5 10 10.3 10 10V8C10 7.95 10 7.9 9.95 7.8C9.95 7.8 9.95 7.75 9.9 7.75C9.9 7.7 9.9 7.7 9.85 7.65L8 5.35L8.9 2H10.2L12.5 7.05L11.5 7.35V7C11.5 6.7 11.3 6.5 11 6.5C10.7 6.5 10.5 6.7 10.5 7V8C10.5 8 10.5 8 10.5 8.05C10.5 8.1 10.5 8.1 10.5 8.15C10.5 8.2 10.55 8.25 10.55 8.3V8.35L11.1 9.2C11.45 9.75 12.1 10.1 12.75 10.1C13.7 10.1 14.5 9.45 14.7 8.5L14.95 7.2C15 7.05 15 7.05 15 7ZM6 6H7.25L8.45 7.5H8.25C7.85 7.5 7.45 7.25 7.25 6.8C7.15 6.6 7 6.5 6.8 6.5H6V6ZM7.4 3.8L7.1 5H6.5L7.4 3.8ZM11.3 2H11.7L13.85 6.7L13.5 6.8L11.3 2Z" fill="white"/>
</svg>
