<svg width="17" height="16" viewBox="0 0 17 16" fill="none" xmlns="http://www.w3.org/2000/svg">
<path d="M15.45 8.85C15.45 8.8 15.45 8.8 15.45 8.85C15.4 8.8 15.4 8.75 15.4 8.75L13.4 5.75C13.3 5.6 13.15 5.5 13 5.5H11V4.9L13.6 4.5C13.8 4.45 14 4.25 14 4V3C14 2.7 13.8 2.5 13.5 2.5H9C8.8 2.5 8.65 2.6 8.55 2.8L7.2 5.5H2C1.7 5.5 1.5 5.7 1.5 6V8.5C1.5 8.65 1.55 8.75 1.65 8.85L3 10.2C2.1 10.6 1.5 11.5 1.5 12.5C1.5 13.9 2.6 15 4 15C5.4 15 6.5 13.9 6.5 12.5C6.5 12.35 6.5 12.15 6.45 12H8.55C8.5 12.15 8.5 12.35 8.5 12.5C8.5 13.9 9.6 15 11 15C12.4 15 13.5 13.9 13.5 12.5H15C15.3 12.5 15.5 12.3 15.5 12V9C15.5 8.95 15.5 8.9 15.45 8.85ZM11 6.5H12.75L14.1 8.5H13.65C13.15 8.5 12.7 8.2 12.5 7.8C12.35 7.6 12.2 7.5 12 7.5H11V6.5ZM4 14C3.15 14 2.5 13.35 2.5 12.5C2.5 11.65 3.15 11 4 11C4.85 11 5.5 11.65 5.5 12.5C5.5 13.35 4.85 14 4 14ZM9 9H4C3.7 9 3.5 8.8 3.5 8.5C3.5 8.2 3.7 8 4 8H9C9.3 8 9.5 8.2 9.5 8.5C9.5 8.8 9.3 9 9 9ZM11 14C10.15 14 9.5 13.35 9.5 12.5C9.5 11.65 10.15 11 11 11C11.85 11 12.5 11.65 12.5 12.5C12.5 13.35 11.85 14 11 14Z" fill="white"/>
</svg>
