<svg width="127" height="40" viewBox="0 0 127 40" fill="none" xmlns="http://www.w3.org/2000/svg">
<path d="M0 4C0 1.79086 1.79086 0 4 0H123C125.209 0 127 1.79086 127 4V36C127 38.2091 125.209 40 123 40H4C1.79086 40 0 38.2091 0 36V4Z" fill="white"/>
<path d="M25.3179 25V14.568H31.8459V16.552H27.6699V18.648H31.2219V20.616H27.6699V23.016H32.0059V25H25.3179ZM32.3724 25L34.8044 20.872L32.5164 17.064H35.0444L35.7484 18.344C35.8551 18.568 35.9618 18.7973 36.0684 19.032C36.1858 19.256 36.3031 19.48 36.4204 19.704H36.4844C36.5698 19.48 36.6604 19.256 36.7564 19.032C36.8524 18.7973 36.9431 18.568 37.0284 18.344L37.5724 17.064H40.0044L37.7004 21.144L40.1484 25H37.6204L36.8524 23.688C36.7244 23.464 36.5964 23.2347 36.4684 23C36.3511 22.7653 36.2284 22.536 36.1004 22.312H36.0364C35.9404 22.536 35.8391 22.7653 35.7324 23C35.6258 23.224 35.5244 23.4533 35.4284 23.688L34.8044 25H32.3724ZM41.4072 27.944V17.064H43.3272L43.4872 17.848H43.5512C43.8605 17.56 44.2125 17.3253 44.6072 17.144C45.0019 16.9627 45.4019 16.872 45.8072 16.872C46.4472 16.872 46.9965 17.0373 47.4552 17.368C47.9245 17.6987 48.2819 18.168 48.5272 18.776C48.7832 19.384 48.9112 20.0933 48.9112 20.904C48.9112 21.8107 48.7512 22.584 48.4312 23.224C48.1112 23.864 47.6952 24.3547 47.1832 24.696C46.6819 25.0267 46.1432 25.192 45.5672 25.192C45.2365 25.192 44.9059 25.1227 44.5752 24.984C44.2552 24.8347 43.9565 24.6267 43.6792 24.36L43.7592 25.624V27.944H41.4072ZM45.0232 23.272C45.2899 23.272 45.5352 23.192 45.7592 23.032C45.9939 22.872 46.1752 22.6213 46.3032 22.28C46.4312 21.928 46.4952 21.48 46.4952 20.936C46.4952 20.456 46.4419 20.0613 46.3352 19.752C46.2392 19.432 46.0899 19.192 45.8872 19.032C45.6845 18.872 45.4285 18.792 45.1192 18.792C44.8845 18.792 44.6552 18.8507 44.4312 18.968C44.2179 19.0747 43.9939 19.256 43.7592 19.512V22.76C43.9725 22.9413 44.1859 23.0747 44.3992 23.16C44.6232 23.2347 44.8312 23.272 45.0232 23.272ZM53.9871 25.192C53.3151 25.192 52.6857 25.032 52.0991 24.712C51.5124 24.3813 51.0324 23.9067 50.6591 23.288C50.2964 22.6587 50.1151 21.9067 50.1151 21.032C50.1151 20.1573 50.2964 19.4107 50.6591 18.792C51.0324 18.1627 51.5124 17.688 52.0991 17.368C52.6857 17.0373 53.3151 16.872 53.9871 16.872C54.6484 16.872 55.2724 17.0373 55.8591 17.368C56.4457 17.688 56.9204 18.1627 57.2831 18.792C57.6564 19.4107 57.8431 20.1573 57.8431 21.032C57.8431 21.9067 57.6564 22.6587 57.2831 23.288C56.9204 23.9067 56.4457 24.3813 55.8591 24.712C55.2724 25.032 54.6484 25.192 53.9871 25.192ZM53.9871 23.288C54.3071 23.288 54.5737 23.1973 54.7871 23.016C55.0111 22.8347 55.1764 22.5733 55.2831 22.232C55.3897 21.8907 55.4431 21.4907 55.4431 21.032C55.4431 20.5733 55.3897 20.1733 55.2831 19.832C55.1764 19.4907 55.0111 19.2293 54.7871 19.048C54.5737 18.8667 54.3071 18.776 53.9871 18.776C53.6564 18.776 53.3844 18.8667 53.1711 19.048C52.9577 19.2293 52.7977 19.4907 52.6911 19.832C52.5844 20.1733 52.5311 20.5733 52.5311 21.032C52.5311 21.4907 52.5844 21.8907 52.6911 22.232C52.7977 22.5733 52.9577 22.8347 53.1711 23.016C53.3844 23.1973 53.6564 23.288 53.9871 23.288ZM59.4541 25V17.064H61.3741L61.5341 18.456H61.5981C61.8861 17.9227 62.2274 17.528 62.6221 17.272C63.0274 17.0053 63.4381 16.872 63.8541 16.872C64.0781 16.872 64.2647 16.888 64.4141 16.92C64.5634 16.9413 64.6914 16.9787 64.7981 17.032L64.3501 19.032C64.2221 19 64.0994 18.9787 63.9821 18.968C63.8647 18.9467 63.7207 18.936 63.5501 18.936C63.2514 18.936 62.9367 19.0427 62.6061 19.256C62.2861 19.4693 62.0194 19.848 61.8061 20.392V25H59.4541ZM68.8851 25.176C67.9037 25.176 67.1997 24.8933 66.7731 24.328C66.3464 23.752 66.1331 23.0107 66.1331 22.104V18.904H65.0611V17.16L66.2771 17.064L66.5491 14.632H68.5011V17.064H70.4051V18.904H68.5011V22.072C68.5011 22.52 68.5917 22.8453 68.7731 23.048C68.9651 23.24 69.2157 23.336 69.5251 23.336C69.6531 23.336 69.7811 23.3253 69.9091 23.304C70.0371 23.2827 70.1597 23.2507 70.2771 23.208L70.6611 24.856C70.4584 24.9413 70.2024 25.016 69.8931 25.08C69.5944 25.144 69.2584 25.176 68.8851 25.176Z" fill="var(--bg-color)"/>
<path d="M90 24V15.85L87.4 18.45L86 17L91 12L96 17L94.6 18.45L92 15.85V24H90ZM85 28C84.45 28 83.9792 27.8042 83.5875 27.4125C83.1958 27.0208 83 26.55 83 26V23H85V26H97V23H99V26C99 26.55 98.8042 27.0208 98.4125 27.4125C98.0208 27.8042 97.55 28 97 28H85Z" fill="var(--bg-color)"/>
</svg>
