<svg width="769" height="722" viewBox="0 0 769 722" fill="none" xmlns="http://www.w3.org/2000/svg">
<g clip-path="url(#clip0_860_817)">
<path d="M247.721 357.03H131.181L128.051 362.65V716.26L131.181 721.88H247.721L250.861 716.26V362.65L247.721 357.03Z" fill="url(#paint0_linear_860_817)"/>
<path d="M639.071 357.03H522.531L519.391 362.65V716.26L522.531 721.88H639.071L642.211 716.26V362.65L639.071 357.03Z" fill="url(#paint1_linear_860_817)"/>
<path d="M747.771 75.21H735.031V271.41H747.771V75.21Z" fill="#FFB710"/>
<g style="mix-blend-mode:multiply" opacity="0.2">
<path d="M739.791 75.21H735.031V271.41H739.791V75.21Z" fill="black"/>
</g>
<path d="M747.771 75.21H735.031V209H747.771V75.21Z" fill="#FFB710"/>
<g style="mix-blend-mode:multiply" opacity="0.2">
<path d="M739.791 75.21H735.031V209H739.791V75.21Z" fill="black"/>
</g>
<path d="M20.9866 271.4H33.7266L33.7266 75.2004H20.9866L20.9866 271.4Z" fill="#FFB710"/>
<g style="mix-blend-mode:multiply" opacity="0.2">
<path d="M28.9587 271.4H33.7188L33.7187 75.2004H28.9587L28.9587 271.4Z" fill="black"/>
</g>
<path d="M20.9866 209H33.7266L33.7266 75.21H20.9866L20.9866 209Z" fill="#FFB710"/>
<g style="mix-blend-mode:multiply" opacity="0.2">
<path d="M28.9587 209H33.7188L33.7187 75.21H28.9587L28.9587 209Z" fill="black"/>
</g>
<path d="M735.031 75.21H33.7305V380H735.031V75.21Z" fill="#FFB710"/>
<path opacity="0.7" d="M735.031 75.21H33.7305V380H735.031V75.21Z" fill="#DE7B04"/>
<path d="M735.031 75.21H33.7305V209H735.031V75.21Z" fill="#414E5F"/>
<path opacity="0.6" d="M735.031 75.21H33.7305V209H735.031V75.21Z" fill="#DE7B04"/>
<path d="M751.889 0H16.8594V75.21H751.889V0Z" fill="#FFB710"/>
<path opacity="0.7" d="M751.889 0H16.8594V75.21H751.889V0Z" fill="#DE7B04"/>
<g style="mix-blend-mode:multiply" opacity="0.1">
<path d="M751.889 21.4902H16.8594V29.4002H751.889V21.4902Z" fill="black"/>
</g>
<path d="M751.889 0H16.8594V21.49H751.889V0Z" fill="#FFB710"/>
<path d="M751.889 0H16.8594V3.23H751.889V0Z" fill="#FFDE36"/>
<g style="mix-blend-mode:multiply" opacity="0.2">
<path d="M751.889 21.4902H16.8594V24.7202H751.889V21.4902Z" fill="black"/>
</g>
<path d="M134.83 357.03H3.54L0 362.65V716.26L3.54 721.88H134.83L138.36 716.26V362.65L134.83 357.03Z" fill="url(#paint2_linear_860_817)"/>
<path d="M0 716.26L3.54 721.88V357.03L0 362.65V716.26Z" fill="url(#paint3_linear_860_817)"/>
<path d="M138.358 716.26L134.828 721.88V357.03L138.358 362.65V716.26Z" fill="url(#paint4_linear_860_817)"/>
<g style="mix-blend-mode:multiply" opacity="0.5">
<path d="M99.6281 357.03H92.3281L110.908 368.25L134.828 372.54V368.64L112.118 364.57L99.6281 357.03Z" fill="url(#paint5_linear_860_817)"/>
<path d="M89.8591 375.76V357.03H86.2691V366.98H71.9891L67.3591 364.22H52.0891V357.04H48.4991V373.29L27.4491 360.57L7.73906 357.03H3.53906V360.17L26.2391 364.24L48.5091 377.69V397.91L27.4591 385.19L3.53906 380.9V384.8L26.2391 388.87L48.5091 402.32V422.55L27.4591 409.83L3.53906 405.54V409.44L26.2391 413.51L48.5091 426.96V447.19L27.4591 434.47L3.53906 430.18V434.08L26.2391 438.15L48.5091 451.6V471.83L27.4591 459.11L3.53906 454.82V458.72L26.2391 462.79L48.5091 476.24V496.46L27.4591 483.74L3.53906 479.45V483.35L26.2391 487.42L48.5091 500.87V521.1L27.4591 508.38L3.53906 504.09V507.99L26.2391 512.06L48.5091 525.51V545.74L27.4591 533.02L3.53906 528.73V532.63L26.2391 536.7L48.5091 550.15V570.38L27.4591 557.66L3.53906 553.37V557.27L26.2391 561.34L48.5091 574.79V595.01L27.4591 582.29L3.53906 578V581.9L26.2391 585.97L48.5091 599.42V619.65L27.4591 606.93L3.53906 602.64V606.54L26.2391 610.61L48.5091 624.06V644.29L27.4591 631.57L3.53906 627.28V631.18L26.2391 635.25L48.5091 648.7V668.93L27.4591 656.21L3.53906 651.92V655.82L26.2391 659.89L48.5091 673.34V693.56L27.4591 680.84L3.53906 676.55V680.45L26.2391 684.52L48.5091 697.97V718.2L27.4591 705.48L3.53906 701.19V705.09L26.2391 709.16L47.2691 721.87H52.0891V713.77H66.8891L71.5191 716.53H86.2691V721.87H89.8591V700.46L110.909 713.18L134.829 717.47V713.57L112.129 709.5L89.8591 696.05V675.82L110.909 688.54L134.829 692.83V688.93L112.129 684.86L89.8591 671.41V651.18L110.909 663.9L134.829 668.19V664.29L112.129 660.22L89.8591 646.77V626.54L110.909 639.26L134.829 643.55V639.65L112.129 635.58L89.8591 622.13V601.9L110.909 614.62L134.829 618.91V615.01L112.129 610.94L89.8591 597.49V577.27L110.909 589.99L134.829 594.28V590.38L112.129 586.31L89.8591 572.86V552.63L110.909 565.35L134.829 569.64V565.74L112.129 561.67L89.8591 548.22V527.99L110.909 540.71L134.829 545V541.1L112.129 537.03L89.8591 523.58V503.35L110.909 516.07L134.829 520.36V516.46L112.129 512.39L89.8591 498.94V478.72L110.909 491.44L134.829 495.73V491.83L112.129 487.76L89.8591 474.31V454.08L110.909 466.8L134.829 471.09V467.19L112.129 463.12L89.8591 449.67V429.44L110.909 442.16L134.829 446.45V442.55L112.129 438.48L89.8591 425.03V404.8L110.909 417.52L134.829 421.81V417.91L112.129 413.84L89.8591 400.39V380.17L110.909 392.89L134.829 397.18V393.28L112.129 389.21L89.8591 375.76ZM86.2691 714.62H71.9891L67.3591 711.86H52.0891V688.95H66.8891L71.5191 691.71H86.2691V714.62ZM86.2691 689.79H71.9891L67.3591 687.03H52.0891V664.12H66.8891L71.5191 666.88H86.2691V689.79ZM86.2691 664.96H71.9891L67.3591 662.2H52.0891V639.29H66.8891L71.5191 642.05H86.2691V664.96ZM86.2691 640.12H71.9891L67.3591 637.36H52.0891V614.45H66.8891L71.5191 617.21H86.2691V640.12ZM86.2691 615.29H71.9891L67.3591 612.53H52.0891V589.62H66.8891L71.5191 592.38H86.2691V615.29ZM86.2691 590.46H71.9891L67.3591 587.7H52.0991V564.79H66.8991L71.5291 567.55H86.2791V590.46H86.2691ZM86.2691 565.63H71.9891L67.3591 562.87H52.0991V539.96H66.8991L71.5291 542.72H86.2791V565.63H86.2691ZM86.2691 540.79H71.9891L67.3591 538.03H52.0891V515.12H66.8891L71.5191 517.88H86.2691V540.79ZM86.2691 515.96H71.9891L67.3591 513.2H52.0891V490.29H66.8891L71.5191 493.05H86.2691V515.96ZM86.2691 491.13H71.9891L67.3591 488.37H52.0891V465.46H66.8891L71.5191 468.22H86.2691V491.13ZM86.2691 466.3H71.9891L67.3591 463.54H52.0891V440.63H66.8891L71.5191 443.39H86.2691V466.3ZM86.2691 441.47H71.9891L67.3591 438.71H52.0891V415.8H66.8891L71.5191 418.56H86.2691V441.47ZM86.2691 416.63H71.9891L67.3591 413.87H52.0891V390.96H66.8891L71.5191 393.72H86.2691V416.63ZM86.2691 391.8H71.9891L67.3591 389.04H52.0891V366.13H66.8891L71.5191 368.89H86.2691V391.8Z" fill="url(#paint6_linear_860_817)"/>
</g>
<path d="M765.218 357.03H633.928L630.398 362.65V716.26L633.928 721.88H765.218L768.758 716.26V362.65L765.218 357.03Z" fill="url(#paint7_linear_860_817)"/>
<path d="M630.398 716.26L633.928 721.88V357.03L630.398 362.65V716.26Z" fill="url(#paint8_linear_860_817)"/>
<path d="M768.759 716.26L765.219 721.88V357.03L768.759 362.65V716.26Z" fill="url(#paint9_linear_860_817)"/>
<g style="mix-blend-mode:multiply" opacity="0.5">
<path d="M730.029 357.03H722.719L741.309 368.25L765.219 372.54V368.64L742.519 364.57L730.029 357.03Z" fill="url(#paint10_linear_860_817)"/>
<path d="M720.248 375.76V357.03H716.658V366.98H702.378L697.748 364.22H682.478V357.04H678.888V373.29L657.838 360.57L638.128 357.03H633.918V360.17L656.618 364.24L678.888 377.69V397.91L657.838 385.19L633.918 380.9V384.8L656.618 388.87L678.888 402.32V422.55L657.838 409.83L633.918 405.54V409.44L656.618 413.51L678.888 426.96V447.19L657.838 434.47L633.918 430.18V434.08L656.618 438.15L678.888 451.6V471.83L657.838 459.11L633.918 454.82V458.72L656.618 462.79L678.888 476.24V496.46L657.838 483.74L633.918 479.45V483.35L656.618 487.42L678.888 500.87V521.1L657.838 508.38L633.918 504.09V507.99L656.618 512.06L678.888 525.51V545.74L657.838 533.02L633.918 528.73V532.63L656.618 536.7L678.888 550.15V570.38L657.838 557.66L633.918 553.37V557.27L656.618 561.34L678.888 574.79V595.01L657.838 582.29L633.918 578V581.9L656.618 585.97L678.888 599.42V619.65L657.838 606.93L633.918 602.64V606.54L656.618 610.61L678.888 624.06V644.29L657.838 631.57L633.918 627.28V631.18L656.618 635.25L678.888 648.7V668.93L657.838 656.21L633.918 651.92V655.82L656.618 659.89L678.888 673.34V693.56L657.838 680.84L633.918 676.55V680.45L656.618 684.52L678.888 697.97V718.2L657.838 705.48L633.918 701.19V705.09L656.618 709.16L677.648 721.87H682.468V713.77H697.268L701.898 716.53H716.648V721.87H720.238V700.46L741.288 713.18L765.208 717.47V713.57L742.508 709.5L720.238 696.05V675.82L741.288 688.54L765.208 692.83V688.93L742.508 684.86L720.238 671.41V651.18L741.288 663.9L765.208 668.19V664.29L742.508 660.22L720.238 646.77V626.54L741.288 639.26L765.208 643.55V639.65L742.508 635.58L720.238 622.13V601.9L741.288 614.62L765.208 618.91V615.01L742.508 610.94L720.238 597.49V577.27L741.288 589.99L765.208 594.28V590.38L742.508 586.31L720.238 572.86V552.63L741.288 565.35L765.208 569.64V565.74L742.508 561.67L720.238 548.22V527.99L741.288 540.71L765.208 545V541.1L742.508 537.03L720.238 523.58V503.35L741.288 516.07L765.208 520.36V516.46L742.508 512.39L720.238 498.94V478.72L741.288 491.44L765.208 495.73V491.83L742.508 487.76L720.238 474.31V454.08L741.288 466.8L765.208 471.09V467.19L742.508 463.12L720.238 449.67V429.44L741.288 442.16L765.208 446.45V442.55L742.508 438.48L720.238 425.03V404.8L741.288 417.52L765.208 421.81V417.91L742.508 413.84L720.238 400.39V380.17L741.288 392.89L765.208 397.18V393.28L742.508 389.21L720.238 375.76H720.248ZM716.668 714.62H702.388L697.758 711.86H682.488V688.95H697.288L701.918 691.71H716.668V714.62ZM716.668 689.79H702.388L697.758 687.03H682.488V664.12H697.288L701.918 666.88H716.668V689.79ZM716.668 664.96H702.388L697.758 662.2H682.488V639.29H697.288L701.918 642.05H716.668V664.96ZM716.668 640.12H702.388L697.758 637.36H682.488V614.45H697.288L701.918 617.21H716.668V640.12ZM716.668 615.29H702.388L697.758 612.53H682.488V589.62H697.288L701.918 592.38H716.668V615.29ZM716.668 590.46H702.388L697.758 587.7H682.498V564.79H697.298L701.928 567.55H716.678V590.46H716.668ZM716.668 565.63H702.388L697.758 562.87H682.498V539.96H697.298L701.928 542.72H716.678V565.63H716.668ZM716.668 540.79H702.388L697.758 538.03H682.488V515.12H697.288L701.918 517.88H716.668V540.79ZM716.668 515.96H702.388L697.758 513.2H682.488V490.29H697.288L701.918 493.05H716.668V515.96ZM716.668 491.13H702.388L697.758 488.37H682.488V465.46H697.288L701.918 468.22H716.668V491.13ZM716.668 466.3H702.388L697.758 463.54H682.488V440.63H697.288L701.918 443.39H716.668V466.3ZM716.668 441.47H702.388L697.758 438.71H682.488V415.8H697.288L701.918 418.56H716.668V441.47ZM716.668 416.63H702.388L697.758 413.87H682.488V390.96H697.288L701.918 393.72H716.668V416.63ZM716.668 391.8H702.388L697.758 389.04H682.488V366.13H697.288L701.918 368.89H716.668V391.8Z" fill="url(#paint11_linear_860_817)"/>
</g>
<path d="M729.41 554.95H33.7305V623.17H729.41V554.95Z" fill="#FFB710"/>
<path d="M729.41 554.95H33.7305V559.52H729.41V554.95Z" fill="#FFDE36"/>
<path opacity="0.5" d="M729.41 618.6H33.7305V623.17H729.41V618.6Z" fill="#DE7B04"/>
<path d="M768.76 264.65H0V309.81H768.76V264.65Z" fill="#FFB710"/>
<path d="M768.76 264.65H0V273.78H768.76V264.65Z" fill="#414E5F"/>
<path opacity="0.5" d="M81 264.65H0V309.81H81V264.65Z" fill="#DE7B04"/>
<path d="M81 264.65H0V273.78H81V264.65Z" fill="#414E5F"/>
<path opacity="0.5" d="M768.762 264.65H687.762V309.81H768.762V264.65Z" fill="#DE7B04"/>
<path d="M768.762 264.65H687.762V273.78H768.762V264.65Z" fill="#414E5F"/>
<path opacity="0.5" d="M81 264.65H0V273.78H81V264.65Z" fill="#29333F"/>
<path opacity="0.5" d="M768.762 264.65H687.762V273.78H768.762V264.65Z" fill="#29333F"/>
<path d="M572.742 264.65H196.012V554.95H572.742V264.65Z" fill="#FFB710"/>
<path d="M572.742 264.65H196.012V269.21H572.742V264.65Z" fill="#FFDE36"/>
<path d="M558.868 288.97H209.898V291.25H558.868V288.97Z" fill="#DE7B04"/>
<path d="M558.859 541.07V291.25H209.889V541.07H558.859Z" fill="#414E5F"/>
<path d="M707.529 85.0498H484.859V184.01H707.529V85.0498Z" fill="#414E5F"/>
<path opacity="0.5" d="M707.529 85.0498H484.859V184.01H707.529V85.0498Z" fill="#5B6879"/>
<path d="M693.651 94.9697H498.751C496.559 94.9697 494.781 96.7472 494.781 98.9397V173.52C494.781 175.712 496.559 177.49 498.751 177.49H693.651C695.844 177.49 697.621 175.712 697.621 173.52V98.9397C697.621 96.7472 695.844 94.9697 693.651 94.9697Z" fill="#29333F"/>
<path d="M693.652 96.9502H498.742C497.648 96.9502 496.762 97.8367 496.762 98.9302V173.53C496.762 174.624 497.648 175.51 498.742 175.51H693.652C694.745 175.51 695.632 174.624 695.632 173.53V98.9302C695.632 97.8367 694.745 96.9502 693.652 96.9502Z" fill="#303E42"/>
<path d="M707.529 85.0498H484.859V87.2298H707.529V85.0498Z" fill="#5B6879"/>
<path d="M707.529 90.9805H484.859V93.1605H707.529V90.9805Z" fill="#29333F"/>
<path d="M707.529 220.5H484.859V263.92H707.529V220.5Z" fill="#FFB710"/>
<path d="M707.529 184.01H484.859V220.5H707.529V184.01Z" fill="#FFB710"/>
<path opacity="0.5" d="M707.529 184.01H484.859V220.5H707.529V184.01Z" fill="#FFDE36"/>
<path d="M422.759 154.63H129.199V264.65H422.759V154.63Z" fill="#FFB710"/>
<path d="M422.759 154.63H129.199V159.24H422.759V154.63Z" fill="#FFDE36"/>
<path d="M558.868 291.25H209.898V295.7H558.868V291.25Z" fill="#29333F"/>
<path d="M558.868 300.69H209.898V305.14H558.868V300.69Z" fill="#29333F"/>
<path d="M558.868 310.13H209.898V314.58H558.868V310.13Z" fill="#29333F"/>
<path d="M558.868 319.57H209.898V324.02H558.868V319.57Z" fill="#29333F"/>
<path d="M558.868 329H209.898V333.45H558.868V329Z" fill="#29333F"/>
<path d="M558.868 338.44H209.898V342.89H558.868V338.44Z" fill="#29333F"/>
<path d="M558.868 347.88H209.898V352.33H558.868V347.88Z" fill="#29333F"/>
<path d="M558.868 357.31H209.898V361.76H558.868V357.31Z" fill="#29333F"/>
<path d="M558.868 366.75H209.898V371.2H558.868V366.75Z" fill="#29333F"/>
<path d="M558.868 376.19H209.898V380.64H558.868V376.19Z" fill="#29333F"/>
<path d="M558.868 385.63H209.898V390.08H558.868V385.63Z" fill="#29333F"/>
<path d="M558.868 395.06H209.898V399.51H558.868V395.06Z" fill="#29333F"/>
<path d="M558.868 404.5H209.898V408.95H558.868V404.5Z" fill="#29333F"/>
<path d="M558.868 413.94H209.898V418.39H558.868V413.94Z" fill="#29333F"/>
<path d="M558.868 423.38H209.898V427.83H558.868V423.38Z" fill="#29333F"/>
<path d="M558.868 432.81H209.898V437.26H558.868V432.81Z" fill="#29333F"/>
<path d="M558.868 442.25H209.898V446.7H558.868V442.25Z" fill="#29333F"/>
<path d="M558.868 451.69H209.898V456.14H558.868V451.69Z" fill="#29333F"/>
<path d="M558.868 461.12H209.898V465.57H558.868V461.12Z" fill="#29333F"/>
<path d="M558.868 470.56H209.898V475.01H558.868V470.56Z" fill="#29333F"/>
<path d="M558.868 480H209.898V484.45H558.868V480Z" fill="#29333F"/>
<path d="M558.868 489.44H209.898V493.89H558.868V489.44Z" fill="#29333F"/>
<path d="M558.868 498.87H209.898V503.32H558.868V498.87Z" fill="#29333F"/>
<path d="M558.868 508.31H209.898V512.76H558.868V508.31Z" fill="#29333F"/>
<path d="M558.868 517.75H209.898V522.2H558.868V517.75Z" fill="#29333F"/>
<path d="M558.868 527.19H209.898V531.64H558.868V527.19Z" fill="#29333F"/>
<path d="M558.868 536.62H209.898V541.07H558.868V536.62Z" fill="#29333F"/>
<path opacity="0.5" d="M582.488 273.78H572.738V309.81H582.488V273.78Z" fill="#DE7B04"/>
<path opacity="0.5" d="M577.118 273.78H572.738V309.81H577.118V273.78Z" fill="#DE7B04"/>
<path opacity="0.5" d="M186.27 309.811H196.02V273.781H186.27V309.811Z" fill="#DE7B04"/>
<path opacity="0.5" d="M191.64 309.811H196.02V273.781H191.64V309.811Z" fill="#DE7B04"/>
<path d="M741.298 309.81H572.738V412.52H741.298V309.81Z" fill="#FFB710"/>
<path opacity="0.2" d="M741.298 309.81H572.738V412.52H741.298V309.81Z" fill="#DE7B04"/>
<g style="mix-blend-mode:multiply" opacity="0.2">
<path d="M741.298 309.81H572.738V326.04H741.298V309.81Z" fill="black"/>
</g>
<g style="mix-blend-mode:multiply" opacity="0.2">
<path d="M728.258 343.989H586.508V398.399H728.258V343.989Z" fill="black"/>
</g>
<g style="mix-blend-mode:multiply" opacity="0.2">
<path d="M741.298 309.81H572.738V314.58H741.298V309.81Z" fill="black"/>
</g>
<path d="M728.258 336.55H586.508V390.96H728.258V336.55Z" fill="#FFB710"/>
<path d="M728.258 390.96H586.508V392.78H728.258V390.96Z" fill="#DE7B04"/>
<path d="M728.258 336.55H586.508V338.44H728.258V336.55Z" fill="#FFDE36"/>
<g style="mix-blend-mode:multiply" opacity="0.2">
<path d="M619.916 389.88C632.122 389.88 642.016 379.985 642.016 367.78C642.016 355.574 632.122 345.68 619.916 345.68C607.711 345.68 597.816 355.574 597.816 367.78C597.816 379.985 607.711 389.88 619.916 389.88Z" fill="black"/>
</g>
<path d="M628.371 385.198C639.648 380.527 645.003 367.599 640.332 356.322C635.661 345.046 622.733 339.691 611.457 344.362C600.18 349.033 594.826 361.961 599.496 373.237C604.167 384.513 617.095 389.868 628.371 385.198Z" fill="#FFB710"/>
<path opacity="0.5" d="M628.371 385.198C639.648 380.527 645.003 367.599 640.332 356.322C635.661 345.046 622.733 339.691 611.457 344.362C600.18 349.033 594.826 361.961 599.496 373.237C604.167 384.513 617.095 389.868 628.371 385.198Z" fill="#DE7B04"/>
<path d="M638.804 367.868C640.495 357.45 633.42 347.634 623.003 345.943C612.585 344.252 602.769 351.327 601.078 361.744C599.386 372.162 606.461 381.978 616.879 383.669C627.297 385.36 637.113 378.286 638.804 367.868Z" fill="#EEF5F9"/>
<g style="mix-blend-mode:multiply" opacity="0.2">
<path d="M668.338 389.88C680.544 389.88 690.438 379.985 690.438 367.78C690.438 355.574 680.544 345.68 668.338 345.68C656.133 345.68 646.238 355.574 646.238 367.78C646.238 379.985 656.133 389.88 668.338 389.88Z" fill="black"/>
</g>
<path d="M676.797 385.198C688.074 380.527 693.428 367.599 688.758 356.322C684.087 345.046 671.159 339.691 659.883 344.362C648.606 349.033 643.251 361.961 647.922 373.237C652.593 384.513 665.521 389.868 676.797 385.198Z" fill="#FFB710"/>
<path opacity="0.5" d="M676.797 385.198C688.074 380.527 693.428 367.599 688.758 356.322C684.087 345.046 671.159 339.691 659.883 344.362C648.606 349.033 643.251 361.961 647.922 373.237C652.593 384.513 665.521 389.868 676.797 385.198Z" fill="#DE7B04"/>
<path d="M686.908 369.144C689.332 358.872 682.971 348.58 672.699 346.156C662.427 343.731 652.134 350.093 649.71 360.365C647.286 370.637 653.647 380.929 663.919 383.354C674.191 385.778 684.484 379.416 686.908 369.144Z" fill="#EEF5F9"/>
<g style="mix-blend-mode:multiply" opacity="0.2">
<path d="M718.027 366.034C722.616 361.445 722.616 354.006 718.027 349.417C713.438 344.828 705.999 344.828 701.41 349.417C696.821 354.006 696.821 361.445 701.41 366.034C705.999 370.623 713.438 370.623 718.027 366.034Z" fill="black"/>
</g>
<path d="M721.121 358.804C722.612 352.488 718.701 346.16 712.385 344.669C706.069 343.179 699.741 347.09 698.25 353.406C696.759 359.722 700.671 366.05 706.987 367.541C713.302 369.032 719.631 365.12 721.121 358.804Z" fill="#FFB710"/>
<path opacity="0.5" d="M721.121 358.804C722.612 352.488 718.701 346.16 712.385 344.669C706.069 343.179 699.741 347.09 698.25 353.406C696.759 359.722 700.671 366.05 706.987 367.541C713.302 369.032 719.631 365.12 721.121 358.804Z" fill="#DE7B04"/>
<path d="M718.745 358.244C719.926 353.239 716.827 348.225 711.823 347.044C706.818 345.863 701.804 348.962 700.623 353.966C699.442 358.971 702.541 363.985 707.545 365.166C712.55 366.347 717.564 363.248 718.745 358.244Z" fill="#F26722"/>
<path d="M572.738 412.52V488.11V554.84H689.718V488.11L716.668 412.52H572.738Z" fill="#FFB710"/>
<path opacity="0.2" d="M572.738 412.52V488.11V554.84H689.718V488.11L716.668 412.52H572.738Z" fill="#DE7B04"/>
<g style="mix-blend-mode:multiply" opacity="0.2">
<path d="M572.738 418.39H714.578L716.668 412.52H572.738V418.39Z" fill="black"/>
</g>
<g style="mix-blend-mode:multiply" opacity="0.2">
<path d="M716.668 412.52H572.738V420.17V427.82V554.84H578.018V427.82H711.208L716.668 412.52Z" fill="black"/>
</g>
<path d="M27.4595 412.52H196.02V309.81H27.4595V412.52Z" fill="#FFB710"/>
<path opacity="0.2" d="M27.4595 412.52H196.02V309.81H27.4595V412.52Z" fill="#DE7B04"/>
<g style="mix-blend-mode:multiply" opacity="0.2">
<path d="M27.4595 326.04H196.02V309.81H27.4595V326.04Z" fill="black"/>
</g>
<g style="mix-blend-mode:multiply" opacity="0.2">
<path d="M40.4922 398.409H182.242V343.999H40.4922V398.409Z" fill="black"/>
</g>
<g style="mix-blend-mode:multiply" opacity="0.2">
<path d="M27.4595 314.58H196.02V309.81H27.4595V314.58Z" fill="black"/>
</g>
<path d="M40.4922 390.96H182.242V336.55H40.4922V390.96Z" fill="#FFB710"/>
<path d="M40.4922 392.79H182.242V390.97H40.4922V392.79Z" fill="#DE7B04"/>
<path d="M40.4922 338.439H182.242V336.549H40.4922V338.439Z" fill="#FFDE36"/>
<g style="mix-blend-mode:multiply" opacity="0.2">
<path d="M148.83 389.88C161.036 389.88 170.93 379.985 170.93 367.78C170.93 355.574 161.036 345.68 148.83 345.68C136.625 345.68 126.73 355.574 126.73 367.78C126.73 379.985 136.625 389.88 148.83 389.88Z" fill="black"/>
</g>
<path d="M169.246 373.242C173.917 361.966 168.562 349.038 157.285 344.367C146.009 339.696 133.081 345.051 128.41 356.327C123.74 367.604 129.094 380.532 140.371 385.202C151.647 389.873 164.575 384.518 169.246 373.242Z" fill="#FFB710"/>
<path opacity="0.5" d="M169.246 373.242C173.917 361.966 168.562 349.038 157.285 344.367C146.009 339.696 133.081 345.051 128.41 356.327C123.74 367.604 129.094 380.532 140.371 385.202C151.647 389.873 164.575 384.518 169.246 373.242Z" fill="#DE7B04"/>
<path d="M151.909 383.634C162.327 381.943 169.401 372.127 167.71 361.709C166.019 351.291 156.203 344.217 145.785 345.908C135.367 347.599 128.293 357.415 129.984 367.833C131.675 378.251 141.491 385.325 151.909 383.634Z" fill="#EEF5F9"/>
<g style="mix-blend-mode:multiply" opacity="0.2">
<path d="M100.42 389.88C112.626 389.88 122.52 379.985 122.52 367.78C122.52 355.574 112.626 345.68 100.42 345.68C88.2148 345.68 78.3203 355.574 78.3203 367.78C78.3203 379.985 88.2148 389.88 100.42 389.88Z" fill="black"/>
</g>
<path d="M105.486 386.297C117.366 383.493 124.723 371.59 121.919 359.711C119.115 347.832 107.212 340.475 95.3332 343.279C83.4541 346.083 76.0971 357.985 78.9008 369.865C81.7045 381.744 93.6073 389.101 105.486 386.297Z" fill="#FFB710"/>
<path opacity="0.5" d="M105.486 386.297C117.366 383.493 124.723 371.59 121.919 359.711C119.115 347.832 107.212 340.475 95.3332 343.279C83.4541 346.083 76.0971 357.985 78.9008 369.865C81.7045 381.744 93.6073 389.101 105.486 386.297Z" fill="#DE7B04"/>
<path d="M104.8 383.386C115.072 380.962 121.434 370.67 119.01 360.398C116.585 350.126 106.293 343.764 96.0209 346.188C85.7489 348.613 79.3872 358.905 81.8116 369.177C84.236 379.449 94.5284 385.811 104.8 383.386Z" fill="#EEF5F9"/>
<g style="mix-blend-mode:multiply" opacity="0.2">
<path d="M67.3513 366.034C71.94 361.445 71.94 354.006 67.3513 349.417C62.7626 344.828 55.3229 344.828 50.7343 349.417C46.1456 354.006 46.1456 361.445 50.7343 366.034C55.3229 370.623 62.7626 370.623 67.3513 366.034Z" fill="black"/>
</g>
<path d="M61.7285 367.57C68.0443 366.079 71.9559 359.751 70.4652 353.435C68.9745 347.119 62.6461 343.208 56.3303 344.698C50.0145 346.189 46.103 352.517 47.5936 358.833C49.0843 365.149 55.4127 369.061 61.7285 367.57Z" fill="#FFB710"/>
<path opacity="0.5" d="M61.7285 367.57C68.0443 366.079 71.9559 359.751 70.4652 353.435C68.9745 347.119 62.6461 343.208 56.3303 344.698C50.0145 346.189 46.103 352.517 47.5936 358.833C49.0843 365.149 55.4127 369.061 61.7285 367.57Z" fill="#DE7B04"/>
<path d="M61.1703 365.195C66.1745 364.014 69.2738 359 68.0927 353.996C66.9116 348.991 61.8974 345.892 56.8931 347.073C51.8888 348.254 48.7895 353.269 49.9706 358.273C51.1517 363.277 56.166 366.377 61.1703 365.195Z" fill="#F26722"/>
<path d="M196.01 412.52V488.11V554.84H79.0398V488.11L52.0898 412.52H196.01Z" fill="#FFB710"/>
<path opacity="0.2" d="M196.01 412.52V488.11V554.84H79.0398V488.11L52.0898 412.52H196.01Z" fill="#DE7B04"/>
<g style="mix-blend-mode:multiply" opacity="0.2">
<path d="M196.01 418.39H54.1798L52.0898 412.52H196.01V418.39Z" fill="black"/>
</g>
<g style="mix-blend-mode:multiply" opacity="0.2">
<path d="M52.0898 412.52H196.01V420.17V427.82V554.84H190.74V427.82H57.5498L52.0898 412.52Z" fill="black"/>
</g>
<g style="mix-blend-mode:multiply" opacity="0.2">
<path d="M518.359 555.26L256.259 277.54V270.04H249.169L243.389 263.91H202.279L208.049 270.04H146.539V281.44H218.819L477.239 555.26H518.359Z" fill="black"/>
</g>
<path d="M492.868 555.26H533.978L259.018 263.91H217.898L492.868 555.26Z" fill="#414E5F"/>
<path d="M531.04 555.26H533.98L259.02 263.91H256.07L531.04 555.26Z" fill="#5B6879"/>
<path d="M256.259 263.91H146.539V271.4H256.259V263.91Z" fill="#414E5F"/>
<path opacity="0.1" d="M693.65 96.9502H498.75C497.66 96.9502 496.77 97.8402 496.77 98.9302V173.52C496.77 173.77 496.83 174.02 496.92 174.24C517.15 163.3 582.33 127.48 695.65 105.39V98.9302C695.65 97.8402 694.76 96.9502 693.67 96.9502H693.65Z" fill="white"/>
<path d="M600.429 93.1602H590.289V181.4H600.429V93.1602Z" fill="#414E5F"/>
<path opacity="0.5" d="M600.429 93.1602H590.289V181.4H600.429V93.1602Z" fill="#5B6879"/>
<path d="M588.129 177.49H590.289V95.0502H588.129V177.49Z" fill="#29333F"/>
<path d="M600.442 177.49H602.602V95.0502H600.442V177.49Z" fill="#29333F"/>
<path d="M754.28 104.55H721.83C720.278 104.55 719.02 105.808 719.02 107.36V205.71C719.02 207.262 720.278 208.52 721.83 208.52H754.28C755.831 208.52 757.09 207.262 757.09 205.71V107.36C757.09 105.808 755.831 104.55 754.28 104.55Z" fill="#303E42"/>
<path d="M725.449 221.49H707.529V219.51H725.449C728.689 219.51 731.319 216.88 731.319 213.64V103.86C731.319 102.28 730.709 100.8 729.589 99.6905C728.479 98.5805 727.009 97.9205 725.429 97.9905C708.319 98.0805 707.609 97.9705 707.379 97.9405L707.669 95.9805C707.899 96.0105 709.879 96.0905 725.419 96.0105C727.579 95.9605 729.499 96.8105 730.989 98.2905C732.479 99.7805 733.309 101.75 733.309 103.86V213.64C733.309 217.97 729.789 221.49 725.459 221.49H725.449Z" fill="#29333F"/>
<path d="M599.531 461.17V554.96H603.501V526.61H659.131V554.85H663.101V526.61H721.881V554.96H725.851V461.17H599.541H599.531ZM603.501 522.64V465.14H659.131V522.64H603.501ZM663.091 522.64V465.14H721.871V522.64H663.091Z" fill="#414E5F"/>
<path d="M40.5 461.17V554.96H44.47V526.61H100.1V554.85H104.07V526.61H162.85V554.96H166.82V461.17H40.5ZM44.46 522.64V465.14H100.09V522.64H44.46ZM104.06 522.64V465.14H162.84V522.64H104.06Z" fill="#414E5F"/>
<path d="M258.241 263.91H254.271V174.09H148.521V263.91H144.551V170.13H258.241V263.91Z" fill="#414E5F"/>
<path d="M535.97 555.26H532V464.25L254.82 173.48L257.69 170.74L535.97 462.66V555.26Z" fill="#414E5F"/>
<path d="M763.32 264.65H759.35V174.09H10.8997V263.91H6.92969V170.13H763.32V264.65Z" fill="#414E5F"/>
<path d="M359.111 172.11H355.141V264.65H359.111V172.11Z" fill="#414E5F"/>
<path d="M460.161 172.11H456.191V264.65H460.161V172.11Z" fill="#414E5F"/>
<path d="M561.22 172.11H557.25V264.65H561.22V172.11Z" fill="#414E5F"/>
<path d="M662.271 172.11H658.301V264.65H662.271V172.11Z" fill="#414E5F"/>
<path d="M76.2591 172.11H72.2891V264.65H76.2591V172.11Z" fill="#414E5F"/>
<path d="M761.338 231.399H8.91797V235.369H761.338V231.399Z" fill="#414E5F"/>
<path d="M327.54 245.07H323.57V336.68H327.54V245.07Z" fill="#414E5F"/>
<path d="M397.021 317.931H393.051V409.541H397.021V317.931Z" fill="#414E5F"/>
<path d="M466.49 390.79H462.52V482.4H466.49V390.79Z" fill="#414E5F"/>
<path d="M257.694 231.365L254.82 234.104L532.552 525.446L535.425 522.706L257.694 231.365Z" fill="#414E5F"/>
<g style="mix-blend-mode:multiply" opacity="0.5">
<path d="M609.788 554.87H599.738V623.54H609.788V554.87Z" fill="#DE7B04"/>
</g>
<g style="mix-blend-mode:multiply" opacity="0.5">
<path d="M557.191 554.87H547.141V623.54H557.191V554.87Z" fill="#DE7B04"/>
</g>
<path d="M602.308 552.05H596.488V676.47H602.308V552.05Z" fill="#414E5F"/>
<path d="M602.308 552.05H596.488V593.8H602.308V552.05Z" fill="#5B6879"/>
<path d="M549 552.05H543.18V676.47H549V552.05Z" fill="#414E5F"/>
<path d="M549 552.05H543.18V593.8H549V552.05Z" fill="#5B6879"/>
<path d="M596.48 595.88H549V600.34H596.48V595.88Z" fill="#414E5F"/>
<path d="M596.48 600.34H549V603.37H596.48V600.34Z" fill="#29333F"/>
<path d="M596.48 623.54H549V628H596.48V623.54Z" fill="#414E5F"/>
<path d="M596.48 628H549V631.03H596.48V628Z" fill="#29333F"/>
<path d="M596.48 651.21H549V655.67H596.48V651.21Z" fill="#414E5F"/>
<path d="M596.48 655.66H549V658.69H596.48V655.66Z" fill="#29333F"/>
<g style="mix-blend-mode:multiply" opacity="0.5">
<path d="M234.702 554.87H224.652V623.54H234.702V554.87Z" fill="#DE7B04"/>
</g>
<g style="mix-blend-mode:multiply" opacity="0.5">
<path d="M182.101 554.87H172.051V623.54H182.101V554.87Z" fill="#DE7B04"/>
</g>
<path d="M227.222 552.05H221.402V676.47H227.222V552.05Z" fill="#414E5F"/>
<path d="M227.222 552.05H221.402V593.8H227.222V552.05Z" fill="#5B6879"/>
<path d="M173.922 552.05H168.102V676.47H173.922V552.05Z" fill="#414E5F"/>
<path d="M173.922 552.05H168.102V593.8H173.922V552.05Z" fill="#5B6879"/>
<path d="M221.39 595.88H173.91V600.34H221.39V595.88Z" fill="#414E5F"/>
<path d="M221.39 600.34H173.91V603.37H221.39V600.34Z" fill="#29333F"/>
<path d="M221.39 623.54H173.91V628H221.39V623.54Z" fill="#414E5F"/>
<path d="M221.39 628H173.91V631.03H221.39V628Z" fill="#29333F"/>
<path d="M221.39 651.21H173.91V655.67H221.39V651.21Z" fill="#414E5F"/>
<path d="M221.39 655.66H173.91V658.69H221.39V655.66Z" fill="#29333F"/>
<path d="M710.349 593.03C715.574 590.865 718.055 584.875 715.89 579.651C713.726 574.426 707.736 571.944 702.511 574.109C697.286 576.273 694.805 582.263 696.969 587.488C699.134 592.713 705.124 595.194 710.349 593.03Z" fill="#F26722"/>
<path d="M62.958 593.036C68.1829 590.871 70.6641 584.881 68.4999 579.656C66.3357 574.431 60.3456 571.95 55.1207 574.115C49.8958 576.279 47.4146 582.269 49.5788 587.494C51.7431 592.719 57.7331 595.2 62.958 593.036Z" fill="#F26722"/>
<path d="M478.911 577.62H289.551V603.37H478.911V577.62Z" fill="#FFB710"/>
<path opacity="0.3" d="M478.911 577.62H289.551V603.37H478.911V577.62Z" fill="#DE7B04"/>
<path opacity="0.5" d="M478.911 577.62H289.551V579.93H478.911V577.62Z" fill="#DE7B04"/>
<path d="M478.911 603.37H289.551V605.68H478.911V603.37Z" fill="#FFDE36"/>
</g>
<defs>
<linearGradient id="paint0_linear_860_817" x1="189.451" y1="349.31" x2="189.451" y2="744.61" gradientUnits="userSpaceOnUse">
<stop stop-color="#3C4548"/>
<stop offset="1" stop-color="#091215"/>
</linearGradient>
<linearGradient id="paint1_linear_860_817" x1="580.801" y1="0.000269955" x2="580.801" y2="0.000269955" gradientUnits="userSpaceOnUse">
<stop stop-color="#3C4548"/>
<stop offset="1" stop-color="#091215"/>
</linearGradient>
<linearGradient id="paint2_linear_860_817" x1="69.18" y1="349.31" x2="69.18" y2="744.61" gradientUnits="userSpaceOnUse">
<stop stop-color="#555E61"/>
<stop offset="1" stop-color="#222B2E"/>
</linearGradient>
<linearGradient id="paint3_linear_860_817" x1="0" y1="539.45" x2="3.54" y2="539.45" gradientUnits="userSpaceOnUse">
<stop stop-color="#3B4447"/>
<stop offset="1" stop-color="#222B2E"/>
</linearGradient>
<linearGradient id="paint4_linear_860_817" x1="134.828" y1="0.000281754" x2="138.358" y2="0.000281754" gradientUnits="userSpaceOnUse">
<stop stop-color="#3B4447"/>
<stop offset="1" stop-color="#222B2E"/>
</linearGradient>
<linearGradient id="paint5_linear_860_817" x1="113.578" y1="358.84" x2="113.578" y2="728.271" gradientUnits="userSpaceOnUse">
<stop stop-color="#555E61"/>
<stop offset="1" stop-color="#222B2E"/>
</linearGradient>
<linearGradient id="paint6_linear_860_817" x1="69.1791" y1="358.84" x2="69.1791" y2="728.27" gradientUnits="userSpaceOnUse">
<stop stop-color="#555E61"/>
<stop offset="1" stop-color="#222B2E"/>
</linearGradient>
<linearGradient id="paint7_linear_860_817" x1="699.578" y1="0.000269955" x2="699.578" y2="0.000269955" gradientUnits="userSpaceOnUse">
<stop stop-color="#555E61"/>
<stop offset="1" stop-color="#222B2E"/>
</linearGradient>
<linearGradient id="paint8_linear_860_817" x1="630.398" y1="0.000281754" x2="633.928" y2="0.000281754" gradientUnits="userSpaceOnUse">
<stop stop-color="#3B4447"/>
<stop offset="1" stop-color="#222B2E"/>
</linearGradient>
<linearGradient id="paint9_linear_860_817" x1="765.219" y1="0.000261196" x2="768.759" y2="0.000261196" gradientUnits="userSpaceOnUse">
<stop stop-color="#3B4447"/>
<stop offset="1" stop-color="#222B2E"/>
</linearGradient>
<linearGradient id="paint10_linear_860_817" x1="743.969" y1="358.84" x2="743.969" y2="728.271" gradientUnits="userSpaceOnUse">
<stop stop-color="#555E61"/>
<stop offset="1" stop-color="#222B2E"/>
</linearGradient>
<linearGradient id="paint11_linear_860_817" x1="699.578" y1="358.84" x2="699.578" y2="728.27" gradientUnits="userSpaceOnUse">
<stop stop-color="#555E61"/>
<stop offset="1" stop-color="#222B2E"/>
</linearGradient>
<clipPath id="clip0_860_817">
<rect width="768.76" height="721.88" fill="white"/>
</clipPath>
</defs>
</svg>
