<svg width="1506" height="723" viewBox="0 0 1506 723" fill="none" xmlns="http://www.w3.org/2000/svg">
<path d="M1282.88 615.46H1457.46V590.49L1266.51 598.16L1282.88 615.46Z" fill="#DE7B04"/>
<g style="mix-blend-mode:multiply" opacity="0.4">
<path d="M1282.88 615.46H1457.46V590.49L1266.51 598.16L1282.88 615.46Z" fill="black"/>
</g>
<path d="M924.17 283.99V342.21L961.74 432.53L1091.53 578.39H1291.7V291.8L924.17 283.99Z" fill="#DE7B04"/>
<g style="mix-blend-mode:multiply" opacity="0.5">
<path d="M924.17 283.99V342.21L961.74 432.53L1091.53 578.39H1291.7V291.8L924.17 283.99Z" fill="black"/>
</g>
<path d="M1221.48 542.22H1280.77V391.89H1221.48V542.22Z" fill="#DE7B04"/>
<g style="mix-blend-mode:multiply" opacity="0.4">
<path d="M1221.48 542.22H1280.77V391.89H1221.48V542.22Z" fill="black"/>
</g>
<path d="M1025.99 396.25H1170.2V340.61H1025.99V396.25Z" fill="#DE7B04"/>
<g style="mix-blend-mode:multiply" opacity="0.4">
<path d="M1025.99 396.25H1170.2V340.61H1025.99V396.25Z" fill="black"/>
</g>
<path d="M1172.93 304.4L1121.26 394.12L1163.37 409.59L1272.93 340.32V300.89L1172.93 304.4Z" fill="#DE7B04"/>
<g style="mix-blend-mode:multiply" opacity="0.3">
<path d="M1172.93 304.4L1121.26 394.12L1163.37 409.59L1272.93 340.32V300.89L1172.93 304.4Z" fill="black"/>
</g>
<g style="mix-blend-mode:multiply" opacity="0.3">
<path d="M1162.86 321.89L1172.93 304.4L1272.93 300.89V321.89H1162.86Z" fill="black"/>
</g>
<path d="M1025.98 375.859H1055.08V300.899H1025.98V375.859Z" fill="#DE7B04"/>
<path d="M987.24 375.859H1016.34V300.899H987.24V375.859Z" fill="#DE7B04"/>
<g style="mix-blend-mode:multiply" opacity="0.3">
<path d="M1025.98 375.859H1055.08V300.899H1025.98V375.859Z" fill="black"/>
</g>
<g style="mix-blend-mode:multiply" opacity="0.3">
<path d="M1025.98 321.89H1055.08V300.89H1025.98V321.89Z" fill="black"/>
</g>
<g style="mix-blend-mode:multiply" opacity="0.3">
<path d="M987.24 375.859H1016.34V300.899H987.24V375.859Z" fill="black"/>
</g>
<g style="mix-blend-mode:multiply" opacity="0.3">
<path d="M987.24 321.89H1016.34V300.89H987.24V321.89Z" fill="black"/>
</g>
<path d="M287.54 283.99C287.54 283.99 269.42 334.79 265.47 347.1C261.52 359.4 259.44 387.63 271.74 396.5C284.04 405.37 343.31 396.5 343.31 396.5L407.47 357.03V313.88L287.55 284L287.54 283.99Z" fill="#DE7B04"/>
<g style="mix-blend-mode:multiply" opacity="0.5">
<path d="M287.54 283.99C287.54 283.99 269.42 334.79 265.47 347.1C261.52 359.4 259.44 387.63 271.74 396.5C284.04 405.37 343.31 396.5 343.31 396.5L407.47 357.03V313.88L287.55 284L287.54 283.99Z" fill="black"/>
</g>
<path d="M1291.69 554.96H1353.44V412.53H1291.69V554.96Z" fill="#DE7B04"/>
<path d="M1336.35 555.25H1385.5V264.38H1336.35V555.25Z" fill="#FFB710"/>
<path opacity="0.7" d="M1336.35 555.26H1385.5V263.92H1336.35V555.26Z" fill="#DE7B04"/>
<path d="M1336.35 273.79H1385.5V263.92H1336.35V273.79Z" fill="#29333F"/>
<path d="M338.039 295L344.679 335.58L814.219 416.25L822.139 385.44L338.039 295Z" fill="#DE7B04"/>
<g style="mix-blend-mode:multiply" opacity="0.3">
<path d="M338.039 295L344.679 335.58L814.219 416.25L822.139 385.44L338.039 295Z" fill="black"/>
</g>
<path d="M1014.97 571.1H262.02V404.49L313.8 343.4C330.23 324.02 355.74 314.87 380.74 319.39L1025.98 436.18L1014.96 571.1H1014.97Z" fill="#DE7B04"/>
<path style="mix-blend-mode:multiply" opacity="0.3" d="M1014.97 571.1H262.02V404.49L313.8 343.4C330.23 324.02 355.74 314.87 380.74 319.39L1025.98 436.18L1014.96 571.1H1014.97Z" fill="url(#paint0_linear_860_1366)"/>
<path d="M1014.97 571.1H355.529C363.099 525.09 370.959 477.56 370.959 477.56L537.169 560.43C537.169 560.43 578.069 560.43 593.309 560.43C608.549 560.43 699.889 527.52 699.889 527.52L792.479 505.97H968.979L1019.53 515.31L1014.97 571.1Z" fill="#DE7B04"/>
<g style="mix-blend-mode:multiply" opacity="0.3">
<path d="M1014.97 571.1H355.529C363.099 525.09 370.959 477.56 370.959 477.56L537.169 560.43C537.169 560.43 578.069 560.43 593.309 560.43C608.549 560.43 699.889 527.52 699.889 527.52L792.479 505.97H968.979L1019.53 515.31L1014.97 571.1Z" fill="black"/>
</g>
<path d="M1068.84 154.63H982.59L970.34 168.34V238.83H1068.84V154.63Z" fill="#29333F"/>
<g style="mix-blend-mode:multiply" opacity="0.2">
<path d="M1052.1 85.0498H1226.82L1244.23 184.01H998.279L1052.1 85.0498Z" fill="black"/>
</g>
<path d="M998.279 184.01H1244.23L1277.65 220.5V263.91H998.279V184.01Z" fill="#FFB710"/>
<path d="M1336.35 309.81V412.5H1301.43V555.26H1266.51V412.5V309.81H1336.35Z" fill="#FFB710"/>
<path opacity="0.3" d="M1266.51 555.26H1301.43V412.53H1266.51V555.26Z" fill="#DE7B04"/>
<path d="M893.52 281.14L1021.54 309.81H1371.27V263.91H893.52V281.14Z" fill="#FFB710"/>
<path d="M1266.51 598.16H1470.22V555.26H1266.51V598.16Z" fill="#FFB710"/>
<path d="M1266.51 557.45H1470.22V555.25H1266.51V557.45Z" fill="#FFDE36"/>
<path d="M1266.51 598.16H1451.63V595.64H1266.51V598.16Z" fill="#DE7B04"/>
<path d="M1266.51 412.53H1336.35V410.01H1266.51V412.53Z" fill="#DE7B04"/>
<path opacity="0.5" d="M1341.42 309.81H1371.27V273.78H1341.42V309.81Z" fill="#DE7B04"/>
<path d="M932.801 410.45C965.901 377.35 1011.63 356.88 1062.14 356.88C1112.65 356.88 1158.38 377.36 1191.48 410.45C1224.58 443.55 1245.05 489.28 1245.05 539.79C1245.05 590.3 1224.58 636.03 1191.48 669.13C1158.38 702.23 1112.65 722.7 1062.14 722.7C1011.63 722.7 965.911 702.23 932.801 669.13C899.701 636.03 879.221 590.3 879.221 539.79C879.221 489.28 899.691 443.55 932.801 410.45Z" fill="#222B2E"/>
<path d="M944.521 422.17C974.621 392.07 1016.21 373.45 1062.14 373.45C1108.08 373.45 1149.66 392.07 1179.77 422.17C1209.87 452.27 1228.49 493.86 1228.49 539.8C1228.49 585.74 1209.87 627.32 1179.77 657.42C1149.67 687.52 1108.08 706.14 1062.14 706.14C1016.21 706.14 974.621 687.52 944.521 657.42C914.421 627.32 895.801 585.73 895.801 539.8C895.801 493.87 914.421 452.28 944.521 422.17Z" fill="#3B4447"/>
<path d="M936.861 649.09L932.831 644.39L918.401 652.83C914.261 647.57 910.391 642.09 906.831 636.38L919.781 625.66L916.621 620.33L900.891 626.16C897.731 620.28 894.911 614.19 892.401 607.94L907.021 599.62L904.841 593.82L888.351 596.83C886.271 590.5 884.511 584.03 883.121 577.42L898.981 571.76L897.841 565.67L881.091 565.77C880.161 559.2 879.591 552.51 879.371 545.74L895.901 542.93L895.831 536.74L879.371 533.93C879.581 527.15 880.151 520.47 881.081 513.89L897.881 514L898.891 507.89L883.101 502.25C884.481 495.64 886.241 489.17 888.321 482.84L904.851 485.86L906.901 480.02L892.361 471.74C894.871 465.49 897.681 459.4 900.841 453.51L916.601 459.36L919.641 453.96L906.771 443.29C910.321 437.58 914.191 432.1 918.331 426.83L932.771 435.29L936.701 430.5L925.901 417.78C928.141 415.28 930.431 412.83 932.801 410.45C935.171 408.08 937.631 405.79 940.121 403.55L952.871 414.39L957.571 410.36L949.161 395.99C954.431 391.85 959.911 387.98 965.621 384.42L976.301 397.31L981.631 394.16L975.831 378.5C981.721 375.34 987.811 372.52 994.071 370.02L1002.34 384.56L1008.14 382.38L1005.15 365.98C1011.48 363.9 1017.96 362.14 1024.58 360.76L1030.21 376.53L1036.3 375.39L1036.2 358.75C1042.78 357.82 1049.47 357.25 1056.25 357.03L1059.04 373.45L1065.23 373.38L1068.02 357.03C1074.8 357.25 1081.5 357.81 1088.07 358.75L1087.96 375.43L1094.07 376.44L1099.67 360.76C1106.29 362.14 1112.77 363.91 1119.1 365.98L1116.1 382.39L1121.94 384.44L1130.16 370C1136.42 372.51 1142.51 375.33 1148.41 378.49L1142.6 394.13L1148 397.17L1158.59 384.39C1164.3 387.95 1169.79 391.82 1175.06 395.96L1166.66 410.3L1171.45 414.23L1184.09 403.5C1186.6 405.75 1189.07 408.05 1191.46 410.44C1193.82 412.8 1196.1 415.25 1198.33 417.74L1187.56 430.42L1191.59 435.12L1205.88 426.76C1210.03 432.03 1213.9 437.52 1217.46 443.23L1204.64 453.85L1207.8 459.18L1223.38 453.41C1226.54 459.3 1229.36 465.4 1231.88 471.66L1217.41 479.89L1219.59 485.69L1235.92 482.71C1238 489.05 1239.77 495.52 1241.16 502.14L1225.45 507.74L1226.59 513.83L1243.17 513.73C1244.11 520.31 1244.68 527 1244.9 533.79L1228.53 536.57L1228.6 542.76L1244.91 545.54C1244.7 552.33 1244.14 559.02 1243.21 565.6L1226.56 565.49L1225.55 571.6L1241.21 577.2C1239.83 583.82 1238.07 590.3 1236 596.64L1219.59 593.64L1217.54 599.48L1231.98 607.7C1229.47 613.96 1226.66 620.06 1223.5 625.95L1207.84 620.14L1204.8 625.54L1217.59 636.15C1214.04 641.86 1210.17 647.36 1206.03 652.63L1191.66 644.21L1187.73 649L1198.48 661.67C1196.21 664.21 1193.89 666.71 1191.48 669.12C1189.14 671.46 1186.73 673.71 1184.27 675.92L1171.55 665.11L1166.85 669.14L1175.24 683.48C1169.98 687.63 1164.49 691.5 1158.78 695.06L1148.12 682.19L1142.79 685.34L1148.59 700.99C1142.7 704.15 1136.61 706.97 1130.36 709.49L1122.08 694.94L1116.28 697.12L1119.27 713.54C1112.94 715.62 1106.47 717.39 1099.85 718.78L1094.21 702.98L1088.12 704.12L1088.22 720.81C1081.65 721.75 1074.96 722.32 1068.18 722.54L1065.38 706.06L1059.19 706.13L1056.39 722.55C1049.61 722.34 1042.92 721.78 1036.35 720.85L1036.46 704.08L1030.35 703.07L1024.71 718.84C1018.09 717.46 1011.62 715.7 1005.29 713.63L1008.31 697.1L1002.47 695.05L994.191 709.59C987.941 707.09 981.851 704.27 975.961 701.12L981.811 685.35L976.411 682.31L965.731 695.19C960.021 691.64 954.541 687.78 949.271 683.64L957.751 669.17L952.961 665.24L940.211 676.07C937.681 673.81 935.201 671.5 932.811 669.1C930.461 666.75 928.201 664.33 925.981 661.86L936.861 649.06V649.09Z" fill="url(#paint1_linear_860_1366)"/>
<path opacity="0.5" d="M951.291 428.93C979.661 400.56 1018.85 383.01 1062.14 383.01C1105.43 383.01 1144.63 400.56 1173 428.93C1201.37 457.3 1218.92 496.49 1218.92 539.79C1218.92 583.08 1201.37 622.28 1173 650.65C1144.63 679.02 1105.44 696.57 1062.14 696.57C1018.85 696.57 979.661 679.02 951.291 650.65C922.921 622.28 905.371 583.09 905.371 539.79C905.371 496.49 922.921 457.3 951.291 428.93Z" fill="url(#paint2_linear_860_1366)"/>
<path opacity="0.5" d="M1161.93 639.58C1136.39 665.12 1101.11 680.91 1062.14 680.91C1023.17 680.91 987.891 665.11 962.351 639.58C936.811 614.04 921.021 578.76 921.021 539.79C921.021 500.82 936.821 465.54 962.351 440C987.891 414.46 1023.17 398.67 1062.14 398.67C1101.11 398.67 1136.39 414.46 1161.93 440C1187.47 465.54 1203.27 500.82 1203.27 539.79C1203.27 578.76 1187.47 614.04 1161.93 639.58Z" fill="url(#paint3_linear_860_1366)"/>
<path opacity="0.5" d="M964.58 442.23C989.55 417.26 1024.04 401.82 1062.14 401.82C1100.24 401.82 1134.73 417.26 1159.7 442.23C1184.67 467.2 1200.11 501.69 1200.11 539.79C1200.11 577.89 1184.67 612.38 1159.7 637.35C1134.73 662.32 1100.24 677.76 1062.14 677.76C1024.04 677.76 989.55 662.32 964.58 637.35C939.61 612.38 924.17 577.89 924.17 539.79C924.17 501.69 939.61 467.2 964.58 442.23Z" fill="url(#paint4_linear_860_1366)"/>
<path d="M990.56 468.21C1008.88 449.89 1034.18 438.56 1062.14 438.56C1090.1 438.56 1115.4 449.89 1133.72 468.21C1152.04 486.53 1163.37 511.83 1163.37 539.79C1163.37 567.75 1152.04 593.05 1133.72 611.37C1115.4 629.69 1090.1 641.02 1062.14 641.02C1034.18 641.02 1008.88 629.69 990.56 611.37C972.24 593.05 960.91 567.75 960.91 539.79C960.91 511.83 972.24 486.53 990.56 468.21Z" fill="url(#paint5_linear_860_1366)"/>
<path opacity="0.5" d="M982.341 459.99C1002.76 439.57 1030.98 426.93 1062.14 426.93C1093.31 426.93 1121.52 439.56 1141.94 459.99C1162.36 480.41 1175 508.63 1175 539.8C1175 570.97 1162.37 599.18 1141.94 619.6C1121.52 640.02 1093.3 652.66 1062.14 652.66C1030.98 652.66 1002.76 640.03 982.341 619.6C961.921 599.18 949.281 570.96 949.281 539.8C949.281 508.63 961.911 480.42 982.341 459.99Z" fill="url(#paint6_linear_860_1366)"/>
<g style="mix-blend-mode:multiply" opacity="0.2">
<path d="M1000.11 478.89C1015.99 463.02 1037.92 453.2 1062.14 453.2C1086.37 453.2 1108.3 463.02 1124.17 478.89C1140.04 494.77 1149.86 516.7 1149.86 540.92C1149.86 565.14 1140.04 587.08 1124.17 602.95C1108.29 618.83 1086.36 628.64 1062.14 628.64C1037.92 628.64 1015.99 618.82 1000.11 602.95C984.23 587.08 974.41 565.14 974.41 540.92C974.41 516.7 984.23 494.76 1000.11 478.89Z" fill="black"/>
</g>
<path d="M1001.38 479.029C1016.93 463.479 1038.41 453.859 1062.14 453.859C1085.87 453.859 1107.35 463.479 1122.9 479.029C1138.45 494.579 1148.07 516.059 1148.07 539.799C1148.07 563.539 1138.45 585.009 1122.9 600.559C1107.35 616.109 1085.87 625.729 1062.14 625.729C1038.41 625.729 1016.93 616.109 1001.38 600.559C985.831 585.009 976.211 563.529 976.211 539.799C976.211 516.069 985.831 494.589 1001.38 479.029Z" fill="#FFB710"/>
<path d="M1001.38 479.029C1016.93 463.479 1038.41 453.859 1062.14 453.859C1085.87 453.859 1107.35 463.479 1122.9 479.029C1138.45 494.579 1148.07 516.059 1148.07 539.799C1148.07 563.539 1138.45 585.009 1122.9 600.559C1107.35 616.109 1085.87 625.729 1062.14 625.729C1038.41 625.729 1016.93 616.109 1001.38 600.559C985.831 585.009 976.211 563.529 976.211 539.799C976.211 516.069 985.831 494.589 1001.38 479.029Z" fill="#FFDE36"/>
<path d="M1003.23 480.879C1018.31 465.809 1039.13 456.479 1062.14 456.479C1085.15 456.479 1105.97 465.809 1121.05 480.879C1136.13 495.959 1145.45 516.779 1145.45 539.789C1145.45 562.799 1136.13 583.619 1121.05 598.699C1105.97 613.779 1085.15 623.099 1062.14 623.099C1039.14 623.099 1018.31 613.779 1003.23 598.699C988.15 583.619 978.83 562.799 978.83 539.789C978.83 516.779 988.15 495.959 1003.23 480.879Z" fill="#FFB710"/>
<path d="M1006.56 484.209C1020.78 469.989 1040.43 461.189 1062.14 461.189C1083.85 461.189 1103.5 469.989 1117.72 484.209C1131.94 498.429 1140.74 518.079 1140.74 539.789C1140.74 561.499 1131.94 581.149 1117.72 595.369C1103.5 609.589 1083.85 618.389 1062.14 618.389C1040.44 618.389 1020.79 609.589 1006.56 595.369C992.341 581.149 983.541 561.499 983.541 539.789C983.541 518.079 992.341 498.429 1006.56 484.209Z" fill="#DE7B04"/>
<g style="mix-blend-mode:multiply" opacity="0.4">
<path d="M1006.56 484.209C1020.78 469.989 1040.43 461.189 1062.14 461.189C1083.85 461.189 1103.5 469.989 1117.72 484.209C1131.94 498.429 1140.74 518.079 1140.74 539.789C1140.74 561.499 1131.94 581.149 1117.72 595.369C1103.5 609.589 1083.85 618.389 1062.14 618.389C1040.44 618.389 1020.79 609.589 1006.56 595.369C992.341 581.149 983.541 561.499 983.541 539.789C983.541 518.079 992.341 498.429 1006.56 484.209Z" fill="#DE7B04"/>
</g>
<g style="mix-blend-mode:multiply" opacity="0.15">
<path d="M1024.77 503.85C1034.34 494.29 1047.55 488.37 1062.14 488.37C1076.74 488.37 1089.95 494.29 1099.52 503.85C1109.09 513.42 1115 526.63 1115 541.23C1115 555.83 1109.08 569.04 1099.52 578.61C1089.95 588.18 1076.74 594.09 1062.14 594.09C1047.54 594.09 1034.33 588.17 1024.77 578.61C1015.2 569.05 1009.29 555.83 1009.29 541.23C1009.29 526.63 1015.21 513.42 1024.77 503.85Z" fill="#DE7B04"/>
</g>
<g style="mix-blend-mode:multiply" opacity="0.2">
<path d="M1025.73 504.41C1035.05 495.09 1047.92 489.33 1062.14 489.33C1076.36 489.33 1089.23 495.09 1098.55 504.41C1107.87 513.73 1113.63 526.6 1113.63 540.82C1113.63 555.04 1107.87 567.91 1098.55 577.23C1089.23 586.55 1076.36 592.31 1062.14 592.31C1047.92 592.31 1035.05 586.55 1025.73 577.23C1016.41 567.91 1010.65 555.04 1010.65 540.82C1010.65 526.6 1016.41 513.73 1025.73 504.41Z" fill="#DE7B04"/>
</g>
<g style="mix-blend-mode:multiply" opacity="0.2">
<path d="M1026.72 504.97C1035.79 495.91 1048.31 490.3 1062.14 490.3C1075.97 490.3 1088.5 495.91 1097.56 504.97C1106.63 514.04 1112.23 526.56 1112.23 540.39C1112.23 554.22 1106.62 566.75 1097.56 575.81C1088.49 584.88 1075.97 590.48 1062.14 590.48C1048.31 590.48 1035.78 584.87 1026.72 575.81C1017.65 566.75 1012.05 554.22 1012.05 540.39C1012.05 526.56 1017.66 514.03 1026.72 504.97Z" fill="#DE7B04"/>
</g>
<g style="mix-blend-mode:multiply" opacity="0.3">
<path d="M1027.83 509.5C1036.61 500.72 1048.74 495.29 1062.14 495.29C1075.54 495.29 1087.67 500.72 1096.45 509.5C1105.23 518.28 1110.66 530.41 1110.66 543.81C1110.66 557.21 1105.23 569.34 1096.45 578.12C1087.67 586.9 1075.54 592.33 1062.14 592.33C1048.74 592.33 1036.61 586.9 1027.83 578.12C1019.05 569.34 1013.62 557.21 1013.62 543.81C1013.62 530.41 1019.05 518.28 1027.83 509.5Z" fill="#DE7B04"/>
</g>
<path opacity="0.5" d="M1027.83 505.48C1036.61 496.7 1048.74 491.27 1062.14 491.27C1075.54 491.27 1087.67 496.7 1096.45 505.48C1105.23 514.26 1110.66 526.39 1110.66 539.79C1110.66 553.19 1105.23 565.32 1096.45 574.1C1087.67 582.88 1075.54 588.31 1062.14 588.31C1048.74 588.31 1036.61 582.88 1027.83 574.1C1019.05 565.32 1013.62 553.19 1013.62 539.79C1013.62 526.39 1019.05 514.26 1027.83 505.48Z" fill="#DE7B04"/>
<path opacity="0.5" d="M1027.83 505.48C1036.61 496.7 1048.74 491.27 1062.14 491.27C1075.54 491.27 1087.67 496.7 1096.45 505.48C1105.23 514.26 1110.66 526.39 1110.66 539.79C1110.66 553.19 1105.23 565.32 1096.45 574.1C1087.67 582.88 1075.54 588.31 1062.14 588.31C1048.74 588.31 1036.61 582.88 1027.83 574.1C1019.05 565.32 1013.62 553.19 1013.62 539.79C1013.62 526.39 1019.05 514.26 1027.83 505.48Z" fill="#FFB710"/>
<g style="mix-blend-mode:multiply" opacity="0.15">
<path d="M1033.65 512.64C1040.94 505.35 1051.02 500.84 1062.14 500.84C1073.27 500.84 1083.34 505.35 1090.64 512.64C1097.93 519.93 1102.44 530.01 1102.44 541.14C1102.44 552.27 1097.93 562.34 1090.64 569.63C1083.35 576.92 1073.27 581.43 1062.14 581.43C1051.01 581.43 1040.94 576.92 1033.65 569.63C1026.36 562.34 1021.85 552.26 1021.85 541.14C1021.85 530.01 1026.36 519.94 1033.65 512.64Z" fill="#DE7B04"/>
</g>
<g style="mix-blend-mode:multiply" opacity="0.2">
<path d="M1034.43 513.01C1041.52 505.92 1051.32 501.53 1062.14 501.53C1072.96 501.53 1082.76 505.92 1089.85 513.01C1096.94 520.1 1101.33 529.9 1101.33 540.72C1101.33 551.54 1096.94 561.34 1089.85 568.43C1082.76 575.52 1072.96 579.91 1062.14 579.91C1051.32 579.91 1041.52 575.52 1034.43 568.43C1027.34 561.34 1022.95 551.54 1022.95 540.72C1022.95 529.9 1027.34 520.1 1034.43 513.01Z" fill="#DE7B04"/>
</g>
<g style="mix-blend-mode:multiply" opacity="0.2">
<path d="M1035.18 513.279C1042.08 506.379 1051.61 502.109 1062.14 502.109C1072.67 502.109 1082.2 506.379 1089.1 513.279C1096 520.179 1100.27 529.709 1100.27 540.249C1100.27 550.779 1096 560.309 1089.1 567.209C1082.2 574.109 1072.67 578.379 1062.14 578.379C1051.61 578.379 1042.08 574.109 1035.18 567.209C1028.28 560.309 1024.01 550.779 1024.01 540.249C1024.01 529.719 1028.28 520.189 1035.18 513.279Z" fill="#DE7B04"/>
</g>
<path d="M1035.8 513.45C1042.54 506.71 1051.85 502.54 1062.14 502.54C1072.43 502.54 1081.74 506.71 1088.48 513.45C1095.22 520.19 1099.39 529.5 1099.39 539.79C1099.39 550.08 1095.22 559.39 1088.48 566.13C1081.74 572.87 1072.43 577.04 1062.14 577.04C1051.86 577.04 1042.54 572.87 1035.8 566.13C1029.06 559.39 1024.89 550.08 1024.89 539.79C1024.89 529.5 1029.06 520.19 1035.8 513.45Z" fill="#FFB710"/>
<path d="M1035.8 513.45C1042.54 506.71 1051.85 502.54 1062.14 502.54C1072.43 502.54 1081.74 506.71 1088.48 513.45C1095.22 520.19 1099.39 529.5 1099.39 539.79C1099.39 550.08 1095.22 559.39 1088.48 566.13C1081.74 572.87 1072.43 577.04 1062.14 577.04C1051.86 577.04 1042.54 572.87 1035.8 566.13C1029.06 559.39 1024.89 550.08 1024.89 539.79C1024.89 529.5 1029.06 520.19 1035.8 513.45Z" fill="#FFDE36"/>
<path d="M1037.29 514.939C1043.65 508.579 1052.44 504.649 1062.14 504.649C1071.84 504.649 1080.63 508.579 1086.99 514.939C1093.35 521.299 1097.28 530.089 1097.28 539.789C1097.28 549.489 1093.35 558.279 1086.99 564.639C1080.63 570.999 1071.84 574.929 1062.14 574.929C1052.44 574.929 1043.65 570.999 1037.29 564.639C1030.93 558.279 1027 549.489 1027 539.789C1027 530.089 1030.93 521.299 1037.29 514.939Z" fill="#FFB710"/>
<path d="M1040.3 517.95C1045.89 512.36 1053.61 508.91 1062.14 508.91C1070.67 508.91 1078.39 512.37 1083.98 517.95C1089.57 523.53 1093.03 531.26 1093.03 539.79C1093.03 548.32 1089.57 556.04 1083.98 561.63C1078.39 567.22 1070.67 570.67 1062.14 570.67C1053.61 570.67 1045.89 567.21 1040.3 561.63C1034.71 556.04 1031.25 548.32 1031.25 539.79C1031.25 531.26 1034.71 523.54 1040.3 517.95Z" fill="#DE7B04"/>
<path d="M1041.36 519.009C1046.68 513.689 1054.03 510.399 1062.14 510.399C1070.26 510.399 1077.6 513.689 1082.92 519.009C1088.24 524.329 1091.53 531.679 1091.53 539.789C1091.53 547.899 1088.24 555.249 1082.92 560.569C1077.6 565.889 1070.25 569.179 1062.14 569.179C1054.02 569.179 1046.68 565.889 1041.36 560.569C1036.04 555.249 1032.75 547.899 1032.75 539.789C1032.75 531.679 1036.04 524.329 1041.36 519.009Z" fill="#FFB710"/>
<path d="M1051.2 528.85C1054 526.05 1057.87 524.32 1062.14 524.32C1066.41 524.32 1070.28 526.05 1073.08 528.85C1075.88 531.65 1077.61 535.52 1077.61 539.79C1077.61 544.06 1075.88 547.93 1073.08 550.73C1070.28 553.53 1066.41 555.26 1062.14 555.26C1057.87 555.26 1054 553.53 1051.2 550.73C1048.4 547.93 1046.67 544.06 1046.67 539.79C1046.67 535.52 1048.4 531.65 1051.2 528.85Z" fill="#414E5F"/>
<g style="mix-blend-mode:multiply" opacity="0.5">
<path d="M1051.2 530.81C1054 528.01 1057.87 526.28 1062.14 526.28C1066.41 526.28 1070.28 528.01 1073.08 530.81C1075.88 533.61 1077.61 537.48 1077.61 541.75C1077.61 546.02 1075.88 549.89 1073.08 552.69C1070.28 555.49 1066.41 557.22 1062.14 557.22C1057.87 557.22 1054 555.49 1051.2 552.69C1048.4 549.89 1046.67 546.02 1046.67 541.75C1046.67 537.48 1048.4 533.61 1051.2 530.81Z" fill="#DE7B04"/>
</g>
<path d="M1051.2 528.85C1054 526.05 1057.87 524.32 1062.14 524.32C1066.41 524.32 1070.28 526.05 1073.08 528.85C1075.88 531.65 1077.61 535.52 1077.61 539.79C1077.61 544.06 1075.88 547.93 1073.08 550.73C1070.28 553.53 1066.41 555.26 1062.14 555.26C1057.87 555.26 1054 553.53 1051.2 550.73C1048.4 547.93 1046.67 544.06 1046.67 539.79C1046.67 535.52 1048.4 531.65 1051.2 528.85Z" fill="#5B6879"/>
<path d="M1053.47 531.12C1055.69 528.9 1058.76 527.53 1062.14 527.53C1065.52 527.53 1068.59 528.9 1070.81 531.12C1073.03 533.34 1074.4 536.41 1074.4 539.79C1074.4 543.17 1073.03 546.24 1070.81 548.46C1068.59 550.68 1065.52 552.05 1062.14 552.05C1058.76 552.05 1055.69 550.68 1053.47 548.46C1051.25 546.24 1049.88 543.17 1049.88 539.79C1049.88 536.41 1051.25 533.34 1053.47 531.12Z" fill="#414E5F"/>
<g style="mix-blend-mode:multiply" opacity="0.2">
<path d="M983.541 539.789C983.541 561.489 992.341 581.149 1006.56 595.369C1020.78 609.589 1040.43 618.389 1062.14 618.389C1083.85 618.389 1103.5 609.589 1117.72 595.369C1131.94 581.149 1140.74 561.499 1140.74 539.789C1140.74 518.079 1131.94 498.429 1117.72 484.209C1103.5 469.989 1083.85 461.189 1062.14 461.189C1040.44 461.189 1020.79 469.989 1006.56 484.209C992.331 498.429 983.541 518.079 983.541 539.789ZM986.471 539.789C986.471 518.889 994.941 499.979 1008.63 486.279C1022.32 472.589 1041.24 464.119 1062.14 464.119C1083.04 464.119 1101.95 472.589 1115.65 486.279C1129.34 499.969 1137.81 518.889 1137.81 539.789C1137.81 560.689 1129.34 579.599 1115.65 593.299C1101.96 606.989 1083.04 615.459 1062.14 615.459C1041.25 615.459 1022.33 606.989 1008.63 593.299C994.941 579.609 986.471 560.689 986.471 539.789Z" fill="#DE7B04"/>
</g>
<g style="mix-blend-mode:multiply" opacity="0.2">
<path d="M983.541 539.789C983.541 561.489 992.341 581.149 1006.56 595.369C1020.78 609.589 1040.43 618.389 1062.14 618.389C1083.85 618.389 1103.5 609.589 1117.72 595.369C1131.94 581.149 1140.74 561.499 1140.74 539.789C1140.74 518.079 1131.94 498.429 1117.72 484.209C1103.5 469.989 1083.85 461.189 1062.14 461.189C1040.44 461.189 1020.79 469.989 1006.56 484.209C992.331 498.429 983.541 518.079 983.541 539.789ZM984.941 539.789C984.941 518.469 993.581 499.169 1007.55 485.199C1021.52 471.229 1040.82 462.589 1062.14 462.589C1083.46 462.589 1102.76 471.229 1116.73 485.199C1130.7 499.169 1139.34 518.469 1139.34 539.789C1139.34 561.109 1130.7 580.409 1116.73 594.379C1102.76 608.349 1083.46 616.989 1062.14 616.989C1040.82 616.989 1021.52 608.349 1007.55 594.379C993.581 580.409 984.941 561.109 984.941 539.789Z" fill="#DE7B04"/>
</g>
<g style="mix-blend-mode:multiply" opacity="0.3">
<path d="M1006.56 484.209C1020.78 469.989 1040.43 461.189 1062.14 461.189C1083.85 461.189 1103.5 469.989 1117.72 484.209C1131.94 498.429 1140.74 518.079 1140.74 539.789C1140.74 541.019 1140.7 542.239 1140.65 543.459C1139.72 523.209 1131.14 504.959 1117.72 491.549C1103.5 477.329 1083.85 468.529 1062.14 468.529C1040.44 468.529 1020.79 477.329 1006.56 491.549C993.141 504.969 984.561 523.219 983.631 543.459C983.571 542.239 983.541 541.019 983.541 539.789C983.541 518.079 992.341 498.429 1006.56 484.209Z" fill="#DE7B04"/>
</g>
<path d="M893.52 273.79L1371.27 273.79V263.92L893.52 263.92V273.79Z" fill="#414E5F"/>
<path opacity="0.5" d="M1341.42 273.79H1371.27V263.92H1341.42V273.79Z" fill="#29333F"/>
<g style="mix-blend-mode:multiply" opacity="0.2">
<path d="M1266.51 326.04H1371.27V309.81H1266.51V326.04Z" fill="black"/>
</g>
<g style="mix-blend-mode:multiply" opacity="0.2">
<path d="M1266.51 313.88H1371.27V309.81H1266.51V313.88Z" fill="black"/>
</g>
<g style="mix-blend-mode:multiply" opacity="0.2">
<path d="M1266.51 416.59H1301.43V412.52H1266.51V416.59Z" fill="black"/>
</g>
<path d="M1204.81 108.52C1204.81 106.34 1206.59 104.55 1208.78 104.55H1216.22C1218.4 104.55 1220.5 106.31 1220.87 108.46L1231.73 170.19C1232.11 172.34 1230.63 174.1 1228.45 174.1H1208.77C1206.59 174.1 1204.8 172.32 1204.8 170.13V108.52H1204.81Z" fill="#29333F"/>
<path d="M1228.45 172.11C1228.91 172.11 1229.29 171.95 1229.53 171.67C1229.77 171.39 1229.86 170.98 1229.78 170.53L1218.92 108.8C1218.71 107.59 1217.45 106.53 1216.22 106.53H1208.78C1207.69 106.53 1206.8 107.42 1206.8 108.51V170.12C1206.8 171.21 1207.69 172.1 1208.78 172.1H1228.46L1228.45 172.11Z" fill="#98A6AA"/>
<path d="M1100.06 170.13C1100.06 172.31 1098.28 174.1 1096.09 174.1H1040.12C1037.94 174.1 1037.01 172.53 1038.05 170.62L1072.08 108.05C1073.12 106.13 1075.76 104.57 1077.94 104.57H1096.09C1098.27 104.57 1100.06 106.35 1100.06 108.54V170.15V170.13Z" fill="#29333F"/>
<path d="M1096.09 172.11C1097.18 172.11 1098.07 171.22 1098.07 170.13V108.52C1098.07 107.43 1097.18 106.54 1096.09 106.54H1077.94C1076.48 106.54 1074.52 107.71 1073.82 108.99L1039.79 171.56C1039.65 171.82 1039.61 171.99 1039.61 172.07H1039.62C1039.68 172.07 1039.84 172.11 1040.12 172.11H1096.09Z" fill="#98A6AA"/>
<path d="M1191.55 104.55H1127.89C1125.7 104.55 1123.92 106.327 1123.92 108.52V170.12C1123.92 172.312 1125.7 174.09 1127.89 174.09H1191.55C1193.74 174.09 1195.52 172.312 1195.52 170.12V108.52C1195.52 106.327 1193.74 104.55 1191.55 104.55Z" fill="#29333F"/>
<path d="M1191.56 106.54H1127.89C1126.8 106.54 1125.91 107.427 1125.91 108.52V170.13C1125.91 171.224 1126.8 172.11 1127.89 172.11H1191.56C1192.65 172.11 1193.54 171.224 1193.54 170.13V108.52C1193.54 107.427 1192.65 106.54 1191.56 106.54Z" fill="#98A6AA"/>
<path opacity="0.5" d="M1228.45 172.11H1208.77C1207.68 172.11 1206.79 171.22 1206.79 170.13V168.48L1214.49 163.56H1228.55L1229.78 170.53C1229.86 170.98 1229.78 171.39 1229.53 171.67C1229.29 171.95 1228.91 172.11 1228.45 172.11Z" fill="#414E5F"/>
<path opacity="0.5" d="M1096.09 172.11H1040.12C1039.84 172.11 1039.68 172.07 1039.62 172.07H1039.61C1039.61 171.99 1039.65 171.82 1039.79 171.56L1045.47 161.12H1055.24L1061.23 152.78H1079.2L1085.73 127.56H1098.08V170.13C1098.08 171.22 1097.19 172.11 1096.1 172.11H1096.09Z" fill="#414E5F"/>
<path opacity="0.5" d="M1127.89 172.11C1126.8 172.11 1125.91 171.22 1125.91 170.13V137.16L1136.09 163.57H1153.78L1156.33 172.12H1127.89V172.11Z" fill="#414E5F"/>
<g style="mix-blend-mode:multiply" opacity="0.2">
<path d="M1123.93 206.64H1148.73V198.61H1123.93V206.64Z" fill="black"/>
</g>
<path d="M1123.93 204.67H1148.73V196.64H1123.93V204.67Z" fill="#414E5F"/>
<path d="M976.199 263.91H998.279V184.01H976.199V263.91Z" fill="#FFB710"/>
<path opacity="0.5" d="M976.199 263.91H998.279V184.01H976.199V263.91Z" fill="#DE7B04"/>
<path d="M940.1 263.91H976.21V233.39H950.53L940.1 240.48V263.91Z" fill="#29333F"/>
<path d="M961.751 233.39H976.211V216.79H961.751V233.39Z" fill="#29333F"/>
<path d="M1451.63 623.17H1470.22V568.11H1451.63V623.17Z" fill="#FFB710"/>
<path d="M604.97 590.489H735.33V421.059H604.97V590.489Z" fill="#FFB710"/>
<path opacity="0.5" d="M604.97 590.479H735.33V582.349H604.97V590.479Z" fill="#DE7B04"/>
<path opacity="0.5" d="M604.97 441.08H735.33V421.06H604.97V441.08Z" fill="#FFDE36"/>
<path d="M764.21 425.5H794.66V362.75H764.21V425.5Z" fill="#AEC0CB"/>
<path opacity="0.5" d="M764.21 425.5H794.66V362.75H764.21V425.5Z" fill="#889AA5"/>
<path d="M764.21 363.62H794.66V362.75H764.21V363.62Z" fill="#D3E5F0"/>
<path opacity="0.3" d="M769.561 424.63H778.281V363.62H769.561V424.63Z" fill="#D3E5F0"/>
<path opacity="0.4" d="M790.3 424.63H794.66V363.62H790.3V424.63Z" fill="#7B8D98"/>
<path style="mix-blend-mode:multiply" opacity="0.4" d="M764.21 424.63H794.66V367.87H764.21V424.63Z" fill="url(#paint7_linear_860_1366)"/>
<path d="M553.81 533.956L582.4 518.799L505.097 372.983L476.506 388.14L553.81 533.956Z" fill="#FFB710"/>
<path opacity="0.5" d="M553.81 533.956L582.4 518.799L505.097 372.983L476.506 388.14L553.81 533.956Z" fill="#DE7B04"/>
<path d="M477.569 390.165L506.16 375.008L505.088 372.985L476.497 388.142L477.569 390.165Z" fill="#FFDE36"/>
<path d="M553.819 533.954L582.41 518.797L581.338 516.774L552.747 531.931L553.819 533.954Z" fill="#DE7B04"/>
<path opacity="0.3" d="M557.767 529.265L565.957 524.923L490.794 383.144L482.604 387.486L557.767 529.265Z" fill="#FFDE36"/>
<path opacity="0.4" d="M577.232 518.947L581.322 516.778L506.159 375L502.069 377.168L577.232 518.947Z" fill="#DE7B04"/>
<path d="M482.283 385.07L498.566 376.438L462.847 309.06L446.564 317.693L482.283 385.07Z" fill="#AEC0CB"/>
<path opacity="0.5" d="M482.283 385.069L498.566 376.437L462.847 309.059L446.564 317.692L482.283 385.069Z" fill="#889AA5"/>
<path d="M447.06 318.627L463.344 309.994L462.847 309.058L446.564 317.69L447.06 318.627Z" fill="#D3E5F0"/>
<path d="M482.289 385.068L498.572 376.436L498.076 375.499L481.792 384.132L482.289 385.068Z" fill="#6F818C"/>
<path opacity="0.3" d="M484.648 382.625L489.312 380.152L454.581 314.639L449.916 317.112L484.648 382.625Z" fill="#D3E5F0"/>
<path opacity="0.4" d="M495.744 376.731L498.076 375.494L463.345 309.981L461.012 311.218L495.744 376.731Z" fill="#7B8D98"/>
<path style="mix-blend-mode:multiply" opacity="0.4" d="M462.838 309.111L446.555 317.743L482.274 385.12L498.558 376.488L462.838 309.111Z" fill="url(#paint8_linear_860_1366)"/>
<g style="mix-blend-mode:multiply" opacity="0.15">
<path d="M551.239 513.78C556.059 508.96 562.719 505.98 570.069 505.98C577.429 505.98 584.089 508.96 588.909 513.78C593.729 518.6 596.709 525.26 596.709 532.62C596.709 539.98 593.729 546.64 588.909 551.46C584.089 556.28 577.429 559.26 570.069 559.26C562.709 559.26 556.059 556.28 551.239 551.46C546.419 546.64 543.439 539.98 543.439 532.62C543.439 525.26 546.419 518.6 551.239 513.78Z" fill="#DE7B04"/>
</g>
<g style="mix-blend-mode:multiply" opacity="0.2">
<path d="M551.76 514.021C556.45 509.331 562.92 506.431 570.08 506.431C577.23 506.431 583.71 509.331 588.4 514.021C593.09 518.711 595.99 525.181 595.99 532.341C595.99 539.491 593.09 545.971 588.4 550.661C583.71 555.351 577.24 558.251 570.08 558.251C562.93 558.251 556.45 555.351 551.76 550.661C547.07 545.971 544.17 539.501 544.17 532.341C544.17 525.191 547.07 518.711 551.76 514.021Z" fill="#DE7B04"/>
</g>
<g style="mix-blend-mode:multiply" opacity="0.2">
<path d="M552.249 514.2C556.809 509.64 563.109 506.82 570.069 506.82C577.029 506.82 583.329 509.64 587.889 514.2C592.449 518.76 595.269 525.06 595.269 532.02C595.269 538.98 592.449 545.28 587.889 549.84C583.329 554.4 577.029 557.22 570.069 557.22C563.109 557.22 556.809 554.4 552.249 549.84C547.689 545.28 544.869 538.98 544.869 532.02C544.869 525.06 547.689 518.76 552.249 514.2Z" fill="#DE7B04"/>
</g>
<path d="M552.659 514.311C557.119 509.851 563.269 507.101 570.069 507.101C576.869 507.101 583.019 509.861 587.479 514.311C591.939 518.771 594.689 524.921 594.689 531.721C594.689 538.521 591.929 544.671 587.479 549.131C583.019 553.591 576.869 556.341 570.069 556.341C563.269 556.341 557.119 553.581 552.659 549.131C548.199 544.671 545.449 538.521 545.449 531.721C545.449 524.921 548.209 518.771 552.659 514.311Z" fill="#FFB710"/>
<path d="M552.659 514.311C557.119 509.851 563.269 507.101 570.069 507.101C576.869 507.101 583.019 509.861 587.479 514.311C591.939 518.771 594.689 524.921 594.689 531.721C594.689 538.521 591.929 544.671 587.479 549.131C583.019 553.591 576.869 556.341 570.069 556.341C563.269 556.341 557.119 553.581 552.659 549.131C548.199 544.671 545.449 538.521 545.449 531.721C545.449 524.921 548.209 518.771 552.659 514.311Z" fill="#FFDE36"/>
<path d="M553.65 515.3C557.85 511.1 563.66 508.5 570.08 508.5C576.5 508.5 582.3 511.1 586.51 515.3C590.71 519.5 593.31 525.31 593.31 531.73C593.31 538.14 590.71 543.95 586.51 548.16C582.31 552.36 576.5 554.96 570.08 554.96C563.66 554.96 557.86 552.36 553.65 548.16C549.45 543.96 546.85 538.15 546.85 531.73C546.85 525.31 549.45 519.51 553.65 515.3Z" fill="#FFB710"/>
<path opacity="0.2" d="M553.65 515.3C557.85 511.1 563.66 508.5 570.08 508.5C576.5 508.5 582.3 511.1 586.51 515.3C590.71 519.5 593.31 525.31 593.31 531.73C593.31 538.14 590.71 543.95 586.51 548.16C582.31 552.36 576.5 554.96 570.08 554.96C563.66 554.96 557.86 552.36 553.65 548.16C549.45 543.96 546.85 538.15 546.85 531.73C546.85 525.31 549.45 519.51 553.65 515.3Z" fill="#DE7B04"/>
<path d="M1409.63 0H1007.05L982.53 15L961.81 52.83H77.21L2 243.13L822.14 385.44L1012.85 75.21L1409.63 21.49V0Z" fill="#FFB710"/>
<path opacity="0.2" d="M1409.63 0H1007.05L982.53 15L961.81 52.83H77.21L2 243.13L822.14 385.44L1012.85 75.21L1409.63 21.49V0Z" fill="#DE7B04"/>
<path d="M822.14 385.44L2 243.13L9.82 223.36L833.87 366.35L822.14 385.44Z" fill="#DE7B04"/>
<g style="mix-blend-mode:multiply" opacity="0.2">
<path d="M68.69 172.04L243.29 187.1L226.1 282.01L240.14 284.45L257.55 188.33L445.35 204.53L425.06 316.53L440.62 319.23L461.15 205.89L650.62 222.23L627.17 351.6L641.75 354.13L665.42 223.51L909.11 244.53L916.59 232.36L667.71 210.89L687.6 101.14H973.43L1005.15 87.7001L1012.83 75.2001L1402.14 22.4502V8.66016H999.56L979.14 21.1502L961.79 52.8202H959.06L954.31 61.4902H694.77L696.34 52.8202H681.3L679.73 61.4902H487.27L488.84 52.8202H472.79L471.22 61.4902H280.49L282.06 52.8202H267.58L266.01 61.4902H73.79L2 243.13L38.12 249.4L68.69 172.05V172.04ZM463.44 193.29L480.13 101.16H672.58L652.92 209.64L463.44 193.3V193.29ZM259.83 175.72L273.34 101.15H464.07L447.63 191.92L259.83 175.72ZM73.59 159.66L96.71 101.16H258.86L245.58 174.5L73.6 159.66H73.59Z" fill="black"/>
</g>
<path d="M104.19 92.49L39.91 255.11L0 248.19L77.21 52.83H961.81L982.53 15L1007.05 0H1409.63V21.49L1012.85 75.21L970.6 92.49H104.19Z" fill="#FFB710"/>
<path d="M1007.61 2.97L984.019 17.4L962.989 55.79H76.0391L77.2091 52.83H961.809L982.529 15L1007.05 0H1409.63V2.97H1007.61Z" fill="#FFDE36"/>
<path d="M912.251 238.83L930.601 209L86.9006 136.22L74.8906 166.6L912.251 238.83Z" fill="#FFB710"/>
<path d="M86.9009 136.22L930.601 209L928.451 212.5L85.6309 139.79L86.9009 136.22Z" fill="#FFDE36"/>
<path d="M912.251 238.83L74.8906 166.6L75.9506 163.91L913.881 236.19L912.251 238.83Z" fill="#DE7B04"/>
<path d="M666.98 370.65L629.74 364.18L635.58 331.94L672.83 338.41L666.98 370.65Z" fill="#FFB710"/>
<path opacity="0.7" d="M666.98 370.65L629.74 364.18L635.58 331.94L672.83 338.41L666.98 370.65Z" fill="#DE7B04"/>
<path d="M464.859 335.58H464.839L427.619 329.12L433.459 296.87L470.709 303.33L464.859 335.58Z" fill="#FFB710"/>
<path opacity="0.7" d="M464.859 335.58H464.839L427.619 329.12L433.459 296.87L470.709 303.33L464.859 335.58Z" fill="#DE7B04"/>
<path d="M265.9 301.06L228.66 294.59L234.5 262.35L271.74 268.81L265.9 301.06Z" fill="#FFB710"/>
<path opacity="0.7" d="M265.9 301.06L228.66 294.59L234.5 262.35L271.74 268.81L265.9 301.06Z" fill="#DE7B04"/>
<path opacity="0.5" d="M37.6094 254.71L101.719 92.4902H104.189L39.9094 255.11L37.6094 254.71Z" fill="#FFDE36"/>
<path d="M39.91 255.11L0 248.19L9.82 223.36L49.73 230.28L39.91 255.11Z" fill="#FFB710"/>
<path opacity="0.7" d="M39.91 255.11L0 248.19L9.82 223.36L49.73 230.28L39.91 255.11Z" fill="#DE7B04"/>
<path opacity="0.4" d="M1409.63 21.4902L1024.89 38.8202L1012.85 75.2102L1409.63 21.4902Z" fill="#DE7B04"/>
<g style="mix-blend-mode:multiply" opacity="0.2">
<path d="M1409.63 21.4902L1024.89 38.8202L1012.85 75.2102L1029.84 44.6002L1409.63 21.4902Z" fill="black"/>
</g>
<path d="M265.261 92.5H303.681L292.541 153.96L254.721 150.7L265.261 92.5Z" fill="#FFB710"/>
<path d="M470.479 92.5H508.889L494.599 171.39L456.779 168.13L470.479 92.5Z" fill="#FFB710"/>
<path d="M662.061 185.84L678.981 92.5H717.391L699.881 189.1L662.061 185.84Z" fill="#FFB710"/>
<path opacity="0.5" d="M696.83 188.84L714.29 92.5H717.39L699.88 189.1L696.83 188.84Z" fill="#FFDE36"/>
<path opacity="0.5" d="M678.981 92.5H681.791L664.831 186.08L662.061 185.84L678.981 92.5Z" fill="#DE7B04"/>
<path opacity="0.5" d="M506.26 92.5H508.89L494.6 171.39L492.01 171.17L506.26 92.5Z" fill="#FFDE36"/>
<path opacity="0.5" d="M470.479 92.5H472.919L459.179 168.34L456.779 168.13L470.479 92.5Z" fill="#DE7B04"/>
<path opacity="0.5" d="M301.051 92.5H303.681L292.541 153.96L289.961 153.74L301.051 92.5Z" fill="#FFDE36"/>
<g style="mix-blend-mode:multiply" opacity="0.2">
<path d="M678.98 92.5H717.39L716.58 96.98H678.17L678.98 92.5Z" fill="black"/>
</g>
<g style="mix-blend-mode:multiply" opacity="0.2">
<path d="M470.48 92.5H508.89L508.08 96.98H469.66L470.48 92.5Z" fill="black"/>
</g>
<path d="M292.54 153.96L265.9 301.06L228.66 294.59L254.72 150.7L292.54 153.96Z" fill="#FFB710"/>
<path opacity="0.5" d="M254.72 150.7L257.13 150.91L231.02 295L228.66 294.59L254.72 150.7Z" fill="#DE7B04"/>
<path opacity="0.5" d="M292.54 153.96L265.9 301.06L263.35 300.62L289.96 153.74L292.54 153.96Z" fill="#FFDE36"/>
<path d="M494.599 171.39L464.859 335.58H464.839L427.619 329.12L456.779 168.13L494.599 171.39Z" fill="#FFB710"/>
<path opacity="0.5" d="M459.179 168.34L429.969 329.53L427.619 329.12L456.779 168.13L459.179 168.34Z" fill="#DE7B04"/>
<path opacity="0.5" d="M494.601 171.39L464.861 335.58H464.841L462.301 335.14L492.011 171.17L494.601 171.39Z" fill="#FFDE36"/>
<path d="M699.88 189.1L666.98 370.65L629.74 364.18L662.06 185.84L699.88 189.1Z" fill="#FFB710"/>
<path opacity="0.5" d="M664.83 186.08L632.46 364.65L629.74 364.18L662.06 185.84L664.83 186.08Z" fill="#DE7B04"/>
<path opacity="0.5" d="M699.881 189.1L666.981 370.65L663.971 370.12L696.831 188.84L699.881 189.1Z" fill="#FFDE36"/>
<path opacity="0.5" d="M265.261 92.5H267.711L257.131 150.91L254.721 150.7L265.261 92.5Z" fill="#DE7B04"/>
<g style="mix-blend-mode:multiply" opacity="0.2">
<path d="M265.259 92.5H303.679L302.869 96.98H264.449L265.259 92.5Z" fill="black"/>
</g>
<path d="M235.41 410.45C268.51 377.35 314.24 356.88 364.75 356.88C415.26 356.88 460.99 377.36 494.09 410.45C527.19 443.55 547.66 489.28 547.66 539.79C547.66 590.3 527.19 636.03 494.09 669.13C460.99 702.23 415.26 722.7 364.75 722.7C314.24 722.7 268.52 702.23 235.41 669.13C202.31 636.03 181.83 590.3 181.83 539.79C181.83 489.28 202.3 443.55 235.41 410.45Z" fill="#222B2E"/>
<path d="M247.12 422.17C277.22 392.07 318.81 373.45 364.74 373.45C410.67 373.45 452.26 392.07 482.37 422.17C512.47 452.27 531.09 493.86 531.09 539.8C531.09 585.74 512.47 627.32 482.37 657.42C452.27 687.52 410.68 706.14 364.74 706.14C318.8 706.14 277.22 687.52 247.12 657.42C217.02 627.32 198.4 585.73 198.4 539.8C198.4 493.87 217.02 452.28 247.12 422.17Z" fill="#3B4447"/>
<path d="M239.46 649.09L235.43 644.39L221 652.83C216.86 647.57 212.99 642.09 209.43 636.38L222.38 625.66L219.23 620.33L203.5 626.16C200.34 620.28 197.52 614.19 195.01 607.94L209.63 599.62L207.45 593.82L190.96 596.83C188.88 590.5 187.12 584.03 185.73 577.42L201.59 571.76L200.45 565.67L183.7 565.77C182.77 559.2 182.2 552.51 181.98 545.74L198.51 542.93L198.44 536.74L181.98 533.93C182.19 527.15 182.76 520.47 183.69 513.89L200.49 514L201.5 507.89L185.71 502.25C187.09 495.64 188.85 489.17 190.93 482.84L207.46 485.86L209.51 480.02L194.97 471.74C197.48 465.49 200.29 459.4 203.45 453.51L219.21 459.36L222.25 453.96L209.38 443.29C212.93 437.58 216.8 432.1 220.94 426.83L235.38 435.29L239.31 430.5L228.51 417.78C230.75 415.28 233.04 412.83 235.41 410.45C237.78 408.08 240.24 405.79 242.73 403.55L255.48 414.39L260.18 410.36L251.77 395.99C257.04 391.85 262.52 387.98 268.23 384.42L278.91 397.31L284.24 394.16L278.44 378.5C284.33 375.34 290.42 372.52 296.68 370.02L304.95 384.56L310.75 382.38L307.76 365.98C314.09 363.9 320.57 362.14 327.19 360.76L332.82 376.53L338.91 375.39L338.81 358.75C345.39 357.82 352.08 357.25 358.86 357.03L361.65 373.45L367.84 373.38L370.63 357.03C377.41 357.25 384.11 357.81 390.68 358.75L390.57 375.43L396.68 376.44L402.28 360.76C408.9 362.14 415.38 363.91 421.71 365.98L418.71 382.39L424.55 384.44L432.77 370C439.03 372.51 445.12 375.33 451.02 378.49L445.21 394.13L450.61 397.17L461.201 384.39C466.91 387.95 472.4 391.82 477.67 395.96L469.27 410.3L474.06 414.23L486.701 403.5C489.211 405.75 491.68 408.05 494.07 410.44C496.43 412.8 498.71 415.25 500.94 417.74L490.17 430.42L494.201 435.12L508.49 426.76C512.64 432.03 516.51 437.52 520.07 443.23L507.25 453.85L510.4 459.18L525.98 453.41C529.14 459.3 531.96 465.4 534.48 471.66L520.01 479.89L522.19 485.69L538.521 482.71C540.6 489.05 542.37 495.52 543.76 502.14L528.05 507.74L529.19 513.83L545.771 513.73C546.711 520.31 547.28 527 547.5 533.79L531.13 536.57L531.201 542.76L547.51 545.54C547.301 552.33 546.74 559.02 545.81 565.6L529.16 565.49L528.151 571.6L543.81 577.2C542.43 583.82 540.67 590.3 538.6 596.64L522.19 593.64L520.141 599.48L534.581 607.7C532.07 613.96 529.26 620.06 526.1 625.95L510.44 620.14L507.4 625.54L520.19 636.15C516.641 641.86 512.771 647.36 508.63 652.63L494.26 644.21L490.33 649L501.08 661.67C498.81 664.21 496.49 666.71 494.08 669.12C491.74 671.46 489.33 673.71 486.87 675.92L474.15 665.11L469.451 669.14L477.84 683.48C472.58 687.63 467.09 691.5 461.38 695.06L450.72 682.19L445.391 685.34L451.19 700.99C445.3 704.15 439.21 706.97 432.96 709.49L424.68 694.94L418.88 697.12L421.87 713.54C415.54 715.62 409.07 717.39 402.45 718.78L396.81 702.98L390.72 704.12L390.82 720.81C384.25 721.75 377.56 722.32 370.78 722.54L367.98 706.06L361.79 706.13L358.99 722.55C352.21 722.34 345.52 721.78 338.95 720.85L339.06 704.08L332.95 703.07L327.31 718.84C320.69 717.46 314.22 715.7 307.89 713.63L310.91 697.1L305.07 695.05L296.79 709.59C290.54 707.09 284.45 704.27 278.56 701.12L284.41 685.35L279.01 682.31L268.33 695.19C262.62 691.64 257.14 687.78 251.87 683.64L260.35 669.17L255.56 665.24L242.81 676.07C240.28 673.81 237.8 671.5 235.41 669.1C233.06 666.75 230.8 664.33 228.58 661.86L239.46 649.06V649.09Z" fill="url(#paint9_linear_860_1366)"/>
<path opacity="0.5" d="M253.891 428.93C282.261 400.56 321.451 383.01 364.741 383.01C408.031 383.01 447.231 400.56 475.601 428.93C503.971 457.3 521.521 496.49 521.521 539.79C521.521 583.08 503.971 622.28 475.601 650.65C447.231 679.02 408.041 696.57 364.741 696.57C321.451 696.57 282.261 679.02 253.891 650.65C225.521 622.28 207.971 583.09 207.971 539.79C207.971 496.49 225.521 457.3 253.891 428.93Z" fill="url(#paint10_linear_860_1366)"/>
<path opacity="0.5" d="M464.529 639.58C438.989 665.12 403.709 680.91 364.739 680.91C325.769 680.91 290.489 665.11 264.949 639.58C239.409 614.04 223.619 578.76 223.619 539.79C223.619 500.82 239.419 465.54 264.949 440C290.489 414.46 325.769 398.67 364.739 398.67C403.709 398.67 438.989 414.46 464.529 440C490.069 465.54 505.869 500.82 505.869 539.79C505.869 578.76 490.069 614.04 464.529 639.58Z" fill="url(#paint11_linear_860_1366)"/>
<path opacity="0.5" d="M267.18 442.23C292.15 417.26 326.64 401.82 364.74 401.82C402.84 401.82 437.33 417.26 462.3 442.23C487.27 467.2 502.71 501.69 502.71 539.79C502.71 577.89 487.27 612.38 462.3 637.35C437.33 662.32 402.84 677.76 364.74 677.76C326.64 677.76 292.15 662.32 267.18 637.35C242.21 612.38 226.77 577.89 226.77 539.79C226.77 501.69 242.21 467.2 267.18 442.23Z" fill="url(#paint12_linear_860_1366)"/>
<path d="M293.17 468.21C311.49 449.89 336.79 438.56 364.75 438.56C392.71 438.56 418.01 449.89 436.33 468.21C454.65 486.53 465.98 511.83 465.98 539.79C465.98 567.75 454.65 593.05 436.33 611.37C418.01 629.69 392.71 641.02 364.75 641.02C336.79 641.02 311.49 629.69 293.17 611.37C274.85 593.05 263.52 567.75 263.52 539.79C263.52 511.83 274.85 486.53 293.17 468.21Z" fill="url(#paint13_linear_860_1366)"/>
<path opacity="0.5" d="M284.941 459.99C305.361 439.57 333.581 426.93 364.741 426.93C395.901 426.93 424.121 439.56 444.541 459.99C464.961 480.41 477.601 508.63 477.601 539.8C477.601 570.97 464.971 599.18 444.541 619.6C424.121 640.02 395.901 652.66 364.741 652.66C333.581 652.66 305.361 640.03 284.941 619.6C264.521 599.18 251.881 570.96 251.881 539.8C251.881 508.63 264.511 480.42 284.941 459.99Z" fill="url(#paint14_linear_860_1366)"/>
<g style="mix-blend-mode:multiply" opacity="0.2">
<path d="M302.71 478.89C318.59 463.02 340.52 453.2 364.74 453.2C388.96 453.2 410.9 463.02 426.77 478.89C442.65 494.77 452.46 516.7 452.46 540.92C452.46 565.14 442.64 587.08 426.77 602.95C410.89 618.83 388.96 628.64 364.74 628.64C340.52 628.64 318.59 618.82 302.71 602.95C286.83 587.08 277.01 565.14 277.01 540.92C277.01 516.7 286.83 494.76 302.71 478.89Z" fill="black"/>
</g>
<path d="M303.981 479.029C319.531 463.479 341.011 453.859 364.741 453.859C388.471 453.859 409.951 463.479 425.501 479.029C441.051 494.579 450.671 516.059 450.671 539.799C450.671 563.529 441.051 585.009 425.501 600.559C409.951 616.109 388.471 625.729 364.741 625.729C341.011 625.729 319.531 616.109 303.981 600.559C288.431 585.009 278.811 563.529 278.811 539.799C278.811 516.069 288.431 494.589 303.981 479.029Z" fill="#FFB710"/>
<path d="M303.981 479.029C319.531 463.479 341.011 453.859 364.741 453.859C388.471 453.859 409.951 463.479 425.501 479.029C441.051 494.579 450.671 516.059 450.671 539.799C450.671 563.529 441.051 585.009 425.501 600.559C409.951 616.109 388.471 625.729 364.741 625.729C341.011 625.729 319.531 616.109 303.981 600.559C288.431 585.009 278.811 563.529 278.811 539.799C278.811 516.069 288.431 494.589 303.981 479.029Z" fill="#FFDE36"/>
<path d="M305.839 480.879C320.919 465.809 341.739 456.479 364.749 456.479C387.759 456.479 408.579 465.809 423.659 480.879C438.739 495.959 448.059 516.779 448.059 539.789C448.059 562.799 438.739 583.619 423.659 598.699C408.579 613.779 387.759 623.099 364.749 623.099C341.739 623.099 320.919 613.779 305.839 598.699C290.759 583.619 281.439 562.799 281.439 539.789C281.439 516.779 290.759 495.959 305.839 480.879Z" fill="#FFB710"/>
<path d="M309.17 484.209C323.39 469.989 343.04 461.189 364.75 461.189C386.46 461.189 406.11 469.989 420.33 484.209C434.55 498.429 443.35 518.079 443.35 539.789C443.35 561.489 434.55 581.149 420.33 595.369C406.11 609.589 386.46 618.389 364.75 618.389C343.04 618.389 323.4 609.589 309.17 595.369C294.95 581.149 286.15 561.499 286.15 539.789C286.15 518.079 294.95 498.429 309.17 484.209Z" fill="#DE7B04"/>
<g style="mix-blend-mode:multiply" opacity="0.4">
<path d="M309.17 484.209C323.39 469.989 343.04 461.189 364.75 461.189C386.46 461.189 406.11 469.989 420.33 484.209C434.55 498.429 443.35 518.079 443.35 539.789C443.35 561.489 434.55 581.149 420.33 595.369C406.11 609.589 386.46 618.389 364.75 618.389C343.04 618.389 323.4 609.589 309.17 595.369C294.95 581.149 286.15 561.499 286.15 539.789C286.15 518.079 294.95 498.429 309.17 484.209Z" fill="#DE7B04"/>
</g>
<g style="mix-blend-mode:multiply" opacity="0.15">
<path d="M327.371 503.85C336.941 494.29 350.151 488.37 364.741 488.37C379.331 488.37 392.551 494.29 402.121 503.85C411.691 513.42 417.601 526.63 417.601 541.23C417.601 555.83 411.681 569.04 402.121 578.61C392.551 588.18 379.341 594.09 364.741 594.09C350.141 594.09 336.931 588.17 327.371 578.61C317.801 569.05 311.891 555.83 311.891 541.23C311.891 526.63 317.811 513.42 327.371 503.85Z" fill="#DE7B04"/>
</g>
<g style="mix-blend-mode:multiply" opacity="0.2">
<path d="M328.33 504.41C337.65 495.09 350.52 489.33 364.74 489.33C378.96 489.33 391.83 495.09 401.15 504.41C410.47 513.73 416.23 526.6 416.23 540.82C416.23 555.04 410.47 567.91 401.15 577.23C391.83 586.55 378.96 592.31 364.74 592.31C350.52 592.31 337.65 586.55 328.33 577.23C319.01 567.91 313.25 555.04 313.25 540.82C313.25 526.6 319.01 513.73 328.33 504.41Z" fill="#DE7B04"/>
</g>
<g style="mix-blend-mode:multiply" opacity="0.2">
<path d="M329.32 504.97C338.39 495.91 350.91 490.3 364.74 490.3C378.57 490.3 391.1 495.91 400.16 504.97C409.23 514.04 414.83 526.56 414.83 540.39C414.83 554.22 409.22 566.75 400.16 575.81C391.09 584.88 378.57 590.48 364.74 590.48C350.91 590.48 338.38 584.87 329.32 575.81C320.25 566.75 314.65 554.22 314.65 540.39C314.65 526.56 320.26 514.03 329.32 504.97Z" fill="#DE7B04"/>
</g>
<g style="mix-blend-mode:multiply" opacity="0.3">
<path d="M330.44 509.5C339.22 500.72 351.35 495.29 364.75 495.29C378.15 495.29 390.28 500.72 399.06 509.5C407.84 518.28 413.27 530.41 413.27 543.81C413.27 557.21 407.84 569.34 399.06 578.12C390.28 586.9 378.15 592.33 364.75 592.33C351.35 592.33 339.22 586.9 330.44 578.12C321.66 569.34 316.23 557.21 316.23 543.81C316.23 530.41 321.66 518.28 330.44 509.5Z" fill="#DE7B04"/>
</g>
<path opacity="0.5" d="M330.44 505.48C339.22 496.7 351.35 491.27 364.75 491.27C378.15 491.27 390.28 496.7 399.06 505.48C407.84 514.26 413.27 526.39 413.27 539.79C413.27 553.19 407.84 565.32 399.06 574.1C390.28 582.88 378.15 588.31 364.75 588.31C351.35 588.31 339.22 582.88 330.44 574.1C321.66 565.32 316.23 553.19 316.23 539.79C316.23 526.39 321.66 514.26 330.44 505.48Z" fill="#DE7B04"/>
<path opacity="0.5" d="M330.44 505.48C339.22 496.7 351.35 491.27 364.75 491.27C378.15 491.27 390.28 496.7 399.06 505.48C407.84 514.26 413.27 526.39 413.27 539.79C413.27 553.19 407.84 565.32 399.06 574.1C390.28 582.88 378.15 588.31 364.75 588.31C351.35 588.31 339.22 582.88 330.44 574.1C321.66 565.32 316.23 553.19 316.23 539.79C316.23 526.39 321.66 514.26 330.44 505.48Z" fill="#FFB710"/>
<g style="mix-blend-mode:multiply" opacity="0.15">
<path d="M336.249 512.64C343.539 505.35 353.619 500.84 364.739 500.84C375.869 500.84 385.939 505.35 393.239 512.64C400.529 519.93 405.039 530.01 405.039 541.14C405.039 552.27 400.529 562.34 393.239 569.63C385.949 576.92 375.869 581.43 364.739 581.43C353.609 581.43 343.539 576.92 336.249 569.63C328.959 562.34 324.449 552.26 324.449 541.14C324.449 530.02 328.959 519.94 336.249 512.64Z" fill="#DE7B04"/>
</g>
<g style="mix-blend-mode:multiply" opacity="0.2">
<path d="M337.031 513.01C344.121 505.92 353.921 501.53 364.741 501.53C375.561 501.53 385.361 505.92 392.451 513.01C399.541 520.1 403.931 529.9 403.931 540.72C403.931 551.54 399.541 561.34 392.451 568.43C385.361 575.52 375.561 579.91 364.741 579.91C353.921 579.91 344.121 575.52 337.031 568.43C329.941 561.34 325.551 551.54 325.551 540.72C325.551 529.9 329.941 520.1 337.031 513.01Z" fill="#DE7B04"/>
</g>
<g style="mix-blend-mode:multiply" opacity="0.2">
<path d="M337.779 513.279C344.679 506.379 354.209 502.109 364.739 502.109C375.269 502.109 384.799 506.379 391.699 513.279C398.599 520.179 402.869 529.709 402.869 540.249C402.869 550.789 398.599 560.309 391.699 567.209C384.799 574.109 375.269 578.379 364.739 578.379C354.209 578.379 344.679 574.109 337.779 567.209C330.879 560.309 326.609 550.779 326.609 540.249C326.609 529.719 330.879 520.189 337.779 513.279Z" fill="#DE7B04"/>
</g>
<path d="M338.41 513.45C345.15 506.71 354.46 502.54 364.75 502.54C375.04 502.54 384.35 506.71 391.09 513.45C397.83 520.19 402 529.5 402 539.79C402 550.08 397.83 559.39 391.09 566.13C384.35 572.87 375.04 577.04 364.75 577.04C354.46 577.04 345.15 572.87 338.41 566.13C331.67 559.39 327.5 550.08 327.5 539.79C327.5 529.5 331.67 520.19 338.41 513.45Z" fill="#FFB710"/>
<path d="M338.41 513.45C345.15 506.71 354.46 502.54 364.75 502.54C375.04 502.54 384.35 506.71 391.09 513.45C397.83 520.19 402 529.5 402 539.79C402 550.08 397.83 559.39 391.09 566.13C384.35 572.87 375.04 577.04 364.75 577.04C354.46 577.04 345.15 572.87 338.41 566.13C331.67 559.39 327.5 550.08 327.5 539.79C327.5 529.5 331.67 520.19 338.41 513.45Z" fill="#FFDE36"/>
<path d="M339.899 514.939C346.259 508.579 355.049 504.649 364.749 504.649C374.449 504.649 383.239 508.579 389.599 514.939C395.959 521.299 399.889 530.089 399.889 539.789C399.889 549.489 395.959 558.279 389.599 564.639C383.239 570.999 374.449 574.929 364.749 574.929C355.049 574.929 346.259 570.999 339.899 564.639C333.539 558.279 329.609 549.489 329.609 539.789C329.609 530.079 333.539 521.299 339.899 514.939Z" fill="#FFB710"/>
<path d="M342.91 517.95C348.5 512.36 356.22 508.91 364.75 508.91C373.28 508.91 381 512.37 386.59 517.95C392.18 523.54 395.63 531.26 395.63 539.79C395.63 548.32 392.17 556.04 386.58 561.63C380.99 567.22 373.27 570.67 364.74 570.67C356.21 570.67 348.49 567.21 342.9 561.63C337.31 556.04 333.85 548.32 333.85 539.79C333.85 531.26 337.31 523.54 342.9 517.95H342.91Z" fill="#DE7B04"/>
<path d="M343.96 519.009C349.28 513.689 356.63 510.399 364.74 510.399C372.85 510.399 380.2 513.689 385.52 519.009C390.84 524.329 394.13 531.679 394.13 539.789C394.13 547.909 390.84 555.249 385.52 560.569C380.2 565.889 372.85 569.179 364.74 569.179C356.63 569.179 349.28 565.889 343.96 560.569C338.64 555.249 335.35 547.899 335.35 539.789C335.35 531.669 338.64 524.329 343.96 519.009Z" fill="#FFB710"/>
<path d="M353.809 528.85C356.609 526.05 360.479 524.32 364.749 524.32C369.019 524.32 372.889 526.05 375.689 528.85C378.489 531.65 380.219 535.52 380.219 539.79C380.219 544.06 378.489 547.93 375.689 550.73C372.889 553.53 369.019 555.26 364.749 555.26C360.479 555.26 356.609 553.53 353.809 550.73C351.009 547.93 349.279 544.06 349.279 539.79C349.279 535.52 351.009 531.65 353.809 528.85Z" fill="#414E5F"/>
<g style="mix-blend-mode:multiply" opacity="0.5">
<path d="M353.809 530.81C356.609 528.01 360.479 526.28 364.749 526.28C369.019 526.28 372.889 528.01 375.689 530.81C378.489 533.61 380.219 537.48 380.219 541.75C380.219 546.02 378.489 549.89 375.689 552.69C372.889 555.49 369.019 557.22 364.749 557.22C360.479 557.22 356.609 555.49 353.809 552.69C351.009 549.89 349.279 546.02 349.279 541.75C349.279 537.48 351.009 533.61 353.809 530.81Z" fill="#DE7B04"/>
</g>
<path d="M353.809 528.85C356.609 526.05 360.479 524.32 364.749 524.32C369.019 524.32 372.889 526.05 375.689 528.85C378.489 531.65 380.219 535.52 380.219 539.79C380.219 544.06 378.489 547.93 375.689 550.73C372.889 553.53 369.019 555.26 364.749 555.26C360.479 555.26 356.609 553.53 353.809 550.73C351.009 547.93 349.279 544.06 349.279 539.79C349.279 535.52 351.009 531.65 353.809 528.85Z" fill="#5B6879"/>
<path d="M356.07 531.12C358.29 528.9 361.36 527.53 364.74 527.53C368.12 527.53 371.19 528.9 373.41 531.12C375.63 533.34 377 536.41 377 539.79C377 543.17 375.63 546.24 373.41 548.46C371.19 550.68 368.12 552.05 364.74 552.05C361.36 552.05 358.29 550.68 356.07 548.46C353.85 546.24 352.48 543.17 352.48 539.79C352.48 536.41 353.85 533.34 356.07 531.12Z" fill="#414E5F"/>
<g style="mix-blend-mode:multiply" opacity="0.2">
<path d="M286.141 539.789C286.141 561.489 294.941 581.149 309.161 595.369C323.381 609.589 343.031 618.389 364.741 618.389C386.451 618.389 406.101 609.589 420.321 595.369C434.541 581.149 443.341 561.499 443.341 539.789C443.341 518.079 434.541 498.429 420.321 484.209C406.101 469.989 386.451 461.189 364.741 461.189C343.031 461.189 323.391 469.989 309.161 484.209C294.931 498.429 286.141 518.079 286.141 539.789ZM289.071 539.789C289.071 518.889 297.541 499.979 311.231 486.279C324.921 472.589 343.841 464.119 364.741 464.119C385.641 464.119 404.551 472.589 418.251 486.279C431.941 499.969 440.411 518.889 440.411 539.789C440.411 560.689 431.941 579.599 418.251 593.299C404.561 606.989 385.641 615.459 364.741 615.459C343.841 615.459 324.931 606.989 311.231 593.299C297.541 579.609 289.071 560.689 289.071 539.789Z" fill="#DE7B04"/>
</g>
<g style="mix-blend-mode:multiply" opacity="0.2">
<path d="M286.141 539.789C286.141 561.489 294.941 581.149 309.161 595.369C323.381 609.589 343.031 618.389 364.741 618.389C386.451 618.389 406.101 609.589 420.321 595.369C434.541 581.149 443.341 561.499 443.341 539.789C443.341 518.079 434.541 498.429 420.321 484.209C406.101 469.989 386.451 461.189 364.741 461.189C343.031 461.189 323.391 469.989 309.161 484.209C294.931 498.429 286.141 518.079 286.141 539.789ZM287.541 539.789C287.541 518.469 296.181 499.169 310.151 485.199C324.121 471.229 343.421 462.589 364.741 462.589C386.061 462.589 405.361 471.229 419.331 485.199C433.301 499.169 441.941 518.469 441.941 539.789C441.941 561.109 433.301 580.409 419.331 594.379C405.361 608.349 386.061 616.989 364.741 616.989C343.421 616.989 324.121 608.349 310.151 594.379C296.181 580.409 287.541 561.109 287.541 539.789Z" fill="#DE7B04"/>
</g>
<g style="mix-blend-mode:multiply" opacity="0.3">
<path d="M309.17 484.209C323.39 469.989 343.04 461.189 364.75 461.189C386.46 461.189 406.11 469.989 420.33 484.209C434.55 498.429 443.35 518.079 443.35 539.789C443.35 541.019 443.31 542.239 443.26 543.459C442.33 523.209 433.75 504.959 420.33 491.549C406.11 477.329 386.46 468.529 364.75 468.529C343.04 468.529 323.4 477.329 309.17 491.549C295.75 504.969 287.17 523.219 286.24 543.459C286.18 542.239 286.15 541.019 286.15 539.789C286.15 518.079 294.95 498.429 309.17 484.209Z" fill="#DE7B04"/>
</g>
<path d="M753.382 560.43H806.842V424.62H753.382V560.43Z" fill="#FFB710"/>
<path opacity="0.5" d="M753.382 560.43H806.842V424.62H753.382V560.43Z" fill="#DE7B04"/>
<path d="M753.382 426.51H806.842V424.63H753.382V426.51Z" fill="#FFDE36"/>
<path opacity="0.3" d="M762.782 558.55H778.092V426.51H762.782V558.55Z" fill="#FFDE36"/>
<path opacity="0.4" d="M799.192 558.55H806.842V426.51H799.192V558.55Z" fill="#DE7B04"/>
<path d="M745.299 607.44H819.449V592.85H745.299V607.44Z" fill="#29333F"/>
<path d="M745.299 592.84H819.449V558.55H745.299V592.84Z" fill="#414E5F"/>
<path d="M1385.5 555.26H1389.78V286.87H1385.5V555.26Z" fill="#29333F"/>
<path d="M1385.49 271.41H1445.07V263.92H1385.49V271.41Z" fill="#414E5F"/>
<path d="M1385.49 271.41H1445.07V268.38H1385.49V271.41Z" fill="#29333F"/>
<path d="M1395.77 299.28H1445.08V291.79H1395.77V299.28Z" fill="#414E5F"/>
<path d="M1395.77 299.28H1445.08V296.25H1395.77V299.28Z" fill="#29333F"/>
<path d="M1395.77 326.7H1445.08V319.21H1395.77V326.7Z" fill="#414E5F"/>
<path d="M1395.77 326.7H1445.08V323.67H1395.77V326.7Z" fill="#29333F"/>
<path d="M1395.77 354.101H1445.08V346.611H1395.77V354.101Z" fill="#414E5F"/>
<path d="M1395.77 354.101H1445.08V351.071H1395.77V354.101Z" fill="#29333F"/>
<path d="M1395.77 381.51H1445.08V374.02H1395.77V381.51Z" fill="#414E5F"/>
<path d="M1395.77 381.51H1445.08V378.48H1395.77V381.51Z" fill="#29333F"/>
<path d="M1395.77 408.92H1445.08V401.43H1395.77V408.92Z" fill="#414E5F"/>
<path d="M1395.77 408.92H1445.08V405.89H1395.77V408.92Z" fill="#29333F"/>
<path d="M1395.77 436.32H1445.08V428.83H1395.77V436.32Z" fill="#414E5F"/>
<path d="M1395.77 436.32H1445.08V433.29H1395.77V436.32Z" fill="#29333F"/>
<path d="M1395.77 463.74H1445.08V456.25H1395.77V463.74Z" fill="#414E5F"/>
<path d="M1395.77 463.74H1445.08V460.71H1395.77V463.74Z" fill="#29333F"/>
<path d="M1395.77 491.141H1445.08V483.651H1395.77V491.141Z" fill="#414E5F"/>
<path d="M1395.77 491.141H1445.08V488.111H1395.77V491.141Z" fill="#29333F"/>
<path d="M1395.77 518.55H1445.08V511.06H1395.77V518.55Z" fill="#414E5F"/>
<path d="M1395.77 518.55H1445.08V515.52H1395.77V518.55Z" fill="#29333F"/>
<path d="M1395.77 545.96H1445.08V538.47H1395.77V545.96Z" fill="#414E5F"/>
<path d="M1395.77 545.95H1445.08V542.92H1395.77V545.95Z" fill="#29333F"/>
<path d="M1443.33 555.26H1447.59V263.92H1443.33V555.26Z" fill="#414E5F"/>
<path d="M1393.15 555.25H1397.41V264.38H1393.15V555.25Z" fill="#414E5F"/>
<path d="M1336.35 389.85H1353.45V336.55H1336.35V389.85Z" fill="#FFB710"/>
<path opacity="0.5" d="M1336.35 389.85H1338.43V336.55H1336.35V389.85Z" fill="#DE7B04"/>
<path d="M1353.45 383.4H1355.21V342.7H1353.45V383.4Z" fill="#D4DBDF"/>
<path d="M615.539 467.78H641.609V454.61H615.539V467.78Z" fill="#414E5F"/>
<path d="M1464.2 555.26H1468.16V461.47H1301.43V465.44H1464.2V555.26Z" fill="#414E5F"/>
<path d="M1466.18 522.64H1302.73V526.61H1466.18V522.64Z" fill="#414E5F"/>
<path d="M1420.53 462.22H1416.56V555.26H1420.53V462.22Z" fill="#414E5F"/>
<path d="M1356.55 462.22H1352.58V555.26H1356.55V462.22Z" fill="#414E5F"/>
<path d="M1505.87 676.48H1482.58L1470.22 661.66V552.06H1482.33L1505.87 594.08V676.48Z" fill="#414E5F"/>
<path d="M1318.89 300.9C1324.11 300.9 1328.35 296.665 1328.35 291.44C1328.35 286.216 1324.11 281.98 1318.89 281.98C1313.67 281.98 1309.43 286.216 1309.43 291.44C1309.43 296.665 1313.67 300.9 1318.89 300.9Z" fill="#F26722"/>
<path d="M1193.53 225.09H1200.11V104.56H1193.53V225.09Z" fill="#29333F"/>
<path d="M922.18 264.39H926.15V234L967.31 174.09H1379.23V263.91H1383.19V170.13H965.23L922.18 232.77V264.39Z" fill="#414E5F"/>
<path d="M1343.4 172.11H1339.43V263.91H1343.4V172.11Z" fill="#414E5F"/>
<path d="M1397.27 172.11H1393.3V264.65H1397.27V172.11Z" fill="#414E5F"/>
<path d="M1249.9 172.11H1245.93V263.91H1249.9V172.11Z" fill="#414E5F"/>
<path d="M1156.4 172.11H1152.43V263.91H1156.4V172.11Z" fill="#414E5F"/>
<path d="M1062.9 172.11H1058.93V263.91H1062.9V172.11Z" fill="#414E5F"/>
<path d="M969.4 172.11H965.43V263.91H969.4V172.11Z" fill="#414E5F"/>
<path d="M1445.56 231.399H924.17V235.369H1445.56V231.399Z" fill="#414E5F"/>
<path d="M1443.09 264.39H1447.06V170.13H1381.21V174.09H1443.09V264.39Z" fill="#414E5F"/>
<path d="M1056.6 97.9004L1228.08 97.9004V95.7604L1056.6 95.7604V97.9004Z" fill="#29333F"/>
<defs>
<linearGradient id="paint0_linear_860_1366" x1="644.53" y1="439.51" x2="658.54" y2="327.47" gradientUnits="userSpaceOnUse">
<stop stop-color="white"/>
<stop offset="1"/>
</linearGradient>
<linearGradient id="paint1_linear_860_1366" x1="1062.15" y1="359.28" x2="1062.15" y2="719.88" gradientUnits="userSpaceOnUse">
<stop stop-color="#555E61"/>
<stop offset="1" stop-color="#222B2E"/>
</linearGradient>
<linearGradient id="paint2_linear_860_1366" x1="1062.15" y1="690.52" x2="1062.15" y2="372.53" gradientUnits="userSpaceOnUse">
<stop stop-color="#555E61"/>
<stop offset="1" stop-color="#222B2E"/>
</linearGradient>
<linearGradient id="paint3_linear_860_1366" x1="1062.14" y1="404.1" x2="1062.14" y2="690.35" gradientUnits="userSpaceOnUse">
<stop stop-color="#555E61"/>
<stop offset="1" stop-color="#222B2E"/>
</linearGradient>
<linearGradient id="paint4_linear_860_1366" x1="1062.15" y1="672.45" x2="1062.15" y2="392.59" gradientUnits="userSpaceOnUse">
<stop stop-color="#555E61"/>
<stop offset="1" stop-color="#222B2E"/>
</linearGradient>
<linearGradient id="paint5_linear_860_1366" x1="1062.15" y1="637.12" x2="1062.15" y2="431.8" gradientUnits="userSpaceOnUse">
<stop stop-color="#555E61"/>
<stop offset="1" stop-color="#222B2E"/>
</linearGradient>
<linearGradient id="paint6_linear_860_1366" x1="1062.15" y1="648.3" x2="1062.15" y2="419.39" gradientUnits="userSpaceOnUse">
<stop stop-color="#555E61"/>
<stop offset="1" stop-color="#222B2E"/>
</linearGradient>
<linearGradient id="paint7_linear_860_1366" x1="779.44" y1="426.42" x2="779.44" y2="382.31" gradientUnits="userSpaceOnUse">
<stop stop-color="white"/>
<stop offset="1"/>
</linearGradient>
<linearGradient id="paint8_linear_860_1366" x1="482.558" y1="365.68" x2="465.628" y2="334.12" gradientUnits="userSpaceOnUse">
<stop stop-color="white"/>
<stop offset="1"/>
</linearGradient>
<linearGradient id="paint9_linear_860_1366" x1="364.75" y1="359.28" x2="364.75" y2="719.88" gradientUnits="userSpaceOnUse">
<stop stop-color="#555E61"/>
<stop offset="1" stop-color="#222B2E"/>
</linearGradient>
<linearGradient id="paint10_linear_860_1366" x1="364.751" y1="690.52" x2="364.751" y2="372.53" gradientUnits="userSpaceOnUse">
<stop stop-color="#555E61"/>
<stop offset="1" stop-color="#222B2E"/>
</linearGradient>
<linearGradient id="paint11_linear_860_1366" x1="364.739" y1="404.1" x2="364.739" y2="690.35" gradientUnits="userSpaceOnUse">
<stop stop-color="#555E61"/>
<stop offset="1" stop-color="#222B2E"/>
</linearGradient>
<linearGradient id="paint12_linear_860_1366" x1="364.75" y1="672.45" x2="364.75" y2="392.59" gradientUnits="userSpaceOnUse">
<stop stop-color="#555E61"/>
<stop offset="1" stop-color="#222B2E"/>
</linearGradient>
<linearGradient id="paint13_linear_860_1366" x1="364.75" y1="637.12" x2="364.75" y2="431.8" gradientUnits="userSpaceOnUse">
<stop stop-color="#555E61"/>
<stop offset="1" stop-color="#222B2E"/>
</linearGradient>
<linearGradient id="paint14_linear_860_1366" x1="364.751" y1="648.3" x2="364.751" y2="419.39" gradientUnits="userSpaceOnUse">
<stop stop-color="#555E61"/>
<stop offset="1" stop-color="#222B2E"/>
</linearGradient>
</defs>
</svg>
