<svg width="782" height="722" viewBox="0 0 782 722" fill="none" xmlns="http://www.w3.org/2000/svg">
<path d="M781.178 264.65H682.328V309.81H781.178V264.65Z" fill="#FFB710"/>
<path d="M299.411 170.13L303.381 174.09H770.761V231.4H174.551V235.37H770.761V264.65H774.731V170.13H299.411Z" fill="#414E5F"/>
<path d="M0.00156403 309.81H98.8516V264.65H0.00156403V309.81Z" fill="#FFB710"/>
<path d="M15.4783 208.53H47.9283C49.4802 208.53 50.7383 207.272 50.7383 205.72L50.7383 107.37C50.7383 105.818 49.4802 104.56 47.9283 104.56H15.4783C13.9264 104.56 12.6683 105.818 12.6683 107.37L12.6683 205.72C12.6683 207.272 13.9264 208.53 15.4783 208.53Z" fill="#414E5F"/>
<path d="M481.769 170.13L477.799 174.09H10.4192V231.4H606.629V235.37H10.4192V264.65H6.44922V170.13H481.769Z" fill="#414E5F"/>
<path d="M677.271 372.54H98.0312V619.56H677.271V372.54Z" fill="#DE7B04"/>
<g style="mix-blend-mode:multiply" opacity="0.5">
<path d="M677.271 372.54H98.0312V619.56H677.271V372.54Z" fill="black"/>
</g>
<path d="M758.171 15H23.1406V52.83H758.171V15Z" fill="#FFB710"/>
<path opacity="0.2" d="M758.171 15H23.1406V52.83H758.171V15Z" fill="#FFDE36"/>
<path d="M758.171 0H23.1406V15H758.171V0Z" fill="#FFB710"/>
<path d="M758.171 0H23.1406V15H758.171V0Z" fill="#FFDE36"/>
<path d="M23.1406 52.8301V223.36L51.2406 248.19H730.061L758.161 223.36V52.8301H23.1406Z" fill="#FFB710"/>
<path opacity="0.3" d="M23.1406 52.8301V223.36L51.2406 248.19H730.061L758.161 223.36V52.8301H23.1406Z" fill="#FFDE36"/>
<path opacity="0.3" d="M734.37 52.8301H46.9297V212.63L60.2497 224.39H721.05L734.37 212.63V52.8301Z" fill="#DE7B04"/>
<path opacity="0.6" d="M734.37 52.8301H46.9297V212.63L60.2497 224.39H721.05L734.37 212.63V52.8301Z" fill="#DE7B04"/>
<path d="M23.1406 223.36L51.2406 248.19V385.44L23.1406 360.62V223.36Z" fill="#DE7B04"/>
<path d="M730.062 248.19V385.44L758.162 360.62V223.36L730.062 248.19Z" fill="#DE7B04"/>
<path d="M730.052 248.19H51.2422V385.45H730.052V248.19Z" fill="#DE7B04"/>
<path style="mix-blend-mode:multiply" opacity="0.3" d="M730.052 248.19H51.2422V385.45H730.052V248.19Z" fill="url(#paint0_linear_860_704)"/>
<path d="M46.9297 215.67L60.2497 227.43H721.05L734.37 215.67V212.63L721.05 224.39H60.2497L46.9297 212.63V215.67Z" fill="#FFDE36"/>
<path d="M46.9406 52.8301H23.1406V55.8701H46.9406V52.8301Z" fill="#FFDE36"/>
<path d="M758.171 52.8301H734.371V55.8701H758.171V52.8301Z" fill="#FFDE36"/>
<path d="M158.63 414.67H115V655.32H158.63V414.67Z" fill="#29333F"/>
<path d="M131.09 357.029H14.5502L11.4102 362.649V716.259L14.5502 721.879H131.09L134.22 716.259V362.649L131.09 357.029Z" fill="url(#paint1_linear_860_704)"/>
<path d="M11.4102 716.259L14.5502 721.879V357.029L11.4102 362.649V716.259Z" fill="url(#paint2_linear_860_704)"/>
<path d="M134.22 716.259L131.09 721.879V357.029L134.22 362.649V716.259Z" fill="url(#paint3_linear_860_704)"/>
<g style="mix-blend-mode:multiply" opacity="0.5">
<path d="M99.8394 357.029H93.3594L109.859 368.249L131.089 372.539V368.639L110.929 364.569L99.8394 357.029Z" fill="url(#paint4_linear_860_704)"/>
<path d="M91.1702 375.76V357.03H87.9902V366.97H75.3102L71.2002 364.21H57.6502V357.03H54.4702V373.28L35.7802 360.56L18.2902 357.02H14.5502V360.16L34.7002 364.23L54.4602 377.68V397.9L35.7702 385.18L14.5402 380.89V384.79L34.6902 388.86L54.4502 402.31V422.54L35.7602 409.82L14.5302 405.53V409.43L34.6802 413.5L54.4402 426.95V447.18L35.7502 434.46L14.5202 430.17V434.07L34.6702 438.14L54.4302 451.59V471.82L35.7402 459.1L14.5102 454.81V458.71L34.6602 462.78L54.4202 476.23V496.45L35.7302 483.73L14.5002 479.44V483.34L34.6502 487.41L54.4102 500.86V521.09L35.7202 508.37L14.4902 504.08V507.98L34.6402 512.05L54.4002 525.5V545.73L35.7102 533.01L14.4802 528.72V532.62L34.6302 536.69L54.3902 550.14V570.37L35.7002 557.65L14.4702 553.36V557.26L34.6202 561.33L54.3802 574.78V595L35.6902 582.28L14.4602 577.99V581.89L34.6102 585.96L54.3702 599.41V619.64L35.6802 606.92L14.4502 602.63V606.53L34.6002 610.6L54.3602 624.05V644.28L35.6702 631.56L14.4402 627.27V631.17L34.5902 635.24L54.3502 648.69V668.92L35.6602 656.2L14.4302 651.91V655.81L34.5802 659.88L54.3402 673.33V693.55L35.6502 680.83L14.4202 676.54V680.44L34.5702 684.51L54.3302 697.96V718.19L35.6402 705.47L14.4102 701.18V705.08L34.5602 709.15L53.2302 721.86H57.5102V713.76H70.6502L74.7602 716.52H87.8502V721.86H91.0302V700.45L109.72 713.17L130.95 717.46V713.56L110.8 709.49L91.0402 696.04V675.81L109.73 688.53L130.96 692.82V688.92L110.81 684.85L91.0502 671.4V651.17L109.74 663.89L130.97 668.18V664.28L110.82 660.21L91.0602 646.76V626.53L109.75 639.25L130.98 643.54V639.64L110.83 635.57L91.0702 622.12V601.89L109.76 614.61L130.99 618.9V615L110.84 610.93L91.0802 597.48V577.26L109.77 589.98L131 594.27V590.37L110.85 586.3L91.0901 572.85V552.62L109.78 565.34L131.01 569.63V565.73L110.86 561.66L91.1002 548.21V527.98L109.79 540.7L131.02 544.99V541.09L110.87 537.02L91.1102 523.57V503.34L109.8 516.06L131.03 520.35V516.45L110.88 512.38L91.1202 498.93V478.71L109.81 491.43L131.04 495.72V491.82L110.89 487.75L91.1302 474.3V454.07L109.82 466.79L131.05 471.08V467.18L110.9 463.11L91.1402 449.66V429.43L109.83 442.15L131.06 446.44V442.54L110.91 438.47L91.1502 425.02V404.79L109.84 417.51L131.07 421.8V417.9L110.92 413.83L91.1602 400.38V380.16L109.85 392.88L131.08 397.17V393.27L110.93 389.2L91.1702 375.75V375.76ZM87.9902 714.62H75.3102L71.2002 711.86H57.6502V688.95H70.7902L74.9002 691.71H87.9902V714.62ZM87.9902 689.79H75.3102L71.2002 687.03H57.6502V664.12H70.7902L74.9002 666.88H87.9902V689.79ZM87.9902 664.96H75.3102L71.2002 662.2H57.6502V639.29H70.7902L74.9002 642.05H87.9902V664.96ZM87.9902 640.12H75.3102L71.2002 637.36H57.6502V614.45H70.7902L74.9002 617.21H87.9902V640.12ZM87.9902 615.29H75.3102L71.2002 612.53H57.6502V589.62H70.7902L74.9002 592.38H87.9902V615.29ZM87.9902 590.46H75.3102L71.2002 587.7H57.6502V564.79H70.7902L74.9002 567.55H87.9902V590.46ZM87.9902 565.63H75.3102L71.2002 562.87H57.6502V539.96H70.7902L74.9002 542.72H87.9902V565.63ZM87.9902 540.79H75.3102L71.2002 538.03H57.6502V515.12H70.7902L74.9002 517.88H87.9902V540.79ZM87.9902 515.96H75.3102L71.2002 513.2H57.6502V490.29H70.7902L74.9002 493.05H87.9902V515.96ZM87.9902 491.13H75.3102L71.2002 488.37H57.6502V465.46H70.7902L74.9002 468.22H87.9902V491.13ZM87.9902 466.3H75.3102L71.2002 463.54H57.6502V440.63H70.7902L74.9002 443.39H87.9902V466.3ZM87.9902 441.47H75.3102L71.2002 438.71H57.6502V415.8H70.7902L74.9002 418.56H87.9902V441.47ZM87.9902 416.63H75.3102L71.2002 413.87H57.6502V390.96H70.7902L74.9002 393.72H87.9902V416.63ZM87.9902 391.8H75.3102L71.2002 389.04H57.6502V366.13H70.7902L74.9002 368.89H87.9902V391.8Z" fill="url(#paint5_linear_860_704)"/>
</g>
<path d="M258.381 357.029H141.851L138.711 362.649V716.259L141.851 721.879H258.381L261.521 716.259V362.649L258.381 357.029Z" fill="url(#paint6_linear_860_704)"/>
<path d="M138.711 716.259L141.851 721.879V357.029L138.711 362.649V716.259Z" fill="url(#paint7_linear_860_704)"/>
<path d="M261.523 716.259L258.383 721.879V357.029L261.523 362.649V716.259Z" fill="url(#paint8_linear_860_704)"/>
<g style="mix-blend-mode:multiply" opacity="0.5">
<path d="M227.14 357.029H220.66L237.15 368.249L258.38 372.539V368.639L238.23 364.569L227.14 357.029Z" fill="url(#paint9_linear_860_704)"/>
<path d="M218.471 375.76V357.03H215.291V366.97H202.611L198.501 364.21H184.951V357.03H181.771V373.28L163.081 360.56L145.591 357.02H141.851V360.16L162.001 364.23L181.761 377.68V397.9L163.071 385.18L141.841 380.89V384.79L161.991 388.86L181.751 402.31V422.54L163.061 409.82L141.831 405.53V409.43L161.981 413.5L181.741 426.95V447.18L163.051 434.46L141.821 430.17V434.07L161.971 438.14L181.731 451.59V471.82L163.041 459.1L141.811 454.81V458.71L161.961 462.78L181.721 476.23V496.45L163.031 483.73L141.801 479.44V483.34L161.951 487.41L181.711 500.86V521.09L163.021 508.37L141.791 504.08V507.98L161.941 512.05L181.701 525.5V545.73L163.011 533.01L141.781 528.72V532.62L161.931 536.69L181.691 550.14V570.37L163.001 557.65L141.771 553.36V557.26L161.921 561.33L181.681 574.78V595L162.991 582.28L141.761 577.99V581.89L161.911 585.96L181.671 599.41V619.64L162.981 606.92L141.751 602.63V606.53L161.901 610.6L181.661 624.05V644.28L162.971 631.56L141.741 627.27V631.17L161.891 635.24L181.651 648.69V668.92L162.961 656.2L141.731 651.91V655.81L161.881 659.88L181.641 673.33V693.55L162.951 680.83L141.721 676.54V680.44L161.871 684.51L181.631 697.96V718.19L162.941 705.47L141.711 701.18V705.08L161.861 709.15L180.531 721.86H184.811V713.76H197.951L202.061 716.52H215.151V721.86H218.331V700.45L237.021 713.17L258.251 717.46V713.56L238.101 709.49L218.341 696.04V675.81L237.031 688.53L258.261 692.82V688.92L238.111 684.85L218.351 671.4V651.17L237.041 663.89L258.271 668.18V664.28L238.121 660.21L218.361 646.76V626.53L237.051 639.25L258.281 643.54V639.64L238.131 635.57L218.371 622.12V601.89L237.061 614.61L258.291 618.9V615L238.141 610.93L218.381 597.48V577.26L237.071 589.98L258.301 594.27V590.37L238.151 586.3L218.391 572.85V552.62L237.081 565.34L258.311 569.63V565.73L238.161 561.66L218.401 548.21V527.98L237.091 540.7L258.321 544.99V541.09L238.171 537.02L218.411 523.57V503.34L237.101 516.06L258.331 520.35V516.45L238.181 512.38L218.421 498.93V478.71L237.111 491.43L258.341 495.72V491.82L238.191 487.75L218.431 474.3V454.07L237.121 466.79L258.351 471.08V467.18L238.201 463.11L218.441 449.66V429.43L237.131 442.15L258.361 446.44V442.54L238.211 438.47L218.451 425.02V404.79L237.141 417.51L258.371 421.8V417.9L238.221 413.83L218.461 400.38V380.16L237.151 392.88L258.381 397.17V393.27L238.231 389.2L218.471 375.75V375.76ZM215.281 714.62H202.601L198.491 711.86H184.941V688.95H198.081L202.191 691.71H215.281V714.62ZM215.281 689.79H202.601L198.491 687.03H184.941V664.12H198.081L202.191 666.88H215.281V689.79ZM215.281 664.96H202.601L198.491 662.2H184.941V639.29H198.081L202.191 642.05H215.281V664.96ZM215.281 640.12H202.601L198.491 637.36H184.941V614.45H198.081L202.191 617.21H215.281V640.12ZM215.281 615.29H202.601L198.491 612.53H184.941V589.62H198.081L202.191 592.38H215.281V615.29ZM215.281 590.46H202.601L198.491 587.7H184.941V564.79H198.081L202.191 567.55H215.281V590.46ZM215.281 565.63H202.601L198.491 562.87H184.941V539.96H198.081L202.191 542.72H215.281V565.63ZM215.281 540.79H202.601L198.491 538.03H184.941V515.12H198.081L202.191 517.88H215.281V540.79ZM215.281 515.96H202.601L198.491 513.2H184.941V490.29H198.081L202.191 493.05H215.281V515.96ZM215.281 491.13H202.601L198.491 488.37H184.941V465.46H198.081L202.191 468.22H215.281V491.13ZM215.281 466.3H202.601L198.491 463.54H184.941V440.63H198.081L202.191 443.39H215.281V466.3ZM215.281 441.47H202.601L198.491 438.71H184.941V415.8H198.081L202.191 418.56H215.281V441.47ZM215.281 416.63H202.601L198.491 413.87H184.941V390.96H198.081L202.191 393.72H215.281V416.63ZM215.281 391.8H202.601L198.491 389.04H184.941V366.13H198.081L202.191 368.89H215.281V391.8Z" fill="url(#paint10_linear_860_704)"/>
</g>
<path d="M677.271 414.67H633.641V655.32H677.271V414.67Z" fill="#29333F"/>
<path d="M649.731 357.029H533.191L530.051 362.649V716.259L533.191 721.879H649.731L652.871 716.259V362.649L649.731 357.029Z" fill="url(#paint11_linear_860_704)"/>
<path d="M530.051 716.259L533.191 721.879V357.029L530.051 362.649V716.259Z" fill="url(#paint12_linear_860_704)"/>
<path d="M652.87 716.259L649.73 721.879V357.029L652.87 362.649V716.259Z" fill="url(#paint13_linear_860_704)"/>
<g style="mix-blend-mode:multiply" opacity="0.5">
<path d="M618.492 357.029H612.012L628.502 368.249L649.732 372.539V368.639L629.582 364.569L618.492 357.029Z" fill="url(#paint14_linear_860_704)"/>
<path d="M609.811 375.76V357.03H606.631V366.97H593.951L589.841 364.21H576.291V357.03H573.111V373.28L554.421 360.56L536.931 357.02H533.191V360.16L553.341 364.23L573.101 377.68V397.9L554.411 385.18L533.181 380.89V384.79L553.331 388.86L573.091 402.31V422.54L554.401 409.82L533.171 405.53V409.43L553.321 413.5L573.081 426.95V447.18L554.391 434.46L533.161 430.17V434.07L553.311 438.14L573.071 451.59V471.82L554.381 459.1L533.151 454.81V458.71L553.301 462.78L573.061 476.23V496.45L554.371 483.73L533.141 479.44V483.34L553.291 487.41L573.051 500.86V521.09L554.361 508.37L533.131 504.08V507.98L553.281 512.05L573.041 525.5V545.73L554.351 533.01L533.121 528.72V532.62L553.271 536.69L573.031 550.14V570.37L554.341 557.65L533.111 553.36V557.26L553.261 561.33L573.021 574.78V595L554.331 582.28L533.101 577.99V581.89L553.251 585.96L573.011 599.41V619.64L554.321 606.92L533.091 602.63V606.53L553.241 610.6L573.001 624.05V644.28L554.311 631.56L533.081 627.27V631.17L553.231 635.24L572.991 648.69V668.92L554.301 656.2L533.071 651.91V655.81L553.221 659.88L572.981 673.33V693.55L554.291 680.83L533.061 676.54V680.44L553.211 684.51L572.971 697.96V718.19L554.281 705.47L533.051 701.18V705.08L553.201 709.15L571.871 721.86H576.151V713.76H589.291L593.401 716.52H606.491V721.86H609.671V700.45L628.361 713.17L649.591 717.46V713.56L629.441 709.49L609.681 696.04V675.81L628.371 688.53L649.601 692.82V688.92L629.451 684.85L609.691 671.4V651.17L628.381 663.89L649.611 668.18V664.28L629.461 660.21L609.701 646.76V626.53L628.391 639.25L649.621 643.54V639.64L629.471 635.57L609.711 622.12V601.89L628.401 614.61L649.631 618.9V615L629.481 610.93L609.721 597.48V577.26L628.411 589.98L649.641 594.27V590.37L629.491 586.3L609.731 572.85V552.62L628.421 565.34L649.651 569.63V565.73L629.501 561.66L609.741 548.21V527.98L628.431 540.7L649.661 544.99V541.09L629.511 537.02L609.751 523.57V503.34L628.441 516.06L649.671 520.35V516.45L629.521 512.38L609.761 498.93V478.71L628.451 491.43L649.681 495.72V491.82L629.531 487.75L609.771 474.3V454.07L628.461 466.79L649.691 471.08V467.18L629.541 463.11L609.781 449.66V429.43L628.471 442.15L649.701 446.44V442.54L629.551 438.47L609.791 425.02V404.79L628.481 417.51L649.711 421.8V417.9L629.561 413.83L609.801 400.38V380.16L628.491 392.88L649.721 397.17V393.27L629.571 389.2L609.811 375.75V375.76ZM606.631 714.62H593.951L589.841 711.86H576.291V688.95H589.431L593.541 691.71H606.631V714.62ZM606.631 689.79H593.951L589.841 687.03H576.291V664.12H589.431L593.541 666.88H606.631V689.79ZM606.631 664.96H593.951L589.841 662.2H576.291V639.29H589.431L593.541 642.05H606.631V664.96ZM606.631 640.12H593.951L589.841 637.36H576.291V614.45H589.431L593.541 617.21H606.631V640.12ZM606.631 615.29H593.951L589.841 612.53H576.291V589.62H589.431L593.541 592.38H606.631V615.29ZM606.631 590.46H593.951L589.841 587.7H576.291V564.79H589.431L593.541 567.55H606.631V590.46ZM606.631 565.63H593.951L589.841 562.87H576.291V539.96H589.431L593.541 542.72H606.631V565.63ZM606.631 540.79H593.951L589.841 538.03H576.291V515.12H589.431L593.541 517.88H606.631V540.79ZM606.631 515.96H593.951L589.841 513.2H576.291V490.29H589.431L593.541 493.05H606.631V515.96ZM606.631 491.13H593.951L589.841 488.37H576.291V465.46H589.431L593.541 468.22H606.631V491.13ZM606.631 466.3H593.951L589.841 463.54H576.291V440.63H589.431L593.541 443.39H606.631V466.3ZM606.631 441.47H593.951L589.841 438.71H576.291V415.8H589.431L593.541 418.56H606.631V441.47ZM606.631 416.63H593.951L589.841 413.87H576.291V390.96H589.431L593.541 393.72H606.631V416.63ZM606.631 391.8H593.951L589.841 389.04H576.291V366.13H589.431L593.541 368.89H606.631V391.8Z" fill="url(#paint15_linear_860_704)"/>
</g>
<path d="M777.032 357.029H660.492L657.352 362.649V716.259L660.492 721.879H777.032L780.172 716.259V362.649L777.032 357.029Z" fill="url(#paint16_linear_860_704)"/>
<path d="M657.352 716.259L660.492 721.879V357.029L657.352 362.649V716.259Z" fill="url(#paint17_linear_860_704)"/>
<path d="M780.171 716.259L777.031 721.879V357.029L780.171 362.649V716.259Z" fill="url(#paint18_linear_860_704)"/>
<g style="mix-blend-mode:multiply" opacity="0.5">
<path d="M745.792 357.029H739.312L755.802 368.249L777.033 372.539V368.639L756.883 364.569L745.792 357.029Z" fill="url(#paint19_linear_860_704)"/>
<path d="M737.112 375.76V357.03H733.932V366.97H721.252L717.142 364.21H703.592V357.03H700.412V373.28L681.722 360.56L664.232 357.02H660.492V360.16L680.642 364.23L700.402 377.68V397.9L681.712 385.18L660.482 380.89V384.79L680.632 388.86L700.392 402.31V422.54L681.702 409.82L660.472 405.53V409.43L680.622 413.5L700.382 426.95V447.18L681.692 434.46L660.462 430.17V434.07L680.612 438.14L700.372 451.59V471.82L681.682 459.1L660.452 454.81V458.71L680.602 462.78L700.362 476.23V496.45L681.672 483.73L660.442 479.44V483.34L680.592 487.41L700.352 500.86V521.09L681.662 508.37L660.432 504.08V507.98L680.582 512.05L700.342 525.5V545.73L681.652 533.01L660.422 528.72V532.62L680.572 536.69L700.332 550.14V570.37L681.642 557.65L660.412 553.36V557.26L680.562 561.33L700.322 574.78V595L681.632 582.28L660.402 577.99V581.89L680.552 585.96L700.312 599.41V619.64L681.622 606.92L660.392 602.63V606.53L680.542 610.6L700.302 624.05V644.28L681.612 631.56L660.382 627.27V631.17L680.532 635.24L700.292 648.69V668.92L681.602 656.2L660.372 651.91V655.81L680.522 659.88L700.282 673.33V693.55L681.592 680.83L660.362 676.54V680.44L680.512 684.51L700.272 697.96V718.19L681.582 705.47L660.352 701.18V705.08L680.502 709.15L699.172 721.86H703.452V713.76H716.592L720.702 716.52H733.792V721.86H736.972V700.45L755.662 713.17L776.892 717.46V713.56L756.742 709.49L736.982 696.04V675.81L755.672 688.53L776.902 692.82V688.92L756.752 684.85L736.992 671.4V651.17L755.682 663.89L776.912 668.18V664.28L756.762 660.21L737.002 646.76V626.53L755.692 639.25L776.922 643.54V639.64L756.772 635.57L737.012 622.12V601.89L755.702 614.61L776.932 618.9V615L756.782 610.93L737.022 597.48V577.26L755.712 589.98L776.942 594.27V590.37L756.792 586.3L737.032 572.85V552.62L755.722 565.34L776.952 569.63V565.73L756.802 561.66L737.042 548.21V527.98L755.732 540.7L776.962 544.99V541.09L756.812 537.02L737.052 523.57V503.34L755.742 516.06L776.972 520.35V516.45L756.822 512.38L737.062 498.93V478.71L755.752 491.43L776.982 495.72V491.82L756.832 487.75L737.072 474.3V454.07L755.762 466.79L776.992 471.08V467.18L756.842 463.11L737.082 449.66V429.43L755.772 442.15L777.002 446.44V442.54L756.852 438.47L737.092 425.02V404.79L755.782 417.51L777.012 421.8V417.9L756.862 413.83L737.102 400.38V380.16L755.792 392.88L777.022 397.17V393.27L756.872 389.2L737.112 375.75V375.76ZM733.932 714.62H721.252L717.142 711.86H703.592V688.95H716.732L720.842 691.71H733.932V714.62ZM733.932 689.79H721.252L717.142 687.03H703.592V664.12H716.732L720.842 666.88H733.932V689.79ZM733.932 664.96H721.252L717.142 662.2H703.592V639.29H716.732L720.842 642.05H733.932V664.96ZM733.932 640.12H721.252L717.142 637.36H703.592V614.45H716.732L720.842 617.21H733.932V640.12ZM733.932 615.29H721.252L717.142 612.53H703.592V589.62H716.732L720.842 592.38H733.932V615.29ZM733.932 590.46H721.252L717.142 587.7H703.592V564.79H716.732L720.842 567.55H733.932V590.46ZM733.932 565.63H721.252L717.142 562.87H703.592V539.96H716.732L720.842 542.72H733.932V565.63ZM733.932 540.79H721.252L717.142 538.03H703.592V515.12H716.732L720.842 517.88H733.932V540.79ZM733.932 515.96H721.252L717.142 513.2H703.592V490.29H716.732L720.842 493.05H733.932V515.96ZM733.932 491.13H721.252L717.142 488.37H703.592V465.46H716.732L720.842 468.22H733.932V491.13ZM733.932 466.3H721.252L717.142 463.54H703.592V440.63H716.732L720.842 443.39H733.932V466.3ZM733.932 441.47H721.252L717.142 438.71H703.592V415.8H716.732L720.842 418.56H733.932V441.47ZM733.932 416.63H721.252L717.142 413.87H703.592V390.96H716.732L720.842 393.72H733.932V416.63ZM733.932 391.8H721.252L717.142 389.04H703.592V366.13H716.732L720.842 368.89H733.932V391.8Z" fill="url(#paint20_linear_860_704)"/>
</g>
<path d="M261.528 571.1H330.508L330.508 318.25H261.528V571.1Z" fill="#FFB710"/>
<path d="M330.5 318.25H261.52V403.8H330.5V318.25Z" fill="#DE7B04"/>
<path d="M261.528 571.1H330.508V508.57H261.528V571.1Z" fill="#DE7B04"/>
<path d="M461.079 571.1H530.059V318.25H461.079V571.1Z" fill="#FFB710"/>
<path d="M530.05 318.25H461.07V403.8H530.05V318.25Z" fill="#DE7B04"/>
<path d="M461.079 571.1H530.059V508.57H461.079V571.1Z" fill="#DE7B04"/>
<path d="M461.07 403.8H330.5V627.29H461.07V403.8Z" fill="#DE7B04"/>
<g style="mix-blend-mode:multiply" opacity="0.1">
<path d="M461.07 453.46H330.5V595.2H461.07V453.46Z" fill="black"/>
</g>
<g style="mix-blend-mode:multiply" opacity="0.3">
<path d="M461.07 595.2H330.5V627.29H461.07V595.2Z" fill="black"/>
</g>
<g style="mix-blend-mode:multiply" opacity="0.3">
<path d="M461.07 403.8H330.5V453.46H461.07V403.8Z" fill="black"/>
</g>
<path d="M345.171 325.7H320.891V388.45H345.171V325.7Z" fill="#AEC0CB"/>
<path opacity="0.5" d="M345.171 325.7H320.891V388.45H345.171V325.7Z" fill="#889AA5"/>
<path d="M345.171 325.7H320.891V326.57H345.171V325.7Z" fill="#D3E5F0"/>
<path opacity="0.3" d="M340.899 326.57H333.949V387.58H340.899V326.57Z" fill="#D3E5F0"/>
<path opacity="0.4" d="M324.371 326.57H320.891V387.58H324.371V326.57Z" fill="#7B8D98"/>
<path style="mix-blend-mode:multiply" opacity="0.4" d="M345.171 325.7H320.891V387.58H345.171V325.7Z" fill="url(#paint21_linear_860_704)"/>
<path d="M353.81 387.58H311.18V523.39H353.81V387.58Z" fill="#FFB710"/>
<path opacity="0.5" d="M353.81 387.58H311.18V523.39H353.81V387.58Z" fill="#DE7B04"/>
<path d="M353.81 387.58H311.18V389.46H353.81V387.58Z" fill="#FFDE36"/>
<path opacity="0.3" d="M346.312 389.46H334.102V521.5H346.312V389.46Z" fill="#FFDE36"/>
<path opacity="0.4" d="M317.28 389.46H311.18V521.5H317.28V389.46Z" fill="#DE7B04"/>
<path d="M347.771 304.4H317.281V340.62H347.771V304.4Z" fill="#DE7B04"/>
<path d="M469.577 325.7H445.297V388.45H469.577V325.7Z" fill="#AEC0CB"/>
<path opacity="0.5" d="M469.577 325.7H445.297V388.45H469.577V325.7Z" fill="#889AA5"/>
<path d="M469.577 325.7H445.297V326.57H469.577V325.7Z" fill="#D3E5F0"/>
<path opacity="0.3" d="M465.298 326.57H458.348V387.58H465.298V326.57Z" fill="#D3E5F0"/>
<path opacity="0.4" d="M448.777 326.57H445.297V387.58H448.777V326.57Z" fill="#7B8D98"/>
<path style="mix-blend-mode:multiply" opacity="0.4" d="M469.577 325.7H445.297V387.58H469.577V325.7Z" fill="url(#paint22_linear_860_704)"/>
<path d="M478.208 387.58H435.578V523.39H478.208V387.58Z" fill="#FFB710"/>
<path opacity="0.5" d="M478.208 387.58H435.578V523.39H478.208V387.58Z" fill="#DE7B04"/>
<path d="M478.208 387.58H435.578V389.46H478.208V387.58Z" fill="#FFDE36"/>
<path opacity="0.3" d="M470.71 389.46H458.5V521.5H470.71V389.46Z" fill="#FFDE36"/>
<path opacity="0.4" d="M441.678 389.46H435.578V521.5H441.678V389.46Z" fill="#DE7B04"/>
<path d="M472.177 304.4H441.688V340.62H472.177V304.4Z" fill="#DE7B04"/>
<defs>
<linearGradient id="paint0_linear_860_704" x1="390.652" y1="247.64" x2="390.652" y2="382" gradientUnits="userSpaceOnUse">
<stop stop-color="white"/>
<stop offset="1"/>
</linearGradient>
<linearGradient id="paint1_linear_860_704" x1="72.8202" y1="349.309" x2="72.8202" y2="744.609" gradientUnits="userSpaceOnUse">
<stop stop-color="#555E61"/>
<stop offset="1" stop-color="#222B2E"/>
</linearGradient>
<linearGradient id="paint2_linear_860_704" x1="11.4102" y1="539.449" x2="14.5502" y2="539.449" gradientUnits="userSpaceOnUse">
<stop stop-color="#3B4447"/>
<stop offset="1" stop-color="#222B2E"/>
</linearGradient>
<linearGradient id="paint3_linear_860_704" x1="131.09" y1="-0.00070023" x2="134.22" y2="-0.00070023" gradientUnits="userSpaceOnUse">
<stop stop-color="#3B4447"/>
<stop offset="1" stop-color="#222B2E"/>
</linearGradient>
<linearGradient id="paint4_linear_860_704" x1="112.219" y1="358.839" x2="112.219" y2="728.27" gradientUnits="userSpaceOnUse">
<stop stop-color="#555E61"/>
<stop offset="1" stop-color="#222B2E"/>
</linearGradient>
<linearGradient id="paint5_linear_860_704" x1="0.000159596" y1="358.84" x2="1.00016" y2="728.27" gradientUnits="userSpaceOnUse">
<stop stop-color="#555E61"/>
<stop offset="1" stop-color="#222B2E"/>
</linearGradient>
<linearGradient id="paint6_linear_860_704" x1="200.111" y1="-0.000706607" x2="200.111" y2="-0.000706607" gradientUnits="userSpaceOnUse">
<stop stop-color="#555E61"/>
<stop offset="1" stop-color="#222B2E"/>
</linearGradient>
<linearGradient id="paint7_linear_860_704" x1="138.711" y1="-0.000702367" x2="141.851" y2="-0.000702367" gradientUnits="userSpaceOnUse">
<stop stop-color="#3B4447"/>
<stop offset="1" stop-color="#222B2E"/>
</linearGradient>
<linearGradient id="paint8_linear_860_704" x1="258.383" y1="-0.000702367" x2="261.523" y2="-0.000702367" gradientUnits="userSpaceOnUse">
<stop stop-color="#3B4447"/>
<stop offset="1" stop-color="#222B2E"/>
</linearGradient>
<linearGradient id="paint9_linear_860_704" x1="239.52" y1="358.839" x2="239.52" y2="728.27" gradientUnits="userSpaceOnUse">
<stop stop-color="#555E61"/>
<stop offset="1" stop-color="#222B2E"/>
</linearGradient>
<linearGradient id="paint10_linear_860_704" x1="200.111" y1="358.84" x2="200.111" y2="728.27" gradientUnits="userSpaceOnUse">
<stop stop-color="#555E61"/>
<stop offset="1" stop-color="#222B2E"/>
</linearGradient>
<linearGradient id="paint11_linear_860_704" x1="591.461" y1="-0.000706607" x2="591.461" y2="-0.000706607" gradientUnits="userSpaceOnUse">
<stop stop-color="#555E61"/>
<stop offset="1" stop-color="#222B2E"/>
</linearGradient>
<linearGradient id="paint12_linear_860_704" x1="530.051" y1="-0.000702367" x2="533.191" y2="-0.000702367" gradientUnits="userSpaceOnUse">
<stop stop-color="#3B4447"/>
<stop offset="1" stop-color="#222B2E"/>
</linearGradient>
<linearGradient id="paint13_linear_860_704" x1="649.73" y1="-0.000702367" x2="652.87" y2="-0.000702367" gradientUnits="userSpaceOnUse">
<stop stop-color="#3B4447"/>
<stop offset="1" stop-color="#222B2E"/>
</linearGradient>
<linearGradient id="paint14_linear_860_704" x1="630.872" y1="358.839" x2="630.872" y2="728.27" gradientUnits="userSpaceOnUse">
<stop stop-color="#555E61"/>
<stop offset="1" stop-color="#222B2E"/>
</linearGradient>
<linearGradient id="paint15_linear_860_704" x1="591.461" y1="358.84" x2="591.461" y2="728.27" gradientUnits="userSpaceOnUse">
<stop stop-color="#555E61"/>
<stop offset="1" stop-color="#222B2E"/>
</linearGradient>
<linearGradient id="paint16_linear_860_704" x1="718.762" y1="-0.000706607" x2="718.762" y2="-0.000706607" gradientUnits="userSpaceOnUse">
<stop stop-color="#555E61"/>
<stop offset="1" stop-color="#222B2E"/>
</linearGradient>
<linearGradient id="paint17_linear_860_704" x1="657.352" y1="-0.000702367" x2="660.492" y2="-0.000702367" gradientUnits="userSpaceOnUse">
<stop stop-color="#3B4447"/>
<stop offset="1" stop-color="#222B2E"/>
</linearGradient>
<linearGradient id="paint18_linear_860_704" x1="777.031" y1="-0.000702367" x2="780.171" y2="-0.000702367" gradientUnits="userSpaceOnUse">
<stop stop-color="#3B4447"/>
<stop offset="1" stop-color="#222B2E"/>
</linearGradient>
<linearGradient id="paint19_linear_860_704" x1="758.173" y1="358.839" x2="758.173" y2="728.27" gradientUnits="userSpaceOnUse">
<stop stop-color="#555E61"/>
<stop offset="1" stop-color="#222B2E"/>
</linearGradient>
<linearGradient id="paint20_linear_860_704" x1="718.762" y1="358.84" x2="718.762" y2="728.27" gradientUnits="userSpaceOnUse">
<stop stop-color="#555E61"/>
<stop offset="1" stop-color="#222B2E"/>
</linearGradient>
<linearGradient id="paint21_linear_860_704" x1="333.031" y1="389.53" x2="333.031" y2="341.44" gradientUnits="userSpaceOnUse">
<stop stop-color="white"/>
<stop offset="1"/>
</linearGradient>
<linearGradient id="paint22_linear_860_704" x1="457.437" y1="389.53" x2="457.437" y2="341.44" gradientUnits="userSpaceOnUse">
<stop stop-color="white"/>
<stop offset="1"/>
</linearGradient>
</defs>
</svg>
