<svg width="1506" height="723" viewBox="0 0 1506 723" fill="none" xmlns="http://www.w3.org/2000/svg">
<path d="M222.99 615.46H48.4102V590.49L239.36 598.16L222.99 615.46Z" fill="#DE7B04"/>
<g style="mix-blend-mode:multiply" opacity="0.4">
<path d="M222.99 615.46H48.4102V590.49L239.36 598.16L222.99 615.46Z" fill="black"/>
</g>
<path d="M581.7 283.99V342.21L544.12 432.53L414.34 578.39H214.17V291.8L581.7 283.99Z" fill="#DE7B04"/>
<g style="mix-blend-mode:multiply" opacity="0.5">
<path d="M581.7 283.99V342.21L544.12 432.53L414.34 578.39H214.17V291.8L581.7 283.99Z" fill="black"/>
</g>
<path d="M284.39 391.88H225.1V542.21H284.39V391.88Z" fill="#DE7B04"/>
<g style="mix-blend-mode:multiply" opacity="0.4">
<path d="M284.39 391.88H225.1V542.21H284.39V391.88Z" fill="black"/>
</g>
<path d="M479.88 340.6H335.67V396.24H479.88V340.6Z" fill="#DE7B04"/>
<g style="mix-blend-mode:multiply" opacity="0.4">
<path d="M479.88 340.6H335.67V396.24H479.88V340.6Z" fill="black"/>
</g>
<path d="M332.939 304.4L384.609 394.12L342.499 409.59L232.939 340.32V300.89L332.939 304.4Z" fill="#DE7B04"/>
<g style="mix-blend-mode:multiply" opacity="0.3">
<path d="M332.939 304.4L384.609 394.12L342.499 409.59L232.939 340.32V300.89L332.939 304.4Z" fill="black"/>
</g>
<g style="mix-blend-mode:multiply" opacity="0.3">
<path d="M343.009 321.89L332.939 304.4L232.939 300.89V321.89H343.009Z" fill="black"/>
</g>
<path d="M479.879 300.89H450.779V375.85H479.879V300.89Z" fill="#DE7B04"/>
<path d="M518.629 300.89H489.529V375.85H518.629V300.89Z" fill="#DE7B04"/>
<g style="mix-blend-mode:multiply" opacity="0.3">
<path d="M479.879 300.89H450.779V375.85H479.879V300.89Z" fill="black"/>
</g>
<g style="mix-blend-mode:multiply" opacity="0.3">
<path d="M479.879 300.89H450.779V321.89H479.879V300.89Z" fill="black"/>
</g>
<g style="mix-blend-mode:multiply" opacity="0.3">
<path d="M518.629 300.89H489.529V375.85H518.629V300.89Z" fill="black"/>
</g>
<g style="mix-blend-mode:multiply" opacity="0.3">
<path d="M518.629 300.89H489.529V321.89H518.629V300.89Z" fill="black"/>
</g>
<path d="M1218.33 283.99C1218.33 283.99 1236.45 334.79 1240.4 347.1C1244.35 359.4 1246.43 387.63 1234.13 396.5C1221.83 405.37 1162.56 396.5 1162.56 396.5L1098.4 357.03V313.88L1218.32 284L1218.33 283.99Z" fill="#DE7B04"/>
<g style="mix-blend-mode:multiply" opacity="0.5">
<path d="M1218.33 283.99C1218.33 283.99 1236.45 334.79 1240.4 347.1C1244.35 359.4 1246.43 387.63 1234.13 396.5C1221.83 405.37 1162.56 396.5 1162.56 396.5L1098.4 357.03V313.88L1218.32 284L1218.33 283.99Z" fill="black"/>
</g>
<path d="M214.17 412.52H152.42V554.95H214.17V412.52Z" fill="#DE7B04"/>
<path d="M169.519 264.39H120.369V555.26H169.519V264.39Z" fill="#FFB710"/>
<path opacity="0.7" d="M169.519 263.91H120.369V555.25H169.519V263.91Z" fill="#DE7B04"/>
<path d="M169.519 263.91H120.369V273.78H169.519V263.91Z" fill="#29333F"/>
<path d="M1167.83 295L1161.19 335.58L691.651 416.25L683.73 385.44L1167.83 295Z" fill="#DE7B04"/>
<g style="mix-blend-mode:multiply" opacity="0.3">
<path d="M1167.83 295L1161.19 335.58L691.651 416.25L683.73 385.44L1167.83 295Z" fill="black"/>
</g>
<path d="M490.901 571.1H1243.84V404.49L1192.06 343.4C1175.63 324.02 1150.12 314.87 1125.12 319.39L479.881 436.18L490.901 571.1Z" fill="#DE7B04"/>
<path style="mix-blend-mode:multiply" opacity="0.3" d="M490.901 571.1H1243.84V404.49L1192.06 343.4C1175.63 324.02 1150.12 314.87 1125.12 319.39L479.881 436.18L490.901 571.1Z" fill="url(#paint0_linear_860_1058)"/>
<path d="M490.9 571.1H1150.34C1142.77 525.09 1134.91 477.56 1134.91 477.56L968.7 560.43H912.56C897.32 560.43 805.98 527.52 805.98 527.52L713.39 505.97H536.89L486.34 515.31L490.9 571.1Z" fill="#DE7B04"/>
<g style="mix-blend-mode:multiply" opacity="0.3">
<path d="M490.9 571.1H1150.34C1142.77 525.09 1134.91 477.56 1134.91 477.56L968.7 560.43H912.56C897.32 560.43 805.98 527.52 805.98 527.52L713.39 505.97H536.89L486.34 515.31L490.9 571.1Z" fill="black"/>
</g>
<path d="M437.029 154.63H523.269L535.529 168.34V238.83H437.029V154.63Z" fill="#29333F"/>
<path d="M453.771 85.0498H279.051L261.641 184.01H507.581L453.771 85.0498Z" fill="#414E5F"/>
<path d="M507.581 184.01H261.641L228.211 220.5V263.91H507.581V184.01Z" fill="#FFB710"/>
<path d="M169.52 309.81V412.5H204.44V555.26H239.36V412.5V309.81H169.52Z" fill="#FFB710"/>
<path opacity="0.3" d="M239.359 412.52H204.439V555.25H239.359V412.52Z" fill="#DE7B04"/>
<path d="M612.35 281.14L484.33 309.81H134.6V263.91H612.35V281.14Z" fill="#FFB710"/>
<path d="M239.36 555.26H35.6504V598.16H239.36V555.26Z" fill="#FFB710"/>
<path d="M239.36 555.26H35.6504V557.46H239.36V555.26Z" fill="#FFDE36"/>
<path d="M239.36 595.64H54.2402V598.16H239.36V595.64Z" fill="#DE7B04"/>
<path d="M239.36 410H169.52V412.52H239.36V410Z" fill="#DE7B04"/>
<path opacity="0.5" d="M164.45 273.78H134.6V309.81H164.45V273.78Z" fill="#DE7B04"/>
<path d="M573.061 410.45C539.961 377.35 494.231 356.88 443.721 356.88C393.211 356.88 347.481 377.36 314.381 410.45C281.281 443.55 260.811 489.28 260.811 539.79C260.811 590.3 281.281 636.03 314.381 669.13C347.481 702.23 393.211 722.7 443.721 722.7C494.231 722.7 539.951 702.23 573.061 669.13C606.161 636.03 626.641 590.3 626.641 539.79C626.641 489.28 606.171 443.55 573.061 410.45Z" fill="#222B2E"/>
<path d="M561.351 422.17C531.251 392.07 489.661 373.45 443.731 373.45C397.801 373.45 356.211 392.07 326.101 422.17C296.001 452.27 277.381 493.86 277.381 539.8C277.381 585.74 296.001 627.32 326.101 657.42C356.201 687.52 397.791 706.14 443.731 706.14C489.671 706.14 531.251 687.52 561.351 657.42C591.451 627.32 610.071 585.73 610.071 539.8C610.071 493.87 591.451 452.28 561.351 422.17Z" fill="#3B4447"/>
<path d="M569.011 649.09L573.041 644.39L587.471 652.83C591.611 647.57 595.481 642.09 599.041 636.38L586.091 625.66L589.251 620.33L604.981 626.16C608.141 620.28 610.961 614.19 613.471 607.94L598.851 599.62L601.031 593.82L617.521 596.83C619.601 590.5 621.361 584.03 622.751 577.42L606.891 571.76L608.031 565.67L624.781 565.77C625.711 559.2 626.281 552.51 626.501 545.74L609.971 542.93L610.041 536.74L626.501 533.93C626.291 527.15 625.721 520.47 624.791 513.89L607.991 514L606.981 507.89L622.771 502.25C621.391 495.64 619.631 489.17 617.551 482.84L601.021 485.86L598.971 480.02L613.511 471.74C611.001 465.49 608.191 459.4 605.031 453.51L589.271 459.36L586.231 453.96L599.101 443.29C595.551 437.58 591.681 432.1 587.541 426.83L573.101 435.29L569.171 430.5L579.971 417.78C577.731 415.28 575.441 412.83 573.071 410.45C570.701 408.08 568.241 405.79 565.751 403.55L553.001 414.39L548.301 410.36L556.711 395.99C551.441 391.85 545.961 387.98 540.251 384.42L529.571 397.31L524.241 394.16L530.041 378.5C524.151 375.34 518.061 372.52 511.801 370.01L503.531 384.55L497.731 382.37L500.721 365.97C494.391 363.89 487.911 362.13 481.291 360.75L475.661 376.52L469.571 375.38L469.671 358.74C463.091 357.81 456.401 357.24 449.621 357.02L446.831 373.44L440.641 373.37L437.851 357.02C431.071 357.24 424.371 357.8 417.801 358.74L417.911 375.42L411.801 376.43L406.201 360.75C399.581 362.13 393.101 363.9 386.771 365.97L389.771 382.38L383.931 384.43L375.711 369.99C369.451 372.5 363.361 375.32 357.461 378.48L363.271 394.12L357.871 397.16L347.281 384.38C341.571 387.94 336.081 391.81 330.811 395.95L339.211 410.29L334.421 414.22L321.781 403.49C319.271 405.74 316.801 408.04 314.411 410.42C312.051 412.78 309.771 415.23 307.541 417.72L318.311 430.4L314.281 435.1L299.991 426.74C295.841 432.01 291.971 437.5 288.411 443.21L301.231 453.83L298.071 459.16L282.491 453.39C279.331 459.28 276.511 465.38 273.991 471.64L288.461 479.87L286.281 485.67L269.951 482.69C267.871 489.03 266.101 495.5 264.711 502.12L280.421 507.72L279.281 513.81L262.701 513.71C261.761 520.29 261.191 526.98 260.971 533.77L277.341 536.55L277.271 542.74L260.961 545.52C261.171 552.31 261.731 559 262.661 565.58L279.311 565.47L280.321 571.58L264.661 577.18C266.041 583.8 267.801 590.28 269.871 596.62L286.281 593.62L288.331 599.46L273.891 607.68C276.401 613.94 279.211 620.04 282.371 625.93L298.031 620.12L301.071 625.52L288.281 636.13C291.831 641.84 295.701 647.34 299.841 652.61L314.211 644.19L318.141 648.98L307.391 661.65C309.661 664.19 311.981 666.69 314.391 669.1C316.731 671.44 319.141 673.69 321.601 675.9L334.321 665.09L339.021 669.12L330.631 683.46C335.891 687.61 341.381 691.48 347.091 695.04L357.751 682.17L363.081 685.32L357.281 700.97C363.171 704.13 369.261 706.95 375.511 709.47L383.791 694.92L389.591 697.1L386.601 713.52C392.931 715.6 399.401 717.37 406.021 718.76L411.661 702.96L417.751 704.1L417.651 720.79C424.221 721.73 430.911 722.3 437.691 722.52L440.491 706.04L446.681 706.11L449.481 722.53C456.261 722.32 462.951 721.76 469.521 720.83L469.411 704.06L475.521 703.05L481.161 718.82C487.781 717.44 494.251 715.68 500.581 713.61L497.561 697.08L503.401 695.03L511.681 709.57C517.931 707.07 524.021 704.25 529.911 701.1L524.061 685.33L529.461 682.29L540.141 695.17C545.851 691.62 551.331 687.76 556.601 683.62L548.121 669.15L552.911 665.22L565.661 676.05C568.191 673.79 570.671 671.48 573.061 669.08C575.411 666.73 577.671 664.31 579.891 661.84L569.011 649.04V649.09Z" fill="url(#paint1_linear_860_1058)"/>
<path opacity="0.5" d="M554.581 428.93C526.211 400.56 487.021 383.01 443.731 383.01C400.441 383.01 361.241 400.56 332.871 428.93C304.501 457.3 286.951 496.49 286.951 539.79C286.951 583.09 304.501 622.28 332.871 650.65C361.241 679.02 400.431 696.57 443.731 696.57C487.031 696.57 526.211 679.02 554.581 650.65C582.951 622.28 600.501 583.09 600.501 539.79C600.501 496.49 582.951 457.3 554.581 428.93Z" fill="url(#paint2_linear_860_1058)"/>
<path opacity="0.5" d="M343.94 639.58C369.48 665.12 404.76 680.91 443.73 680.91C482.7 680.91 517.98 665.11 543.52 639.58C569.06 614.04 584.85 578.76 584.85 539.79C584.85 500.82 569.05 465.54 543.52 440C517.98 414.46 482.7 398.67 443.73 398.67C404.76 398.67 369.48 414.46 343.94 440C318.4 465.54 302.6 500.82 302.6 539.79C302.6 578.76 318.4 614.04 343.94 639.58Z" fill="url(#paint3_linear_860_1058)"/>
<path opacity="0.5" d="M541.29 442.23C516.32 417.26 481.83 401.82 443.73 401.82C405.63 401.82 371.14 417.26 346.17 442.23C321.2 467.2 305.76 501.69 305.76 539.79C305.76 577.89 321.2 612.38 346.17 637.35C371.14 662.32 405.63 677.76 443.73 677.76C481.83 677.76 516.32 662.32 541.29 637.35C566.26 612.38 581.7 577.89 581.7 539.79C581.7 501.69 566.26 467.2 541.29 442.23Z" fill="url(#paint4_linear_860_1058)"/>
<path d="M515.3 468.21C496.98 449.89 471.68 438.56 443.72 438.56C415.76 438.56 390.46 449.89 372.14 468.21C353.82 486.53 342.49 511.83 342.49 539.79C342.49 567.75 353.82 593.05 372.14 611.37C390.46 629.69 415.76 641.02 443.72 641.02C471.68 641.02 496.98 629.69 515.3 611.37C533.62 593.05 544.95 567.75 544.95 539.79C544.95 511.83 533.62 486.53 515.3 468.21Z" fill="url(#paint5_linear_860_1058)"/>
<path opacity="0.5" d="M523.531 459.99C503.111 439.57 474.891 426.93 443.731 426.93C412.571 426.93 384.351 439.56 363.931 459.99C343.511 480.41 330.871 508.63 330.871 539.8C330.871 570.97 343.501 599.18 363.931 619.6C384.351 640.02 412.571 652.66 443.731 652.66C474.891 652.66 503.111 640.03 523.531 619.6C543.951 599.18 556.591 570.96 556.591 539.8C556.591 508.64 543.961 480.42 523.531 459.99Z" fill="url(#paint6_linear_860_1058)"/>
<g style="mix-blend-mode:multiply" opacity="0.2">
<path d="M505.76 478.89C489.88 463.02 467.95 453.2 443.73 453.2C419.51 453.2 397.57 463.02 381.7 478.89C365.83 494.77 356.01 516.7 356.01 540.92C356.01 565.14 365.83 587.08 381.7 602.95C397.58 618.83 419.51 628.64 443.73 628.64C467.95 628.64 489.88 618.82 505.76 602.95C521.64 587.08 531.46 565.14 531.46 540.92C531.46 516.7 521.64 494.76 505.76 478.89Z" fill="black"/>
</g>
<path d="M504.491 479.029C488.941 463.479 467.461 453.859 443.731 453.859C420.001 453.859 398.521 463.479 382.971 479.029C367.421 494.579 357.801 516.059 357.801 539.799C357.801 563.539 367.421 585.009 382.971 600.559C398.521 616.109 420.001 625.729 443.731 625.729C467.461 625.729 488.941 616.109 504.491 600.559C520.041 585.009 529.661 563.529 529.661 539.799C529.661 516.069 520.041 494.589 504.491 479.029Z" fill="#FFB710"/>
<path d="M504.491 479.029C488.941 463.479 467.461 453.859 443.731 453.859C420.001 453.859 398.521 463.479 382.971 479.029C367.421 494.579 357.801 516.059 357.801 539.799C357.801 563.539 367.421 585.009 382.971 600.559C398.521 616.109 420.001 625.729 443.731 625.729C467.461 625.729 488.941 616.109 504.491 600.559C520.041 585.009 529.661 563.529 529.661 539.799C529.661 516.069 520.041 494.589 504.491 479.029Z" fill="#FFDE36"/>
<path d="M502.63 480.879C487.55 465.809 466.73 456.479 443.72 456.479C420.71 456.479 399.89 465.809 384.81 480.879C369.73 495.959 360.41 516.779 360.41 539.789C360.41 562.799 369.73 583.619 384.81 598.699C399.89 613.779 420.71 623.099 443.72 623.099C466.73 623.099 487.55 613.779 502.63 598.699C517.71 583.629 527.03 562.799 527.03 539.789C527.03 516.779 517.71 495.959 502.63 480.879Z" fill="#FFB710"/>
<path d="M499.311 484.209C485.091 469.989 465.441 461.189 443.731 461.189C422.021 461.189 402.371 469.989 388.151 484.209C373.931 498.429 365.131 518.079 365.131 539.789C365.131 561.499 373.931 581.149 388.151 595.369C402.371 609.589 422.021 618.389 443.731 618.389C465.441 618.389 485.081 609.589 499.311 595.369C513.531 581.149 522.331 561.499 522.331 539.789C522.331 518.079 513.531 498.429 499.311 484.209Z" fill="#DE7B04"/>
<g style="mix-blend-mode:multiply" opacity="0.4">
<path d="M499.311 484.209C485.091 469.989 465.441 461.189 443.731 461.189C422.021 461.189 402.371 469.989 388.151 484.209C373.931 498.429 365.131 518.079 365.131 539.789C365.131 561.499 373.931 581.149 388.151 595.369C402.371 609.589 422.021 618.389 443.731 618.389C465.441 618.389 485.081 609.589 499.311 595.369C513.531 581.149 522.331 561.499 522.331 539.789C522.331 518.079 513.531 498.429 499.311 484.209Z" fill="#DE7B04"/>
</g>
<g style="mix-blend-mode:multiply" opacity="0.15">
<path d="M481.101 503.85C471.531 494.29 458.321 488.37 443.731 488.37C429.141 488.37 415.921 494.29 406.351 503.85C396.781 513.42 390.871 526.63 390.871 541.23C390.871 555.83 396.791 569.04 406.351 578.61C415.921 588.18 429.131 594.09 443.731 594.09C458.331 594.09 471.541 588.17 481.101 578.61C490.671 569.05 496.581 555.83 496.581 541.23C496.581 526.63 490.661 513.42 481.101 503.85Z" fill="#DE7B04"/>
</g>
<g style="mix-blend-mode:multiply" opacity="0.2">
<path d="M480.14 504.41C470.82 495.09 457.95 489.33 443.73 489.33C429.51 489.33 416.64 495.09 407.32 504.41C398 513.73 392.24 526.6 392.24 540.82C392.24 555.04 398 567.91 407.32 577.23C416.64 586.55 429.51 592.31 443.73 592.31C457.95 592.31 470.82 586.55 480.14 577.23C489.46 567.91 495.22 555.04 495.22 540.82C495.22 526.6 489.46 513.73 480.14 504.41Z" fill="#DE7B04"/>
</g>
<g style="mix-blend-mode:multiply" opacity="0.2">
<path d="M479.151 504.97C470.081 495.91 457.561 490.3 443.731 490.3C429.901 490.3 417.371 495.91 408.311 504.97C399.241 514.04 393.641 526.56 393.641 540.39C393.641 554.22 399.251 566.75 408.311 575.81C417.381 584.88 429.901 590.48 443.731 590.48C457.561 590.48 470.091 584.87 479.151 575.81C488.221 566.75 493.821 554.22 493.821 540.39C493.821 526.56 488.211 514.03 479.151 504.97Z" fill="#DE7B04"/>
</g>
<g style="mix-blend-mode:multiply" opacity="0.3">
<path d="M478.031 509.5C469.251 500.72 457.121 495.29 443.721 495.29C430.321 495.29 418.191 500.72 409.411 509.5C400.631 518.28 395.201 530.41 395.201 543.81C395.201 557.21 400.631 569.34 409.411 578.12C418.191 586.9 430.321 592.33 443.721 592.33C457.121 592.33 469.251 586.9 478.031 578.12C486.811 569.34 492.241 557.21 492.241 543.81C492.241 530.41 486.811 518.28 478.031 509.5Z" fill="#DE7B04"/>
</g>
<path opacity="0.5" d="M478.031 505.48C469.251 496.7 457.121 491.27 443.721 491.27C430.321 491.27 418.191 496.7 409.411 505.48C400.631 514.26 395.201 526.39 395.201 539.79C395.201 553.19 400.631 565.32 409.411 574.1C418.191 582.88 430.321 588.31 443.721 588.31C457.121 588.31 469.251 582.88 478.031 574.1C486.811 565.32 492.241 553.19 492.241 539.79C492.241 526.39 486.811 514.26 478.031 505.48Z" fill="#DE7B04"/>
<path opacity="0.5" d="M478.031 505.48C469.251 496.7 457.121 491.27 443.721 491.27C430.321 491.27 418.191 496.7 409.411 505.48C400.631 514.26 395.201 526.39 395.201 539.79C395.201 553.19 400.631 565.32 409.411 574.1C418.191 582.88 430.321 588.31 443.721 588.31C457.121 588.31 469.251 582.88 478.031 574.1C486.811 565.32 492.241 553.19 492.241 539.79C492.241 526.39 486.811 514.26 478.031 505.48Z" fill="#FFB710"/>
<g style="mix-blend-mode:multiply" opacity="0.15">
<path d="M472.22 512.64C464.93 505.35 454.85 500.84 443.73 500.84C432.61 500.84 422.53 505.35 415.23 512.64C407.94 519.93 403.43 530.01 403.43 541.14C403.43 552.27 407.94 562.34 415.23 569.63C422.52 576.92 432.6 581.43 443.73 581.43C454.86 581.43 464.93 576.92 472.22 569.63C479.51 562.34 484.02 552.26 484.02 541.14C484.02 530.02 479.51 519.94 472.22 512.64Z" fill="#DE7B04"/>
</g>
<g style="mix-blend-mode:multiply" opacity="0.2">
<path d="M471.441 513.01C464.351 505.92 454.551 501.53 443.731 501.53C432.911 501.53 423.111 505.92 416.021 513.01C408.931 520.1 404.541 529.9 404.541 540.72C404.541 551.54 408.931 561.34 416.021 568.43C423.111 575.52 432.911 579.91 443.731 579.91C454.551 579.91 464.351 575.52 471.441 568.43C478.531 561.34 482.921 551.54 482.921 540.72C482.921 529.9 478.531 520.1 471.441 513.01Z" fill="#DE7B04"/>
</g>
<g style="mix-blend-mode:multiply" opacity="0.2">
<path d="M470.69 513.279C463.79 506.379 454.26 502.109 443.73 502.109C433.2 502.109 423.67 506.379 416.77 513.279C409.87 520.179 405.6 529.709 405.6 540.249C405.6 550.789 409.87 560.309 416.77 567.209C423.67 574.109 433.2 578.379 443.73 578.379C454.26 578.379 463.79 574.109 470.69 567.209C477.59 560.309 481.86 550.779 481.86 540.249C481.86 529.719 477.59 520.189 470.69 513.279Z" fill="#DE7B04"/>
</g>
<path d="M470.061 513.45C463.321 506.71 454.011 502.54 443.721 502.54C433.431 502.54 424.121 506.71 417.381 513.45C410.641 520.19 406.471 529.5 406.471 539.79C406.471 550.08 410.641 559.39 417.381 566.13C424.121 572.87 433.431 577.04 443.721 577.04C454.011 577.04 463.321 572.87 470.061 566.13C476.801 559.39 480.971 550.08 480.971 539.79C480.971 529.5 476.801 520.19 470.061 513.45Z" fill="#FFB710"/>
<path d="M470.061 513.45C463.321 506.71 454.011 502.54 443.721 502.54C433.431 502.54 424.121 506.71 417.381 513.45C410.641 520.19 406.471 529.5 406.471 539.79C406.471 550.08 410.641 559.39 417.381 566.13C424.121 572.87 433.431 577.04 443.721 577.04C454.011 577.04 463.321 572.87 470.061 566.13C476.801 559.39 480.971 550.08 480.971 539.79C480.971 529.5 476.801 520.19 470.061 513.45Z" fill="#FFDE36"/>
<path d="M468.58 514.939C462.22 508.579 453.43 504.649 443.73 504.649C434.03 504.649 425.24 508.579 418.88 514.939C412.52 521.299 408.59 530.089 408.59 539.789C408.59 549.489 412.52 558.279 418.88 564.639C425.24 570.999 434.03 574.929 443.73 574.929C453.43 574.929 462.22 570.999 468.58 564.639C474.94 558.279 478.87 549.489 478.87 539.789C478.87 530.089 474.94 521.299 468.58 514.939Z" fill="#FFB710"/>
<path d="M465.56 517.95C459.97 512.36 452.25 508.91 443.72 508.91C435.19 508.91 427.47 512.37 421.88 517.95C416.29 523.53 412.83 531.26 412.83 539.79C412.83 548.32 416.29 556.04 421.88 561.63C427.47 567.22 435.19 570.67 443.72 570.67C452.25 570.67 459.97 567.21 465.56 561.63C471.15 556.04 474.61 548.32 474.61 539.79C474.61 531.26 471.15 523.54 465.56 517.95Z" fill="#DE7B04"/>
<path d="M464.51 519.009C459.19 513.689 451.84 510.399 443.73 510.399C435.62 510.399 428.27 513.689 422.95 519.009C417.63 524.329 414.34 531.679 414.34 539.789C414.34 547.899 417.63 555.249 422.95 560.569C428.27 565.889 435.62 569.179 443.73 569.179C451.84 569.179 459.19 565.889 464.51 560.569C469.83 555.249 473.12 547.899 473.12 539.789C473.12 531.679 469.83 524.329 464.51 519.009Z" fill="#FFB710"/>
<path d="M454.67 528.85C451.87 526.05 448 524.32 443.73 524.32C439.46 524.32 435.59 526.05 432.79 528.85C429.99 531.65 428.26 535.52 428.26 539.79C428.26 544.06 429.99 547.93 432.79 550.73C435.59 553.53 439.46 555.26 443.73 555.26C448 555.26 451.87 553.53 454.67 550.73C457.47 547.93 459.2 544.06 459.2 539.79C459.2 535.52 457.47 531.65 454.67 528.85Z" fill="#414E5F"/>
<g style="mix-blend-mode:multiply" opacity="0.5">
<path d="M454.67 530.81C451.87 528.01 448 526.28 443.73 526.28C439.46 526.28 435.59 528.01 432.79 530.81C429.99 533.61 428.26 537.48 428.26 541.75C428.26 546.02 429.99 549.89 432.79 552.69C435.59 555.49 439.46 557.22 443.73 557.22C448 557.22 451.87 555.49 454.67 552.69C457.47 549.89 459.2 546.02 459.2 541.75C459.2 537.48 457.47 533.61 454.67 530.81Z" fill="#DE7B04"/>
</g>
<path d="M454.67 528.85C451.87 526.05 448 524.32 443.73 524.32C439.46 524.32 435.59 526.05 432.79 528.85C429.99 531.65 428.26 535.52 428.26 539.79C428.26 544.06 429.99 547.93 432.79 550.73C435.59 553.53 439.46 555.26 443.73 555.26C448 555.26 451.87 553.53 454.67 550.73C457.47 547.93 459.2 544.06 459.2 539.79C459.2 535.52 457.47 531.65 454.67 528.85Z" fill="#5B6879"/>
<path d="M452.401 531.12C450.181 528.9 447.111 527.53 443.731 527.53C440.351 527.53 437.281 528.9 435.061 531.12C432.841 533.34 431.471 536.41 431.471 539.79C431.471 543.17 432.841 546.24 435.061 548.46C437.281 550.68 440.351 552.05 443.731 552.05C447.111 552.05 450.181 550.68 452.401 548.46C454.621 546.24 455.991 543.17 455.991 539.79C455.991 536.41 454.621 533.34 452.401 531.12Z" fill="#414E5F"/>
<g style="mix-blend-mode:multiply" opacity="0.2">
<path d="M499.311 484.209C485.091 469.989 465.441 461.189 443.731 461.189C422.021 461.189 402.371 469.989 388.151 484.209C373.931 498.429 365.131 518.079 365.131 539.789C365.131 561.499 373.931 581.149 388.151 595.369C402.371 609.589 422.021 618.389 443.731 618.389C465.441 618.389 485.081 609.589 499.311 595.369C513.531 581.149 522.331 561.499 522.331 539.789C522.331 518.079 513.531 498.429 499.311 484.209ZM497.231 593.299C483.541 606.989 464.621 615.459 443.721 615.459C422.821 615.459 403.911 606.989 390.211 593.299C376.521 579.609 368.051 560.689 368.051 539.789C368.051 518.889 376.521 499.979 390.211 486.279C403.901 472.589 422.821 464.119 443.721 464.119C464.621 464.119 483.531 472.589 497.231 486.279C510.931 499.969 519.391 518.889 519.391 539.789C519.391 560.689 510.921 579.599 497.231 593.299Z" fill="#DE7B04"/>
</g>
<g style="mix-blend-mode:multiply" opacity="0.2">
<path d="M499.311 484.209C485.091 469.989 465.441 461.189 443.731 461.189C422.021 461.189 402.371 469.989 388.151 484.209C373.931 498.429 365.131 518.079 365.131 539.789C365.131 561.499 373.931 581.149 388.151 595.369C402.371 609.589 422.021 618.389 443.731 618.389C465.441 618.389 485.081 609.589 499.311 595.369C513.531 581.149 522.331 561.499 522.331 539.789C522.331 518.079 513.531 498.429 499.311 484.209ZM498.321 594.379C484.351 608.349 465.051 616.989 443.731 616.989C422.411 616.989 403.111 608.349 389.141 594.379C375.171 580.409 366.531 561.109 366.531 539.789C366.531 518.469 375.171 499.169 389.141 485.199C403.111 471.229 422.411 462.589 443.731 462.589C465.051 462.589 484.351 471.229 498.321 485.199C512.291 499.169 520.931 518.469 520.931 539.789C520.931 561.109 512.291 580.409 498.321 594.379Z" fill="#DE7B04"/>
</g>
<g style="mix-blend-mode:multiply" opacity="0.3">
<path d="M499.311 484.209C485.091 469.989 465.441 461.189 443.731 461.189C422.021 461.189 402.371 469.989 388.151 484.209C373.931 498.429 365.131 518.079 365.131 539.789C365.131 541.019 365.171 542.239 365.221 543.459C366.151 523.209 374.731 504.959 388.151 491.549C402.371 477.329 422.021 468.529 443.731 468.529C465.441 468.529 485.081 477.329 499.311 491.549C512.731 504.969 521.311 523.219 522.241 543.459C522.301 542.239 522.331 541.019 522.331 539.789C522.331 518.079 513.531 498.429 499.311 484.209Z" fill="#DE7B04"/>
</g>
<path d="M612.35 263.91H134.6V273.78H612.35V263.91Z" fill="#414E5F"/>
<path opacity="0.5" d="M164.45 263.91H134.6V273.78H164.45V263.91Z" fill="#29333F"/>
<g style="mix-blend-mode:multiply" opacity="0.2">
<path d="M239.36 309.81H134.6V326.04H239.36V309.81Z" fill="black"/>
</g>
<g style="mix-blend-mode:multiply" opacity="0.2">
<path d="M239.36 309.81H134.6V313.88H239.36V309.81Z" fill="black"/>
</g>
<g style="mix-blend-mode:multiply" opacity="0.2">
<path d="M239.359 412.52H204.439V416.59H239.359V412.52Z" fill="black"/>
</g>
<path d="M301.06 108.52C301.06 106.34 299.28 104.55 297.09 104.55H289.65C287.47 104.55 285.37 106.31 285 108.46L274.14 170.19C273.76 172.34 275.24 174.1 277.42 174.1H297.1C299.28 174.1 301.07 172.32 301.07 170.13V108.52H301.06Z" fill="#29333F"/>
<path d="M277.419 172.11C276.959 172.11 276.579 171.95 276.339 171.67C276.099 171.39 276.009 170.98 276.089 170.53L286.949 108.8C287.159 107.59 288.419 106.53 289.649 106.53H297.089C298.179 106.53 299.069 107.42 299.069 108.51V170.12C299.069 171.21 298.179 172.1 297.089 172.1H277.409L277.419 172.11Z" fill="#98A6AA"/>
<path d="M405.811 170.13C405.811 172.31 407.591 174.1 409.781 174.1H465.751C467.931 174.1 468.861 172.53 467.821 170.62L433.791 108.05C432.751 106.13 430.111 104.57 427.931 104.57H409.781C407.601 104.57 405.811 106.35 405.811 108.54V170.15V170.13Z" fill="#29333F"/>
<path d="M409.781 172.11C408.691 172.11 407.801 171.22 407.801 170.13V108.52C407.801 107.43 408.691 106.54 409.781 106.54H427.931C429.391 106.54 431.351 107.71 432.051 108.99L466.081 171.56C466.221 171.82 466.261 171.99 466.261 172.07H466.251C466.191 172.07 466.031 172.11 465.751 172.11H409.781Z" fill="#98A6AA"/>
<path d="M377.98 104.55H314.32C312.127 104.55 310.35 106.327 310.35 108.52V170.12C310.35 172.312 312.127 174.09 314.32 174.09H377.98C380.172 174.09 381.95 172.312 381.95 170.12V108.52C381.95 106.327 380.172 104.55 377.98 104.55Z" fill="#29333F"/>
<path d="M377.98 106.54H314.31C313.217 106.54 312.33 107.427 312.33 108.52V170.13C312.33 171.224 313.217 172.11 314.31 172.11H377.98C379.074 172.11 379.96 171.224 379.96 170.13V108.52C379.96 107.427 379.074 106.54 377.98 106.54Z" fill="#98A6AA"/>
<path opacity="0.5" d="M277.42 172.11H297.1C298.19 172.11 299.08 171.22 299.08 170.13V168.48L291.38 163.56H277.32L276.09 170.53C276.01 170.98 276.09 171.39 276.34 171.67C276.58 171.95 276.96 172.11 277.42 172.11Z" fill="#414E5F"/>
<path opacity="0.5" d="M409.779 172.11H465.749C466.029 172.11 466.189 172.07 466.249 172.07H466.259C466.259 171.99 466.219 171.82 466.079 171.56L460.399 161.12H450.629L444.639 152.78H426.669L420.139 127.56H407.789V170.13C407.789 171.22 408.679 172.11 409.769 172.11H409.779Z" fill="#414E5F"/>
<path opacity="0.5" d="M377.979 172.11C379.069 172.11 379.959 171.22 379.959 170.13V137.16L369.779 163.57H352.089L349.539 172.12H377.979V172.11Z" fill="#414E5F"/>
<g style="mix-blend-mode:multiply" opacity="0.2">
<path d="M381.95 198.61H357.15V206.64H381.95V198.61Z" fill="black"/>
</g>
<path d="M381.95 196.64H357.15V204.67H381.95V196.64Z" fill="#414E5F"/>
<path d="M529.66 184.01H507.58V263.91H529.66V184.01Z" fill="#FFB710"/>
<path opacity="0.5" d="M529.66 184.01H507.58V263.91H529.66V184.01Z" fill="#DE7B04"/>
<path d="M565.77 263.91H529.66V233.39H555.34L565.77 240.48V263.91Z" fill="#29333F"/>
<path d="M544.12 216.78H529.66V233.38H544.12V216.78Z" fill="#29333F"/>
<path d="M54.2404 568.11H35.6504V623.17H54.2404V568.11Z" fill="#FFB710"/>
<path d="M900.899 421.06H770.539V590.49H900.899V421.06Z" fill="#FFB710"/>
<path opacity="0.5" d="M900.899 582.359H770.539V590.489H900.899V582.359Z" fill="#DE7B04"/>
<path opacity="0.5" d="M900.899 421.06H770.539V441.08H900.899V421.06Z" fill="#FFDE36"/>
<path d="M741.661 362.74H711.211V425.49H741.661V362.74Z" fill="#AEC0CB"/>
<path opacity="0.5" d="M741.661 362.74H711.211V425.49H741.661V362.74Z" fill="#889AA5"/>
<path d="M741.661 362.74H711.211V363.61H741.661V362.74Z" fill="#D3E5F0"/>
<path opacity="0.3" d="M736.3 363.61H727.58V424.62H736.3V363.61Z" fill="#D3E5F0"/>
<path opacity="0.4" d="M715.571 363.61H711.211V424.62H715.571V363.61Z" fill="#7B8D98"/>
<path style="mix-blend-mode:multiply" opacity="0.4" d="M741.661 367.87H711.211V424.63H741.661V367.87Z" fill="url(#paint7_linear_860_1058)"/>
<path d="M1029.42 388.14L1000.83 372.982L923.523 518.799L952.113 533.956L1029.42 388.14Z" fill="#FFB710"/>
<path opacity="0.5" d="M1029.42 388.14L1000.83 372.982L923.523 518.799L952.113 533.956L1029.42 388.14Z" fill="#DE7B04"/>
<path d="M1029.43 388.141L1000.84 372.983L999.763 375.007L1028.35 390.164L1029.43 388.141Z" fill="#FFDE36"/>
<path d="M953.188 531.932L924.598 516.774L923.525 518.798L952.116 533.955L953.188 531.932Z" fill="#DE7B04"/>
<path opacity="0.3" d="M1023.32 387.486L1015.12 383.144L939.962 524.922L948.152 529.264L1023.32 387.486Z" fill="#FFDE36"/>
<path opacity="0.4" d="M1003.84 377.166L999.752 374.997L924.589 516.776L928.68 518.944L1003.84 377.166Z" fill="#DE7B04"/>
<path d="M1059.35 317.681L1043.07 309.049L1007.35 376.426L1023.63 385.059L1059.35 317.681Z" fill="#AEC0CB"/>
<path opacity="0.5" d="M1059.35 317.681L1043.07 309.049L1007.35 376.426L1023.63 385.059L1059.35 317.681Z" fill="#889AA5"/>
<path d="M1059.35 317.684L1043.07 309.052L1042.57 309.988L1058.85 318.621L1059.35 317.684Z" fill="#D3E5F0"/>
<path d="M1024.13 384.132L1007.85 375.5L1007.35 376.437L1023.63 385.069L1024.13 384.132Z" fill="#6F818C"/>
<path opacity="0.3" d="M1055.99 317.096L1051.32 314.623L1016.59 380.136L1021.26 382.609L1055.99 317.096Z" fill="#D3E5F0"/>
<path opacity="0.4" d="M1044.92 311.204L1042.59 309.968L1007.86 375.481L1010.19 376.717L1044.92 311.204Z" fill="#7B8D98"/>
<path style="mix-blend-mode:multiply" opacity="0.4" d="M1042.99 309.05L1007.27 376.428L1023.55 385.06L1059.27 317.683L1042.99 309.05Z" fill="url(#paint8_linear_860_1058)"/>
<g style="mix-blend-mode:multiply" opacity="0.15">
<path d="M954.63 513.78C949.81 508.96 943.15 505.98 935.8 505.98C928.45 505.98 921.78 508.96 916.96 513.78C912.14 518.6 909.16 525.26 909.16 532.62C909.16 539.98 912.14 546.64 916.96 551.46C921.78 556.28 928.44 559.26 935.8 559.26C943.16 559.26 949.81 556.28 954.63 551.46C959.45 546.64 962.43 539.98 962.43 532.62C962.43 525.26 959.45 518.6 954.63 513.78Z" fill="#DE7B04"/>
</g>
<g style="mix-blend-mode:multiply" opacity="0.2">
<path d="M954.111 514.021C949.421 509.331 942.951 506.431 935.791 506.431C928.631 506.431 922.161 509.331 917.471 514.021C912.781 518.711 909.881 525.181 909.881 532.341C909.881 539.501 912.781 545.971 917.471 550.661C922.161 555.351 928.631 558.251 935.791 558.251C942.951 558.251 949.421 555.351 954.111 550.661C958.801 545.971 961.701 539.501 961.701 532.341C961.701 525.181 958.801 518.711 954.111 514.021Z" fill="#DE7B04"/>
</g>
<g style="mix-blend-mode:multiply" opacity="0.2">
<path d="M953.62 514.2C949.06 509.64 942.76 506.82 935.8 506.82C928.84 506.82 922.54 509.64 917.98 514.2C913.42 518.76 910.6 525.06 910.6 532.02C910.6 538.98 913.42 545.28 917.98 549.84C922.54 554.4 928.84 557.22 935.8 557.22C942.76 557.22 949.06 554.4 953.62 549.84C958.18 545.28 961 538.98 961 532.02C961 525.06 958.18 518.76 953.62 514.2Z" fill="#DE7B04"/>
</g>
<path d="M953.2 514.311C948.74 509.851 942.59 507.101 935.79 507.101C928.99 507.101 922.84 509.861 918.38 514.311C913.92 518.771 911.17 524.921 911.17 531.721C911.17 538.521 913.93 544.671 918.38 549.131C922.84 553.591 928.99 556.341 935.79 556.341C942.59 556.341 948.74 553.581 953.2 549.131C957.66 544.671 960.41 538.521 960.41 531.721C960.41 524.921 957.65 518.771 953.2 514.311Z" fill="#FFB710"/>
<path d="M953.2 514.311C948.74 509.851 942.59 507.101 935.79 507.101C928.99 507.101 922.84 509.861 918.38 514.311C913.92 518.771 911.17 524.921 911.17 531.721C911.17 538.521 913.93 544.671 918.38 549.131C922.84 553.591 928.99 556.341 935.79 556.341C942.59 556.341 948.74 553.581 953.2 549.131C957.66 544.671 960.41 538.521 960.41 531.721C960.41 524.921 957.65 518.771 953.2 514.311Z" fill="#FFDE36"/>
<path d="M952.221 515.3C948.021 511.1 942.211 508.5 935.791 508.5C929.371 508.5 923.571 511.1 919.361 515.3C915.161 519.5 912.561 525.31 912.561 531.73C912.561 538.15 915.161 543.95 919.361 548.16C923.561 552.36 929.371 554.96 935.791 554.96C942.211 554.96 948.011 552.36 952.221 548.16C956.421 543.96 959.021 538.15 959.021 531.73C959.021 525.31 956.421 519.51 952.221 515.3Z" fill="#FFB710"/>
<path opacity="0.2" d="M952.221 515.3C948.021 511.1 942.211 508.5 935.791 508.5C929.371 508.5 923.571 511.1 919.361 515.3C915.161 519.5 912.561 525.31 912.561 531.73C912.561 538.15 915.161 543.95 919.361 548.16C923.561 552.36 929.371 554.96 935.791 554.96C942.211 554.96 948.011 552.36 952.221 548.16C956.421 543.96 959.021 538.15 959.021 531.73C959.021 525.31 956.421 519.51 952.221 515.3Z" fill="#DE7B04"/>
<path d="M96.2402 0H498.82L523.34 15L544.06 52.83H1428.66L1503.87 243.13L683.73 385.44L493.02 75.21L96.2402 21.49V0Z" fill="#FFB710"/>
<path opacity="0.2" d="M96.2402 0H498.82L523.34 15L544.06 52.83H1428.66L1503.87 243.13L683.73 385.44L493.02 75.21L96.2402 21.49V0Z" fill="#DE7B04"/>
<path opacity="0.2" d="M575.27 209L1418.96 136.22L1429.83 112.73L1404.15 92.49H535.27L493.02 75.21L575.27 209Z" fill="#DE7B04"/>
<path d="M683.73 385.44L1503.87 243.13L1496.05 223.36L671.99 366.35L683.73 385.44Z" fill="#DE7B04"/>
<g style="mix-blend-mode:multiply" opacity="0.2">
<path d="M1467.75 249.4L1503.87 243.13L1432.09 61.4902H1239.84L1238.27 52.8202H1223.79L1225.36 61.4902H1034.63L1033.06 52.8202H1017.01L1018.58 61.4902H826.121L824.551 52.8202H809.511L811.081 61.4902H551.541L546.791 52.8202H544.061L526.711 21.1502L506.291 8.66016H103.711V22.4502L493.021 75.2001L500.701 87.7001L532.421 101.14H818.251L838.141 210.89L589.261 232.36L596.741 244.53L840.431 223.51L864.101 354.13L878.681 351.6L855.231 222.23L1044.7 205.89L1065.23 319.23L1080.79 316.53L1060.51 204.53L1248.31 188.33L1265.72 284.45L1279.76 282.01L1262.57 187.1L1437.17 172.04L1467.74 249.39L1467.75 249.4ZM852.961 209.63L833.301 101.15H1025.75L1042.44 193.28L852.961 209.62V209.63ZM1058.24 191.92L1041.8 101.15H1232.53L1246.04 175.72L1058.24 191.92ZM1260.3 174.49L1247.02 101.15H1409.17L1432.29 159.65L1260.31 174.49H1260.3Z" fill="black"/>
</g>
<path d="M1401.68 92.49L1465.96 255.11L1505.87 248.19L1428.66 52.83H544.06L523.34 15L498.82 0H96.2402V21.49L493.02 75.21L535.27 92.49H1401.68Z" fill="#FFB710"/>
<path d="M498.26 2.97L521.85 17.4L542.88 55.79H1429.83L1428.66 52.83H544.06L523.34 15L498.82 0H96.2402V2.97H498.26Z" fill="#FFDE36"/>
<path d="M593.609 238.83L575.27 209L1418.96 136.22L1430.98 166.6L593.609 238.83Z" fill="#FFB710"/>
<path d="M1418.96 136.22L575.27 209L577.419 212.5L1420.24 139.79L1418.96 136.22Z" fill="#FFDE36"/>
<path d="M593.62 238.83L1430.98 166.6L1429.92 163.91L591.99 236.19L593.62 238.83Z" fill="#DE7B04"/>
<path d="M838.891 370.65L876.131 364.18L870.291 331.94L833.041 338.41L838.891 370.65Z" fill="#FFB710"/>
<path opacity="0.7" d="M838.891 370.65L876.131 364.18L870.291 331.94L833.041 338.41L838.891 370.65Z" fill="#DE7B04"/>
<path d="M1041 335.58H1041.02L1078.25 329.12L1072.41 296.87L1035.16 303.33L1041 335.58Z" fill="#FFB710"/>
<path opacity="0.7" d="M1041 335.58H1041.02L1078.25 329.12L1072.41 296.87L1035.16 303.33L1041 335.58Z" fill="#DE7B04"/>
<path d="M1239.97 301.06L1277.21 294.59L1271.37 262.35L1234.13 268.81L1239.97 301.06Z" fill="#FFB710"/>
<path opacity="0.7" d="M1239.97 301.06L1277.21 294.59L1271.37 262.35L1234.13 268.81L1239.97 301.06Z" fill="#DE7B04"/>
<path opacity="0.5" d="M1468.26 254.71L1404.15 92.4902H1401.68L1465.96 255.11L1468.26 254.71Z" fill="#FFDE36"/>
<path d="M1465.96 255.11L1505.87 248.19L1496.05 223.36L1456.14 230.28L1465.96 255.11Z" fill="#FFB710"/>
<path opacity="0.7" d="M1465.96 255.11L1505.87 248.19L1496.05 223.36L1456.14 230.28L1465.96 255.11Z" fill="#DE7B04"/>
<path opacity="0.4" d="M96.2402 21.4902L480.97 38.8202L493.02 75.2102L96.2402 21.4902Z" fill="#DE7B04"/>
<g style="mix-blend-mode:multiply" opacity="0.2">
<path d="M96.2402 21.4902L480.97 38.8202L493.02 75.2102L476.03 44.6002L96.2402 21.4902Z" fill="black"/>
</g>
<path d="M1240.6 92.5H1202.19L1213.32 153.96L1251.15 150.7L1240.6 92.5Z" fill="#FFB710"/>
<path d="M1035.39 92.5H996.98L1011.27 171.39L1049.09 168.13L1035.39 92.5Z" fill="#FFB710"/>
<path d="M843.81 185.84L826.891 92.5H788.48L805.98 189.1L843.81 185.84Z" fill="#FFB710"/>
<path opacity="0.5" d="M809.04 188.84L791.581 92.5H788.48L805.98 189.1L809.04 188.84Z" fill="#FFDE36"/>
<path opacity="0.5" d="M826.89 92.5H824.08L841.04 186.08L843.81 185.84L826.89 92.5Z" fill="#DE7B04"/>
<path opacity="0.5" d="M999.61 92.5H996.98L1011.27 171.39L1013.86 171.17L999.61 92.5Z" fill="#FFDE36"/>
<path opacity="0.5" d="M1035.39 92.5H1032.95L1046.69 168.34L1049.09 168.13L1035.39 92.5Z" fill="#DE7B04"/>
<path opacity="0.5" d="M1204.82 92.5H1202.19L1213.32 153.96L1215.91 153.74L1204.82 92.5Z" fill="#FFDE36"/>
<g style="mix-blend-mode:multiply" opacity="0.2">
<path d="M826.891 92.5H788.48L789.29 96.98H827.701L826.891 92.5Z" fill="black"/>
</g>
<g style="mix-blend-mode:multiply" opacity="0.2">
<path d="M1035.39 92.5H996.98L997.79 96.98H1036.2L1035.39 92.5Z" fill="black"/>
</g>
<path d="M1213.32 153.96L1239.97 301.06L1277.21 294.59L1251.15 150.7L1213.32 153.96Z" fill="#FFB710"/>
<path opacity="0.5" d="M1251.15 150.7L1248.74 150.91L1274.84 295L1277.21 294.59L1251.15 150.7Z" fill="#DE7B04"/>
<path opacity="0.5" d="M1213.32 153.96L1239.97 301.06L1242.52 300.62L1215.91 153.74L1213.32 153.96Z" fill="#FFDE36"/>
<path d="M1011.27 171.39L1041 335.58H1041.02L1078.25 329.12L1049.09 168.13L1011.27 171.39Z" fill="#FFB710"/>
<path opacity="0.5" d="M1046.69 168.34L1075.9 329.53L1078.25 329.12L1049.09 168.13L1046.69 168.34Z" fill="#DE7B04"/>
<path opacity="0.5" d="M1011.27 171.39L1041 335.58H1041.02L1043.57 335.14L1013.86 171.17L1011.27 171.39Z" fill="#FFDE36"/>
<path d="M805.98 189.1L838.891 370.65L876.13 364.18L843.81 185.84L805.98 189.1Z" fill="#FFB710"/>
<path opacity="0.5" d="M841.041 186.08L873.401 364.65L876.131 364.18L843.811 185.84L841.041 186.08Z" fill="#DE7B04"/>
<path opacity="0.5" d="M805.98 189.1L838.891 370.65L841.901 370.12L809.04 188.84L805.98 189.1Z" fill="#FFDE36"/>
<path opacity="0.5" d="M1240.6 92.5H1238.16L1248.74 150.91L1251.15 150.7L1240.6 92.5Z" fill="#DE7B04"/>
<g style="mix-blend-mode:multiply" opacity="0.2">
<path d="M1240.6 92.5H1202.19L1203 96.98H1241.42L1240.6 92.5Z" fill="black"/>
</g>
<path d="M1270.46 410.45C1237.36 377.35 1191.63 356.88 1141.12 356.88C1090.61 356.88 1044.88 377.36 1011.78 410.45C978.681 443.55 958.211 489.28 958.211 539.79C958.211 590.3 978.681 636.03 1011.78 669.13C1044.88 702.23 1090.61 722.7 1141.12 722.7C1191.63 722.7 1237.35 702.23 1270.46 669.13C1303.56 636.03 1324.04 590.3 1324.04 539.79C1324.04 489.28 1303.57 443.55 1270.46 410.45Z" fill="#222B2E"/>
<path d="M1258.75 422.17C1228.65 392.07 1187.06 373.45 1141.13 373.45C1095.2 373.45 1053.61 392.07 1023.5 422.17C993.401 452.27 974.781 493.86 974.781 539.8C974.781 585.74 993.401 627.32 1023.5 657.42C1053.6 687.52 1095.19 706.14 1141.13 706.14C1187.07 706.14 1228.65 687.52 1258.75 657.42C1288.85 627.32 1307.47 585.73 1307.47 539.8C1307.47 493.87 1288.85 452.28 1258.75 422.17Z" fill="#3B4447"/>
<path d="M1266.41 649.09L1270.44 644.39L1284.87 652.83C1289.01 647.57 1292.88 642.09 1296.44 636.38L1283.5 625.66L1286.66 620.33L1302.39 626.16C1305.55 620.28 1308.37 614.19 1310.88 607.94L1296.26 599.62L1298.44 593.82L1314.93 596.83C1317.01 590.5 1318.77 584.03 1320.16 577.42L1304.3 571.76L1305.44 565.67L1322.19 565.77C1323.12 559.2 1323.69 552.51 1323.91 545.74L1307.38 542.93L1307.45 536.74L1323.91 533.93C1323.7 527.15 1323.13 520.47 1322.2 513.89L1305.4 514L1304.39 507.89L1320.18 502.25C1318.8 495.64 1317.04 489.17 1314.96 482.84L1298.43 485.86L1296.38 480.02L1310.92 471.74C1308.41 465.49 1305.6 459.4 1302.44 453.51L1286.68 459.36L1283.64 453.96L1296.51 443.29C1292.96 437.58 1289.09 432.1 1284.95 426.83L1270.51 435.29L1266.58 430.5L1277.38 417.78C1275.14 415.28 1272.85 412.83 1270.48 410.45C1268.11 408.08 1265.65 405.79 1263.16 403.55L1250.41 414.39L1245.71 410.36L1254.12 395.99C1248.85 391.85 1243.37 387.98 1237.66 384.42L1226.98 397.31L1221.65 394.16L1227.45 378.5C1221.56 375.34 1215.47 372.52 1209.21 370.01L1200.94 384.55L1195.14 382.37L1198.13 365.97C1191.8 363.89 1185.32 362.13 1178.7 360.75L1173.07 376.52L1166.98 375.38L1167.08 358.74C1160.5 357.81 1153.81 357.24 1147.03 357.02L1144.24 373.44L1138.05 373.37L1135.26 357.02C1128.48 357.24 1121.78 357.8 1115.21 358.74L1115.32 375.42L1109.21 376.43L1103.61 360.75C1096.99 362.13 1090.51 363.9 1084.18 365.97L1087.18 382.38L1081.34 384.43L1073.12 369.99C1066.86 372.5 1060.77 375.32 1054.87 378.48L1060.68 394.12L1055.28 397.16L1044.69 384.38C1038.98 387.94 1033.49 391.81 1028.22 395.95L1036.62 410.29L1031.83 414.22L1019.19 403.49C1016.68 405.74 1014.21 408.04 1011.82 410.42C1009.46 412.78 1007.18 415.23 1004.95 417.72L1015.72 430.4L1011.69 435.1L997.401 426.74C993.251 432.01 989.381 437.5 985.821 443.21L998.641 453.83L995.481 459.16L979.901 453.39C976.741 459.28 973.921 465.38 971.401 471.64L985.871 479.87L983.691 485.67L967.361 482.69C965.281 489.03 963.511 495.5 962.121 502.12L977.831 507.72L976.691 513.81L960.111 513.71C959.171 520.29 958.601 526.98 958.381 533.77L974.751 536.55L974.681 542.74L958.371 545.52C958.581 552.31 959.141 559 960.071 565.58L976.721 565.47L977.731 571.58L962.071 577.18C963.451 583.8 965.211 590.28 967.281 596.62L983.691 593.62L985.741 599.46L971.301 607.68C973.811 613.94 976.621 620.04 979.781 625.93L995.441 620.12L998.481 625.52L985.691 636.13C989.241 641.84 993.111 647.34 997.251 652.61L1011.62 644.19L1015.55 648.98L1004.8 661.65C1007.07 664.19 1009.39 666.69 1011.8 669.1C1014.14 671.44 1016.55 673.69 1019.01 675.9L1031.73 665.09L1036.43 669.12L1028.04 683.46C1033.3 687.61 1038.79 691.48 1044.5 695.04L1055.16 682.17L1060.49 685.32L1054.69 700.97C1060.58 704.13 1066.67 706.95 1072.92 709.47L1081.2 694.92L1087 697.1L1084.01 713.52C1090.34 715.6 1096.81 717.37 1103.43 718.76L1109.07 702.96L1115.16 704.1L1115.06 720.79C1121.63 721.73 1128.32 722.3 1135.1 722.52L1137.9 706.04L1144.09 706.11L1146.89 722.53C1153.67 722.32 1160.36 721.76 1166.93 720.83L1166.82 704.06L1172.93 703.05L1178.57 718.82C1185.19 717.44 1191.66 715.68 1197.99 713.61L1194.97 697.08L1200.81 695.03L1209.09 709.57C1215.34 707.07 1221.43 704.25 1227.32 701.1L1221.47 685.33L1226.87 682.29L1237.55 695.17C1243.26 691.62 1248.74 687.76 1254.01 683.62L1245.53 669.15L1250.32 665.22L1263.07 676.05C1265.6 673.79 1268.08 671.48 1270.47 669.08C1272.82 666.73 1275.08 664.31 1277.3 661.84L1266.42 649.04L1266.41 649.09Z" fill="url(#paint9_linear_860_1058)"/>
<path opacity="0.5" d="M1251.98 428.93C1223.61 400.56 1184.42 383.01 1141.13 383.01C1097.84 383.01 1058.64 400.56 1030.27 428.93C1001.9 457.3 984.352 496.49 984.352 539.79C984.352 583.09 1001.9 622.28 1030.27 650.65C1058.64 679.02 1097.83 696.57 1141.13 696.57C1184.43 696.57 1223.61 679.02 1251.98 650.65C1280.35 622.28 1297.9 583.09 1297.9 539.79C1297.9 496.49 1280.35 457.3 1251.98 428.93Z" fill="url(#paint10_linear_860_1058)"/>
<path opacity="0.5" d="M1041.33 639.58C1066.87 665.12 1102.15 680.91 1141.12 680.91C1180.09 680.91 1215.37 665.11 1240.91 639.58C1266.45 614.04 1282.24 578.76 1282.24 539.79C1282.24 500.82 1266.44 465.54 1240.91 440C1215.37 414.46 1180.09 398.67 1141.12 398.67C1102.15 398.67 1066.87 414.46 1041.33 440C1015.79 465.54 999.99 500.82 999.99 539.79C999.99 578.76 1015.79 614.04 1041.33 639.58Z" fill="url(#paint11_linear_860_1058)"/>
<path opacity="0.5" d="M1238.68 442.23C1213.71 417.26 1179.22 401.82 1141.12 401.82C1103.02 401.82 1068.52 417.26 1043.56 442.23C1018.59 467.2 1003.15 501.69 1003.15 539.79C1003.15 577.89 1018.59 612.38 1043.56 637.35C1068.53 662.32 1103.02 677.76 1141.12 677.76C1179.22 677.76 1213.71 662.32 1238.68 637.35C1263.65 612.38 1279.09 577.89 1279.09 539.79C1279.09 501.69 1263.65 467.2 1238.68 442.23Z" fill="url(#paint12_linear_860_1058)"/>
<path d="M1212.7 468.21C1194.38 449.89 1169.08 438.56 1141.12 438.56C1113.16 438.56 1087.86 449.89 1069.54 468.21C1051.22 486.53 1039.89 511.83 1039.89 539.79C1039.89 567.75 1051.22 593.05 1069.54 611.37C1087.86 629.69 1113.16 641.02 1141.12 641.02C1169.08 641.02 1194.38 629.69 1212.7 611.37C1231.02 593.05 1242.35 567.75 1242.35 539.79C1242.35 511.83 1231.02 486.53 1212.7 468.21Z" fill="url(#paint13_linear_860_1058)"/>
<path opacity="0.5" d="M1220.93 459.99C1200.51 439.57 1172.29 426.93 1141.13 426.93C1109.97 426.93 1081.75 439.56 1061.33 459.99C1040.91 480.41 1028.27 508.63 1028.27 539.8C1028.27 570.97 1040.9 599.18 1061.33 619.6C1081.75 640.02 1109.97 652.66 1141.13 652.66C1172.29 652.66 1200.51 640.03 1220.93 619.6C1241.35 599.18 1253.99 570.96 1253.99 539.8C1253.99 508.64 1241.36 480.42 1220.93 459.99Z" fill="url(#paint14_linear_860_1058)"/>
<g style="mix-blend-mode:multiply" opacity="0.2">
<path d="M1203.15 478.89C1187.27 463.02 1165.34 453.2 1141.12 453.2C1116.9 453.2 1094.96 463.02 1079.09 478.89C1063.21 494.77 1053.4 516.7 1053.4 540.92C1053.4 565.14 1063.22 587.08 1079.09 602.95C1094.97 618.83 1116.9 628.64 1141.12 628.64C1165.34 628.64 1187.27 618.82 1203.15 602.95C1219.03 587.08 1228.85 565.14 1228.85 540.92C1228.85 516.7 1219.03 494.76 1203.15 478.89Z" fill="black"/>
</g>
<path d="M1201.89 479.029C1186.34 463.479 1164.86 453.859 1141.13 453.859C1117.4 453.859 1095.92 463.479 1080.37 479.029C1064.82 494.579 1055.2 516.059 1055.2 539.799C1055.2 563.539 1064.82 585.009 1080.37 600.559C1095.92 616.109 1117.4 625.729 1141.13 625.729C1164.86 625.729 1186.34 616.109 1201.89 600.559C1217.44 585.009 1227.06 563.529 1227.06 539.799C1227.06 516.069 1217.44 494.589 1201.89 479.029Z" fill="#FFB710"/>
<path d="M1201.89 479.029C1186.34 463.479 1164.86 453.859 1141.13 453.859C1117.4 453.859 1095.92 463.479 1080.37 479.029C1064.82 494.579 1055.2 516.059 1055.2 539.799C1055.2 563.539 1064.82 585.009 1080.37 600.559C1095.92 616.109 1117.4 625.729 1141.13 625.729C1164.86 625.729 1186.34 616.109 1201.89 600.559C1217.44 585.009 1227.06 563.529 1227.06 539.799C1227.06 516.069 1217.44 494.589 1201.89 479.029Z" fill="#FFDE36"/>
<path d="M1200.03 480.879C1184.95 465.809 1164.13 456.479 1141.12 456.479C1118.11 456.479 1097.29 465.809 1082.21 480.879C1067.13 495.959 1057.81 516.779 1057.81 539.789C1057.81 562.799 1067.13 583.619 1082.21 598.699C1097.29 613.779 1118.11 623.099 1141.12 623.099C1164.13 623.099 1184.95 613.779 1200.03 598.699C1215.11 583.629 1224.43 562.799 1224.43 539.789C1224.43 516.779 1215.11 495.959 1200.03 480.879Z" fill="#FFB710"/>
<path d="M1196.7 484.209C1182.48 469.989 1162.83 461.189 1141.12 461.189C1119.41 461.189 1099.76 469.989 1085.54 484.209C1071.32 498.429 1062.52 518.079 1062.52 539.789C1062.52 561.499 1071.32 581.149 1085.54 595.369C1099.76 609.589 1119.41 618.389 1141.12 618.389C1162.83 618.389 1182.47 609.589 1196.7 595.369C1210.92 581.149 1219.72 561.499 1219.72 539.789C1219.72 518.079 1210.92 498.429 1196.7 484.209Z" fill="#DE7B04"/>
<g style="mix-blend-mode:multiply" opacity="0.4">
<path d="M1196.7 484.209C1182.48 469.989 1162.83 461.189 1141.12 461.189C1119.41 461.189 1099.76 469.989 1085.54 484.209C1071.32 498.429 1062.52 518.079 1062.52 539.789C1062.52 561.499 1071.32 581.149 1085.54 595.369C1099.76 609.589 1119.41 618.389 1141.12 618.389C1162.83 618.389 1182.47 609.589 1196.7 595.369C1210.92 581.149 1219.72 561.499 1219.72 539.789C1219.72 518.079 1210.92 498.429 1196.7 484.209Z" fill="#DE7B04"/>
</g>
<g style="mix-blend-mode:multiply" opacity="0.15">
<path d="M1178.5 503.85C1168.93 494.29 1155.72 488.37 1141.13 488.37C1126.54 488.37 1113.32 494.29 1103.75 503.85C1094.18 513.42 1088.27 526.63 1088.27 541.23C1088.27 555.83 1094.19 569.04 1103.75 578.61C1113.32 588.18 1126.53 594.09 1141.13 594.09C1155.73 594.09 1168.94 588.17 1178.5 578.61C1188.07 569.05 1193.98 555.83 1193.98 541.23C1193.98 526.63 1188.06 513.42 1178.5 503.85Z" fill="#DE7B04"/>
</g>
<g style="mix-blend-mode:multiply" opacity="0.2">
<path d="M1177.53 504.41C1168.21 495.09 1155.34 489.33 1141.12 489.33C1126.9 489.33 1114.03 495.09 1104.71 504.41C1095.39 513.73 1089.63 526.6 1089.63 540.82C1089.63 555.04 1095.39 567.91 1104.71 577.23C1114.03 586.55 1126.9 592.31 1141.12 592.31C1155.34 592.31 1168.21 586.55 1177.53 577.23C1186.85 567.91 1192.61 555.04 1192.61 540.82C1192.61 526.6 1186.85 513.73 1177.53 504.41Z" fill="#DE7B04"/>
</g>
<g style="mix-blend-mode:multiply" opacity="0.2">
<path d="M1176.54 504.97C1167.47 495.91 1154.95 490.3 1141.12 490.3C1127.29 490.3 1114.76 495.91 1105.7 504.97C1096.63 514.04 1091.03 526.56 1091.03 540.39C1091.03 554.22 1096.64 566.75 1105.7 575.81C1114.77 584.88 1127.29 590.48 1141.12 590.48C1154.95 590.48 1167.48 584.87 1176.54 575.81C1185.61 566.75 1191.21 554.22 1191.21 540.39C1191.21 526.56 1185.6 514.03 1176.54 504.97Z" fill="#DE7B04"/>
</g>
<g style="mix-blend-mode:multiply" opacity="0.3">
<path d="M1175.43 509.5C1166.65 500.72 1154.52 495.29 1141.12 495.29C1127.72 495.29 1115.59 500.72 1106.81 509.5C1098.03 518.28 1092.6 530.41 1092.6 543.81C1092.6 557.21 1098.03 569.34 1106.81 578.12C1115.59 586.9 1127.72 592.33 1141.12 592.33C1154.52 592.33 1166.65 586.9 1175.43 578.12C1184.21 569.34 1189.64 557.21 1189.64 543.81C1189.64 530.41 1184.21 518.28 1175.43 509.5Z" fill="#DE7B04"/>
</g>
<path opacity="0.5" d="M1175.43 505.48C1166.65 496.7 1154.52 491.27 1141.12 491.27C1127.72 491.27 1115.59 496.7 1106.81 505.48C1098.03 514.26 1092.6 526.39 1092.6 539.79C1092.6 553.19 1098.03 565.32 1106.81 574.1C1115.59 582.88 1127.72 588.31 1141.12 588.31C1154.52 588.31 1166.65 582.88 1175.43 574.1C1184.21 565.32 1189.64 553.19 1189.64 539.79C1189.64 526.39 1184.21 514.26 1175.43 505.48Z" fill="#DE7B04"/>
<path opacity="0.5" d="M1175.43 505.48C1166.65 496.7 1154.52 491.27 1141.12 491.27C1127.72 491.27 1115.59 496.7 1106.81 505.48C1098.03 514.26 1092.6 526.39 1092.6 539.79C1092.6 553.19 1098.03 565.32 1106.81 574.1C1115.59 582.88 1127.72 588.31 1141.12 588.31C1154.52 588.31 1166.65 582.88 1175.43 574.1C1184.21 565.32 1189.64 553.19 1189.64 539.79C1189.64 526.39 1184.21 514.26 1175.43 505.48Z" fill="#FFB710"/>
<g style="mix-blend-mode:multiply" opacity="0.15">
<path d="M1169.62 512.64C1162.33 505.35 1152.25 500.84 1141.13 500.84C1130.01 500.84 1119.93 505.35 1112.63 512.64C1105.34 519.93 1100.83 530.01 1100.83 541.14C1100.83 552.27 1105.34 562.34 1112.63 569.63C1119.92 576.92 1130 581.43 1141.13 581.43C1152.26 581.43 1162.33 576.92 1169.62 569.63C1176.91 562.34 1181.42 552.26 1181.42 541.14C1181.42 530.02 1176.91 519.94 1169.62 512.64Z" fill="#DE7B04"/>
</g>
<g style="mix-blend-mode:multiply" opacity="0.2">
<path d="M1168.83 513.01C1161.74 505.92 1151.94 501.53 1141.12 501.53C1130.3 501.53 1120.5 505.92 1113.41 513.01C1106.32 520.1 1101.93 529.9 1101.93 540.72C1101.93 551.54 1106.32 561.34 1113.41 568.43C1120.5 575.52 1130.3 579.91 1141.12 579.91C1151.94 579.91 1161.74 575.52 1168.83 568.43C1175.92 561.34 1180.31 551.54 1180.31 540.72C1180.31 529.9 1175.92 520.1 1168.83 513.01Z" fill="#DE7B04"/>
</g>
<g style="mix-blend-mode:multiply" opacity="0.2">
<path d="M1168.09 513.279C1161.19 506.379 1151.66 502.109 1141.13 502.109C1130.6 502.109 1121.07 506.379 1114.17 513.279C1107.27 520.179 1103 529.709 1103 540.249C1103 550.789 1107.27 560.309 1114.17 567.209C1121.07 574.109 1130.6 578.379 1141.13 578.379C1151.66 578.379 1161.19 574.109 1168.09 567.209C1174.99 560.309 1179.26 550.779 1179.26 540.249C1179.26 529.719 1174.99 520.189 1168.09 513.279Z" fill="#DE7B04"/>
</g>
<path d="M1167.46 513.45C1160.72 506.71 1151.41 502.54 1141.12 502.54C1130.83 502.54 1121.52 506.71 1114.78 513.45C1108.04 520.19 1103.87 529.5 1103.87 539.79C1103.87 550.08 1108.04 559.39 1114.78 566.13C1121.52 572.87 1130.83 577.04 1141.12 577.04C1151.41 577.04 1160.72 572.87 1167.46 566.13C1174.2 559.39 1178.37 550.08 1178.37 539.79C1178.37 529.5 1174.2 520.19 1167.46 513.45Z" fill="#FFB710"/>
<path d="M1167.46 513.45C1160.72 506.71 1151.41 502.54 1141.12 502.54C1130.83 502.54 1121.52 506.71 1114.78 513.45C1108.04 520.19 1103.87 529.5 1103.87 539.79C1103.87 550.08 1108.04 559.39 1114.78 566.13C1121.52 572.87 1130.83 577.04 1141.12 577.04C1151.41 577.04 1160.72 572.87 1167.46 566.13C1174.2 559.39 1178.37 550.08 1178.37 539.79C1178.37 529.5 1174.2 520.19 1167.46 513.45Z" fill="#FFDE36"/>
<path d="M1165.97 514.939C1159.61 508.579 1150.82 504.649 1141.12 504.649C1131.42 504.649 1122.63 508.579 1116.27 514.939C1109.91 521.299 1105.98 530.089 1105.98 539.789C1105.98 549.489 1109.91 558.279 1116.27 564.639C1122.63 570.999 1131.42 574.929 1141.12 574.929C1150.82 574.929 1159.61 570.999 1165.97 564.639C1172.33 558.279 1176.26 549.489 1176.26 539.789C1176.26 530.089 1172.33 521.299 1165.97 514.939Z" fill="#FFB710"/>
<path d="M1162.96 517.95C1157.37 512.36 1149.65 508.91 1141.12 508.91C1132.59 508.91 1124.87 512.37 1119.28 517.95C1113.69 523.54 1110.23 531.26 1110.23 539.79C1110.23 548.32 1113.69 556.04 1119.28 561.63C1124.87 567.22 1132.59 570.67 1141.12 570.67C1149.65 570.67 1157.37 567.21 1162.96 561.63C1168.55 556.04 1172.01 548.32 1172.01 539.79C1172.01 531.26 1168.55 523.54 1162.96 517.95Z" fill="#DE7B04"/>
<path d="M1161.91 519.009C1156.59 513.689 1149.24 510.399 1141.13 510.399C1133.02 510.399 1125.67 513.689 1120.35 519.009C1115.03 524.329 1111.74 531.679 1111.74 539.789C1111.74 547.899 1115.03 555.249 1120.35 560.569C1125.67 565.889 1133.02 569.179 1141.13 569.179C1149.24 569.179 1156.59 565.889 1161.91 560.569C1167.23 555.249 1170.52 547.899 1170.52 539.789C1170.52 531.679 1167.23 524.329 1161.91 519.009Z" fill="#FFB710"/>
<path d="M1152.06 528.85C1149.26 526.05 1145.39 524.32 1141.12 524.32C1136.85 524.32 1132.98 526.05 1130.18 528.85C1127.38 531.65 1125.65 535.52 1125.65 539.79C1125.65 544.06 1127.38 547.93 1130.18 550.73C1132.98 553.53 1136.85 555.26 1141.12 555.26C1145.39 555.26 1149.26 553.53 1152.06 550.73C1154.86 547.93 1156.59 544.06 1156.59 539.79C1156.59 535.52 1154.86 531.65 1152.06 528.85Z" fill="#414E5F"/>
<g style="mix-blend-mode:multiply" opacity="0.5">
<path d="M1152.06 530.81C1149.26 528.01 1145.39 526.28 1141.12 526.28C1136.85 526.28 1132.98 528.01 1130.18 530.81C1127.38 533.61 1125.65 537.48 1125.65 541.75C1125.65 546.02 1127.38 549.89 1130.18 552.69C1132.98 555.49 1136.85 557.22 1141.12 557.22C1145.39 557.22 1149.26 555.49 1152.06 552.69C1154.86 549.89 1156.59 546.02 1156.59 541.75C1156.59 537.48 1154.86 533.61 1152.06 530.81Z" fill="#DE7B04"/>
</g>
<path d="M1152.06 528.85C1149.26 526.05 1145.39 524.32 1141.12 524.32C1136.85 524.32 1132.98 526.05 1130.18 528.85C1127.38 531.65 1125.65 535.52 1125.65 539.79C1125.65 544.06 1127.38 547.93 1130.18 550.73C1132.98 553.53 1136.85 555.26 1141.12 555.26C1145.39 555.26 1149.26 553.53 1152.06 550.73C1154.86 547.93 1156.59 544.06 1156.59 539.79C1156.59 535.52 1154.86 531.65 1152.06 528.85Z" fill="#5B6879"/>
<path d="M1149.8 531.12C1147.58 528.9 1144.51 527.53 1141.13 527.53C1137.75 527.53 1134.68 528.9 1132.46 531.12C1130.24 533.34 1128.87 536.41 1128.87 539.79C1128.87 543.17 1130.24 546.24 1132.46 548.46C1134.68 550.68 1137.75 552.05 1141.13 552.05C1144.51 552.05 1147.58 550.68 1149.8 548.46C1152.02 546.24 1153.39 543.17 1153.39 539.79C1153.39 536.41 1152.02 533.34 1149.8 531.12Z" fill="#414E5F"/>
<g style="mix-blend-mode:multiply" opacity="0.2">
<path d="M1196.7 484.209C1182.48 469.989 1162.83 461.189 1141.12 461.189C1119.41 461.189 1099.76 469.989 1085.54 484.209C1071.32 498.429 1062.52 518.079 1062.52 539.789C1062.52 561.499 1071.32 581.149 1085.54 595.369C1099.76 609.589 1119.41 618.389 1141.12 618.389C1162.83 618.389 1182.47 609.589 1196.7 595.369C1210.92 581.149 1219.72 561.499 1219.72 539.789C1219.72 518.079 1210.92 498.429 1196.7 484.209ZM1194.63 593.299C1180.94 606.989 1162.02 615.459 1141.12 615.459C1120.22 615.459 1101.31 606.989 1087.61 593.299C1073.92 579.609 1065.45 560.689 1065.45 539.789C1065.45 518.889 1073.92 499.979 1087.61 486.279C1101.3 472.589 1120.22 464.119 1141.12 464.119C1162.02 464.119 1180.93 472.589 1194.63 486.279C1208.33 499.969 1216.79 518.889 1216.79 539.789C1216.79 560.689 1208.32 579.599 1194.63 593.299Z" fill="#DE7B04"/>
</g>
<g style="mix-blend-mode:multiply" opacity="0.2">
<path d="M1196.7 484.209C1182.48 469.989 1162.83 461.189 1141.12 461.189C1119.41 461.189 1099.76 469.989 1085.54 484.209C1071.32 498.429 1062.52 518.079 1062.52 539.789C1062.52 561.499 1071.32 581.149 1085.54 595.369C1099.76 609.589 1119.41 618.389 1141.12 618.389C1162.83 618.389 1182.47 609.589 1196.7 595.369C1210.92 581.149 1219.72 561.499 1219.72 539.789C1219.72 518.079 1210.92 498.429 1196.7 484.209ZM1195.71 594.379C1181.74 608.349 1162.44 616.989 1141.12 616.989C1119.8 616.989 1100.5 608.349 1086.53 594.379C1072.56 580.409 1063.92 561.109 1063.92 539.789C1063.92 518.469 1072.56 499.169 1086.53 485.199C1100.5 471.229 1119.8 462.589 1141.12 462.589C1162.44 462.589 1181.74 471.229 1195.71 485.199C1209.68 499.169 1218.32 518.469 1218.32 539.789C1218.32 561.109 1209.68 580.409 1195.71 594.379Z" fill="#DE7B04"/>
</g>
<g style="mix-blend-mode:multiply" opacity="0.3">
<path d="M1196.7 484.209C1182.48 469.989 1162.83 461.189 1141.12 461.189C1119.41 461.189 1099.76 469.989 1085.54 484.209C1071.32 498.429 1062.52 518.079 1062.52 539.789C1062.52 541.019 1062.56 542.239 1062.61 543.459C1063.54 523.209 1072.12 504.959 1085.54 491.549C1099.76 477.329 1119.41 468.529 1141.12 468.529C1162.83 468.529 1182.47 477.329 1196.7 491.549C1210.12 504.969 1218.7 523.219 1219.63 543.459C1219.69 542.239 1219.72 541.019 1219.72 539.789C1219.72 518.079 1210.92 498.429 1196.7 484.209Z" fill="#DE7B04"/>
</g>
<path d="M752.489 424.63H699.029V560.44H752.489V424.63Z" fill="#FFB710"/>
<path opacity="0.5" d="M752.489 424.63H699.029V560.44H752.489V424.63Z" fill="#DE7B04"/>
<path d="M752.489 424.63H699.029V426.51H752.489V424.63Z" fill="#FFDE36"/>
<path opacity="0.3" d="M743.08 426.51H727.77V558.55H743.08V426.51Z" fill="#FFDE36"/>
<path opacity="0.4" d="M706.679 426.51H699.029V558.55H706.679V426.51Z" fill="#DE7B04"/>
<path d="M760.57 592.84H686.42V607.43H760.57V592.84Z" fill="#29333F"/>
<path d="M760.57 558.55H686.42V592.84H760.57V558.55Z" fill="#414E5F"/>
<path d="M120.37 286.86H116.09V555.25H120.37V286.86Z" fill="#29333F"/>
<path d="M120.369 263.91H60.7891V271.4H120.369V263.91Z" fill="#414E5F"/>
<path d="M120.369 268.37H60.7891V271.4H120.369V268.37Z" fill="#29333F"/>
<path d="M110.099 291.8H60.7891V299.29H110.099V291.8Z" fill="#414E5F"/>
<path d="M110.099 296.26H60.7891V299.29H110.099V296.26Z" fill="#29333F"/>
<path d="M110.099 319.2H60.7891V326.69H110.099V319.2Z" fill="#414E5F"/>
<path d="M110.099 323.66H60.7891V326.69H110.099V323.66Z" fill="#29333F"/>
<path d="M110.099 346.61H60.7891V354.1H110.099V346.61Z" fill="#414E5F"/>
<path d="M110.099 351.07H60.7891V354.1H110.099V351.07Z" fill="#29333F"/>
<path d="M110.099 374.021H60.7891V381.511H110.099V374.021Z" fill="#414E5F"/>
<path d="M110.099 378.48H60.7891V381.51H110.099V378.48Z" fill="#29333F"/>
<path d="M110.099 401.43H60.7891V408.92H110.099V401.43Z" fill="#414E5F"/>
<path d="M110.099 405.89H60.7891V408.92H110.099V405.89Z" fill="#29333F"/>
<path d="M110.099 428.84H60.7891V436.33H110.099V428.84Z" fill="#414E5F"/>
<path d="M110.099 433.3H60.7891V436.33H110.099V433.3Z" fill="#29333F"/>
<path d="M110.099 456.24H60.7891V463.73H110.099V456.24Z" fill="#414E5F"/>
<path d="M110.099 460.7H60.7891V463.73H110.099V460.7Z" fill="#29333F"/>
<path d="M110.099 483.65H60.7891V491.14H110.099V483.65Z" fill="#414E5F"/>
<path d="M110.099 488.11H60.7891V491.14H110.099V488.11Z" fill="#29333F"/>
<path d="M110.099 511.061H60.7891V518.551H110.099V511.061Z" fill="#414E5F"/>
<path d="M110.099 515.521H60.7891V518.55H110.099V515.521Z" fill="#29333F"/>
<path d="M110.099 538.47H60.7891V545.96H110.099V538.47Z" fill="#414E5F"/>
<path d="M110.099 542.93H60.7891V545.96H110.099V542.93Z" fill="#29333F"/>
<path d="M62.5295 263.91H58.2695V555.25H62.5295V263.91Z" fill="#414E5F"/>
<path d="M112.719 264.391H108.459V555.261H112.719V264.391Z" fill="#414E5F"/>
<path d="M169.52 336.55H152.42V389.85H169.52V336.55Z" fill="#FFB710"/>
<path opacity="0.5" d="M169.519 336.55H167.439V389.85H169.519V336.55Z" fill="#DE7B04"/>
<path d="M152.42 342.7H150.66V383.4H152.42V342.7Z" fill="#D4DBDF"/>
<path d="M890.33 454.6H864.26V467.77H890.33V454.6Z" fill="#414E5F"/>
<path d="M41.6692 555.26H37.6992V461.47H204.439V465.44H41.6692V555.26Z" fill="#414E5F"/>
<path d="M203.139 522.64H39.6895V526.61H203.139V522.64Z" fill="#414E5F"/>
<path d="M89.3098 462.22H85.3398V555.26H89.3098V462.22Z" fill="#414E5F"/>
<path d="M153.3 462.22H149.33V555.26H153.3V462.22Z" fill="#414E5F"/>
<path d="M0 676.48H23.29L35.65 661.66V552.06H23.54L0 594.08V676.48Z" fill="#414E5F"/>
<path d="M186.98 300.9C192.204 300.9 196.44 296.665 196.44 291.44C196.44 286.216 192.204 281.98 186.98 281.98C181.755 281.98 177.52 286.216 177.52 291.44C177.52 296.665 181.755 300.9 186.98 300.9Z" fill="#F26722"/>
<path d="M312.33 104.55H305.75V225.08H312.33V104.55Z" fill="#29333F"/>
<path d="M583.68 264.39H579.72V234L538.55 174.09H126.64V263.91H122.67V170.13H540.64L583.68 232.77V264.39Z" fill="#414E5F"/>
<path d="M166.439 172.11H162.469V263.91H166.439V172.11Z" fill="#414E5F"/>
<path d="M112.57 172.11H108.6V264.65H112.57V172.11Z" fill="#414E5F"/>
<path d="M259.939 172.11H255.969V263.91H259.939V172.11Z" fill="#414E5F"/>
<path d="M353.439 172.11H349.469V263.91H353.439V172.11Z" fill="#414E5F"/>
<path d="M446.939 172.11H442.969V263.91H446.939V172.11Z" fill="#414E5F"/>
<path d="M540.451 172.11H536.48V263.91H540.451V172.11Z" fill="#414E5F"/>
<path d="M581.701 231.399H60.3105V235.369H581.701V231.399Z" fill="#414E5F"/>
<path d="M62.7705 264.39H58.8105V170.13H124.661V174.09H62.7705V264.39Z" fill="#414E5F"/>
<path d="M449.269 95.7695H277.789V97.9095H449.269V95.7695Z" fill="#29333F"/>
<defs>
<linearGradient id="paint0_linear_860_1058" x1="861.341" y1="439.51" x2="847.331" y2="327.47" gradientUnits="userSpaceOnUse">
<stop stop-color="white"/>
<stop offset="1"/>
</linearGradient>
<linearGradient id="paint1_linear_860_1058" x1="443.731" y1="359.28" x2="443.731" y2="719.88" gradientUnits="userSpaceOnUse">
<stop stop-color="#555E61"/>
<stop offset="1" stop-color="#222B2E"/>
</linearGradient>
<linearGradient id="paint2_linear_860_1058" x1="443.731" y1="690.52" x2="443.731" y2="372.53" gradientUnits="userSpaceOnUse">
<stop stop-color="#555E61"/>
<stop offset="1" stop-color="#222B2E"/>
</linearGradient>
<linearGradient id="paint3_linear_860_1058" x1="443.73" y1="404.11" x2="443.73" y2="690.35" gradientUnits="userSpaceOnUse">
<stop stop-color="#555E61"/>
<stop offset="1" stop-color="#222B2E"/>
</linearGradient>
<linearGradient id="paint4_linear_860_1058" x1="443.73" y1="672.45" x2="443.73" y2="392.59" gradientUnits="userSpaceOnUse">
<stop stop-color="#555E61"/>
<stop offset="1" stop-color="#222B2E"/>
</linearGradient>
<linearGradient id="paint5_linear_860_1058" x1="443.73" y1="637.12" x2="443.73" y2="431.8" gradientUnits="userSpaceOnUse">
<stop stop-color="#555E61"/>
<stop offset="1" stop-color="#222B2E"/>
</linearGradient>
<linearGradient id="paint6_linear_860_1058" x1="443.731" y1="648.3" x2="443.731" y2="419.39" gradientUnits="userSpaceOnUse">
<stop stop-color="#555E61"/>
<stop offset="1" stop-color="#222B2E"/>
</linearGradient>
<linearGradient id="paint7_linear_860_1058" x1="726.441" y1="426.42" x2="726.441" y2="382.31" gradientUnits="userSpaceOnUse">
<stop stop-color="white"/>
<stop offset="1"/>
</linearGradient>
<linearGradient id="paint8_linear_860_1058" x1="1023.26" y1="365.711" x2="1040.2" y2="334.151" gradientUnits="userSpaceOnUse">
<stop stop-color="white"/>
<stop offset="1"/>
</linearGradient>
<linearGradient id="paint9_linear_860_1058" x1="1141.12" y1="-0.00051095" x2="1141.12" y2="-0.00051095" gradientUnits="userSpaceOnUse">
<stop stop-color="#555E61"/>
<stop offset="1" stop-color="#222B2E"/>
</linearGradient>
<linearGradient id="paint10_linear_860_1058" x1="1141.12" y1="690.52" x2="1141.12" y2="372.53" gradientUnits="userSpaceOnUse">
<stop stop-color="#555E61"/>
<stop offset="1" stop-color="#222B2E"/>
</linearGradient>
<linearGradient id="paint11_linear_860_1058" x1="1141.12" y1="404.11" x2="1141.12" y2="690.35" gradientUnits="userSpaceOnUse">
<stop stop-color="#555E61"/>
<stop offset="1" stop-color="#222B2E"/>
</linearGradient>
<linearGradient id="paint12_linear_860_1058" x1="1141.12" y1="672.45" x2="1141.12" y2="392.59" gradientUnits="userSpaceOnUse">
<stop stop-color="#555E61"/>
<stop offset="1" stop-color="#222B2E"/>
</linearGradient>
<linearGradient id="paint13_linear_860_1058" x1="1141.12" y1="637.12" x2="1141.12" y2="431.8" gradientUnits="userSpaceOnUse">
<stop stop-color="#555E61"/>
<stop offset="1" stop-color="#222B2E"/>
</linearGradient>
<linearGradient id="paint14_linear_860_1058" x1="1141.12" y1="648.3" x2="1141.12" y2="419.39" gradientUnits="userSpaceOnUse">
<stop stop-color="#555E61"/>
<stop offset="1" stop-color="#222B2E"/>
</linearGradient>
</defs>
</svg>
