<svg width="706" height="1381" viewBox="0 0 706 1381" fill="none" xmlns="http://www.w3.org/2000/svg">
<g clip-path="url(#clip0_860_1672)">
<path d="M669.199 198.3V34.5703L32.9193 34.5703V198.3L669.199 198.3Z" fill="#FFB710"/>
<path d="M702.951 239.56H596.11L593.23 244.71V568.9L596.11 574.06H702.951L705.831 568.9V244.71L702.951 239.56Z" fill="url(#paint0_linear_860_1672)"/>
<path d="M593.23 568.9L596.11 574.06V239.56L593.23 244.71V568.9Z" fill="url(#paint1_linear_860_1672)"/>
<path d="M705.829 568.9L702.949 574.06V239.56L705.829 244.71V568.9Z" fill="url(#paint2_linear_860_1672)"/>
<g style="mix-blend-mode:multiply" opacity="0.5">
<path d="M674.311 239.56H668.371L683.491 249.85L702.951 253.78V250.21L684.481 246.48L674.311 239.56Z" fill="url(#paint3_linear_860_1672)"/>
<path d="M666.359 256.73V239.55H663.439V248.67H651.819L648.049 246.14H635.629V239.55H632.709V254.45L615.579 242.79L599.539 239.55H596.109V242.43L614.589 246.16L632.709 258.49V277.03L615.579 265.37L596.119 261.43V265L614.599 268.73L632.719 281.06V299.6L615.589 287.94L596.129 284.01V287.58L614.609 291.31L632.729 303.64V322.18L615.599 310.52L596.139 306.59V310.16L614.619 313.89L632.739 326.22V344.76L615.609 333.1L596.149 329.17V332.74L614.629 336.47L632.749 348.8V367.34L615.619 355.68L596.159 351.74V355.31L614.639 359.04L632.759 371.37V389.91L615.629 378.25L596.169 374.32V377.89L614.649 381.62L632.769 393.95V412.49L615.639 400.83L596.179 396.9V400.47L614.659 404.2L632.779 416.53V435.07L615.649 423.41L596.189 419.47V423.04L614.669 426.77L632.789 439.1V457.64L615.659 445.98L596.199 442.05V445.62L614.679 449.35L632.799 461.68V480.22L615.669 468.56L596.209 464.63V468.2L614.689 471.93L632.809 484.26V502.8L615.679 491.14L596.219 487.21V490.78L614.699 494.51L632.819 506.84V525.38L615.689 513.72L596.229 509.78V513.35L614.709 517.08L632.829 529.41V547.95L615.699 536.29L596.239 532.35V535.92L614.719 539.65L632.839 551.98V570.52L615.709 558.86L596.249 554.93V558.5L614.729 562.23L631.849 573.88H635.769V566.45H647.809L651.579 568.98H663.579V573.88H666.499V554.25L683.629 565.91L703.089 569.85V566.28L684.609 562.55L666.489 550.22V531.68L683.619 543.34L703.079 547.27V543.7L684.599 539.97L666.479 527.64V509.1L683.609 520.76L703.069 524.69V521.12L684.589 517.39L666.469 505.06V486.52L683.599 498.18L703.059 502.12V498.55L684.579 494.82L666.459 482.49V463.95L683.589 475.61L703.049 479.54V475.97L684.569 472.24L666.449 459.91V441.37L683.579 453.03L703.039 456.96V453.39L684.559 449.66L666.439 437.33V418.79L683.569 430.45L703.029 434.38V430.81L684.549 427.08L666.429 414.75V396.21L683.559 407.87L703.019 411.81V408.24L684.539 404.51L666.419 392.18V373.64L683.549 385.3L703.009 389.23V385.66L684.529 381.93L666.409 369.6V351.06L683.539 362.72L702.999 366.65V363.08L684.519 359.35L666.399 347.02V328.48L683.529 340.14L702.989 344.07V340.5L684.509 336.77L666.389 324.44V305.9L683.519 317.56L702.979 321.49V317.92L684.499 314.19L666.379 301.86V283.32L683.509 294.98L702.969 298.91V295.34L684.489 291.61L666.369 279.28V260.74L683.499 272.4L702.959 276.33V272.76L684.479 269.03L666.359 256.7V256.73ZM663.439 567.4H651.819L648.049 564.87H635.629V543.87H647.669L651.439 546.4H663.439V567.4ZM663.439 544.64H651.819L648.049 542.11H635.629V521.11H647.669L651.439 523.64H663.439V544.64ZM663.439 521.87H651.819L648.049 519.34H635.629V498.34H647.669L651.439 500.87H663.439V521.87ZM663.439 499.1H651.819L648.049 496.57H635.629V475.57H647.669L651.439 478.1H663.439V499.1ZM663.439 476.34H651.819L648.049 473.81H635.629V452.81H647.669L651.439 455.34H663.439V476.35V476.34ZM663.439 453.57H651.819L648.049 451.04H635.629V430.04H647.669L651.439 432.57H663.439V453.57ZM663.439 430.8H651.819L648.049 428.27H635.629V407.26H647.669L651.439 409.79H663.439V430.79V430.8ZM663.439 408.04H651.819L648.049 405.51H635.629V384.51H647.669L651.439 387.04H663.439V408.04ZM663.439 385.27H651.819L648.049 382.74H635.629V361.74H647.669L651.439 364.27H663.439V385.27ZM663.439 362.51H651.819L648.049 359.98H635.629V338.98H647.669L651.439 341.51H663.439V362.51ZM663.439 339.74H651.819L648.049 337.21H635.629V316.21H647.669L651.439 318.74H663.439V339.74ZM663.439 316.98H651.819L648.049 314.45H635.629V293.45H647.669L651.439 295.98H663.439V316.98ZM663.439 294.21H651.819L648.049 291.68H635.629V270.68H647.669L651.439 273.21H663.439V294.21ZM663.439 271.44H651.819L648.049 268.91H635.629V247.91H647.669L651.439 250.44H663.439V271.44Z" fill="url(#paint4_linear_860_1672)"/>
</g>
<path d="M109.72 239.56H2.88L0 244.71V568.9L2.88 574.06H109.72L112.6 568.9V244.71L109.72 239.56Z" fill="url(#paint5_linear_860_1672)"/>
<path d="M0 568.9L2.88 574.06V239.56L0 244.71V568.9Z" fill="url(#paint6_linear_860_1672)"/>
<path d="M112.599 568.9L109.719 574.06V239.56L112.599 244.71V568.9Z" fill="url(#paint7_linear_860_1672)"/>
<g style="mix-blend-mode:multiply" opacity="0.5">
<path d="M81.0828 239.56H75.1328L90.2628 249.85L109.723 253.78V250.21L91.2428 246.48L81.0828 239.56Z" fill="url(#paint8_linear_860_1672)"/>
<path d="M73.1211 256.73V239.55H70.2011V248.67H58.5811L54.8111 246.14H42.3911V239.55H39.4711V254.45L22.3411 242.79L6.30109 239.55H2.87109V242.43L21.3511 246.16L39.4711 258.49V277.03L22.3411 265.37L2.88109 261.43V265L21.3611 268.73L39.4811 281.06V299.6L22.3511 287.94L2.89109 284.01V287.58L21.3711 291.31L39.4911 303.64V322.18L22.3611 310.52L2.90109 306.59V310.16L21.3811 313.89L39.5011 326.22V344.76L22.3711 333.1L2.91109 329.17V332.74L21.3911 336.47L39.5111 348.8V367.34L22.3811 355.68L2.92109 351.74V355.31L21.4011 359.04L39.5211 371.37V389.91L22.3911 378.25L2.93109 374.32V377.89L21.4111 381.62L39.5311 393.95V412.49L22.4011 400.83L2.94109 396.9V400.47L21.4211 404.2L39.5411 416.53V435.07L22.4111 423.41L2.95109 419.47V423.04L21.4311 426.77L39.5511 439.1V457.64L22.4211 445.98L2.96109 442.05V445.62L21.4411 449.35L39.5611 461.68V480.22L22.4311 468.56L2.97109 464.63V468.2L21.4511 471.93L39.5711 484.26V502.8L22.4411 491.14L2.98109 487.21V490.78L21.4611 494.51L39.5811 506.84V525.38L22.4511 513.72L2.99109 509.78V513.35L21.4711 517.08L39.5911 529.41V547.95L22.4611 536.29L3.00109 532.35V535.92L21.4811 539.65L39.6011 551.98V570.52L22.4711 558.86L3.01109 554.93V558.5L21.4911 562.23L38.6111 573.88H42.5311V566.45H54.5711L58.3411 568.98H70.3411V573.88H73.2611V554.25L90.3911 565.91L109.851 569.85V566.28L91.3711 562.55L73.2511 550.22V531.68L90.3811 543.34L109.841 547.27V543.7L91.3611 539.97L73.2411 527.64V509.1L90.3711 520.76L109.831 524.69V521.12L91.3511 517.39L73.2311 505.06V486.52L90.3611 498.18L109.821 502.12V498.55L91.3411 494.82L73.2211 482.49V463.95L90.3511 475.61L109.811 479.54V475.97L91.3311 472.24L73.2111 459.91V441.37L90.3411 453.03L109.801 456.96V453.39L91.3211 449.66L73.2011 437.33V418.79L90.3311 430.45L109.791 434.38V430.81L91.3111 427.08L73.1911 414.75V396.21L90.3211 407.87L109.781 411.81V408.24L91.3011 404.51L73.1811 392.18V373.64L90.3111 385.3L109.771 389.23V385.66L91.2911 381.93L73.1711 369.6V351.06L90.3011 362.72L109.761 366.65V363.08L91.2811 359.35L73.1611 347.02V328.48L90.2911 340.14L109.751 344.07V340.5L91.2711 336.77L73.1511 324.44V305.9L90.2811 317.56L109.741 321.49V317.92L91.2611 314.19L73.1411 301.86V283.32L90.2711 294.98L109.731 298.91V295.34L91.2511 291.61L73.1311 279.28V260.74L90.2611 272.4L109.721 276.33V272.76L91.2411 269.03L73.1211 256.7V256.73ZM70.2111 567.4H58.5911L54.8211 564.87H42.4011V543.87H54.4411L58.2111 546.4H70.2111V567.4ZM70.2111 544.64H58.5911L54.8211 542.11H42.4011V521.11H54.4411L58.2111 523.64H70.2111V544.64ZM70.2111 521.87H58.5911L54.8211 519.34H42.4011V498.34H54.4411L58.2111 500.87H70.2111V521.87ZM70.2111 499.1H58.5911L54.8211 496.57H42.4011V475.57H54.4411L58.2111 478.1H70.2111V499.1ZM70.2111 476.34H58.5911L54.8211 473.81H42.4011V452.81H54.4411L58.2111 455.34H70.2111V476.35V476.34ZM70.2111 453.57H58.5911L54.8211 451.04H42.4011V430.04H54.4411L58.2111 432.57H70.2111V453.57ZM70.2111 430.8H58.5911L54.8211 428.27H42.4011V407.26H54.4411L58.2111 409.79H70.2111V430.79V430.8ZM70.2111 408.04H58.5911L54.8211 405.51H42.4011V384.51H54.4411L58.2111 387.04H70.2111V408.04ZM70.2111 385.27H58.5911L54.8211 382.74H42.4011V361.74H54.4411L58.2111 364.27H70.2111V385.27ZM70.2111 362.51H58.5911L54.8211 359.98H42.4011V338.98H54.4411L58.2111 341.51H70.2111V362.51ZM70.2111 339.74H58.5911L54.8211 337.21H42.4011V316.21H54.4411L58.2111 318.74H70.2111V339.74ZM70.2111 316.98H58.5911L54.8211 314.45H42.4011V293.45H54.4411L58.2111 295.98H70.2111V316.98ZM70.2111 294.21H58.5911L54.8211 291.68H42.4011V270.68H54.4411L58.2111 273.21H70.2111V294.21ZM70.2111 271.44H58.5911L54.8211 268.91H42.4011V247.91H54.4411L58.2111 250.44H70.2111V271.44Z" fill="url(#paint9_linear_860_1672)"/>
</g>
<path d="M703.391 561.4V121.29L8.97064 121.29V561.4H703.391Z" fill="#414E5F"/>
<path d="M702.951 878.93H596.11L593.23 884.08V1208.28L596.11 1213.43H702.951L705.831 1208.28V884.08L702.951 878.93Z" fill="url(#paint10_linear_860_1672)"/>
<path d="M593.23 1208.28L596.11 1213.43V878.93L593.23 884.08V1208.28Z" fill="url(#paint11_linear_860_1672)"/>
<path d="M705.829 1208.28L702.949 1213.43V878.93L705.829 884.08V1208.28Z" fill="url(#paint12_linear_860_1672)"/>
<g style="mix-blend-mode:multiply" opacity="0.5">
<path d="M674.311 878.93H668.371L683.491 889.22L702.951 893.16V889.58L684.481 885.85L674.311 878.93Z" fill="url(#paint13_linear_860_1672)"/>
<path d="M666.359 896.11V878.93H663.439V888.05H651.819L648.049 885.52H635.629V878.93H632.709V893.83L615.579 882.17L599.539 878.93H596.109V881.81L614.589 885.54L632.709 897.87V916.41L615.579 904.75L596.119 900.81V904.38L614.599 908.11L632.719 920.44V938.98L615.589 927.32L596.129 923.39V926.96L614.609 930.69L632.729 943.02V961.56L615.599 949.9L596.139 945.97V949.54L614.619 953.27L632.739 965.6V984.14L615.609 972.48L596.149 968.55V972.12L614.629 975.85L632.749 988.18V1006.72L615.619 995.06L596.159 991.12V994.69L614.639 998.42L632.759 1010.75V1029.29L615.629 1017.63L596.169 1013.7V1017.27L614.649 1021L632.769 1033.33V1051.87L615.639 1040.21L596.179 1036.28V1039.85L614.659 1043.58L632.779 1055.91V1074.45L615.649 1062.79L596.189 1058.85V1062.42L614.669 1066.15L632.789 1078.48V1097.02L615.659 1085.36L596.199 1081.43V1085L614.679 1088.73L632.799 1101.06V1119.6L615.669 1107.94L596.209 1104.01V1107.58L614.689 1111.31L632.809 1123.64V1142.18L615.679 1130.52L596.219 1126.59V1130.16L614.699 1133.89L632.819 1146.22V1164.76L615.689 1153.1L596.229 1149.16V1152.73L614.709 1156.46L632.829 1168.79V1187.33L615.699 1175.67L596.239 1171.74V1175.31L614.719 1179.04L632.839 1191.37V1209.91L615.709 1198.25L596.249 1194.32V1197.89L614.729 1201.62L631.849 1213.27H635.769V1205.84H647.809L651.579 1208.37H663.579V1213.27H666.499V1193.64L683.629 1205.3L703.089 1209.24V1205.67L684.609 1201.94L666.489 1189.61V1171.07L683.619 1182.73L703.079 1186.66V1183.09L684.599 1179.36L666.479 1167.03V1148.49L683.609 1160.15L703.069 1164.08V1160.51L684.589 1156.78L666.469 1144.45V1125.91L683.599 1137.57L703.059 1141.51V1137.94L684.579 1134.21L666.459 1121.88V1103.34L683.589 1115L703.049 1118.93V1115.36L684.569 1111.63L666.449 1099.3V1080.76L683.579 1092.42L703.039 1096.35V1092.78L684.559 1089.05L666.439 1076.72V1058.18L683.569 1069.84L703.029 1073.77V1070.2L684.549 1066.47L666.429 1054.14V1035.6L683.559 1047.26L703.019 1051.2V1047.63L684.539 1043.9L666.419 1031.57V1013.03L683.549 1024.69L703.009 1028.62V1025.05L684.529 1021.32L666.409 1008.99V990.45L683.539 1002.11L702.999 1006.04V1002.47L684.519 998.74L666.399 986.41V967.87L683.529 979.53L702.989 983.46V979.89L684.509 976.16L666.389 963.83V945.29L683.519 956.95L702.979 960.88V957.31L684.499 953.58L666.379 941.25V922.71L683.509 934.37L702.969 938.3V934.73L684.489 931L666.369 918.67V900.13L683.499 911.79L702.959 915.72V912.15L684.479 908.42L666.359 896.09V896.11ZM663.439 1206.77H651.819L648.049 1204.24H635.629V1183.24H647.669L651.439 1185.77H663.439V1206.77ZM663.439 1184.01H651.819L648.049 1181.48H635.629V1160.48H647.669L651.439 1163.01H663.439V1184.01ZM663.439 1161.24H651.819L648.049 1158.71H635.629V1137.71H647.669L651.439 1140.24H663.439V1161.24ZM663.439 1138.47H651.819L648.049 1135.94H635.629V1114.94H647.669L651.439 1117.47H663.439V1138.47ZM663.439 1115.71H651.819L648.049 1113.18H635.629V1092.18H647.669L651.439 1094.71H663.439V1115.72V1115.71ZM663.439 1092.94H651.819L648.049 1090.41H635.629V1069.41H647.669L651.439 1071.94H663.439V1092.94ZM663.439 1070.17H651.819L648.049 1067.64H635.629V1046.63H647.669L651.439 1049.16H663.439V1070.16V1070.17ZM663.439 1047.41H651.819L648.049 1044.88H635.629V1023.88H647.669L651.439 1026.41H663.439V1047.41ZM663.439 1024.64H651.819L648.049 1022.11H635.629V1001.11H647.669L651.439 1003.64H663.439V1024.64ZM663.439 1001.88H651.819L648.049 999.35H635.629V978.35H647.669L651.439 980.88H663.439V1001.88ZM663.439 979.11H651.819L648.049 976.58H635.629V955.58H647.669L651.439 958.11H663.439V979.11ZM663.439 956.35H651.819L648.049 953.82H635.629V932.82H647.669L651.439 935.35H663.439V956.35ZM663.439 933.58H651.819L648.049 931.05H635.629V910.05H647.669L651.439 912.58H663.439V933.58ZM663.439 910.81H651.819L648.049 908.28H635.629V887.28H647.669L651.439 889.81H663.439V910.81Z" fill="url(#paint14_linear_860_1672)"/>
</g>
<path d="M109.72 878.93H2.88L0 884.08V1208.28L2.88 1213.43H109.72L112.6 1208.28V884.08L109.72 878.93Z" fill="url(#paint15_linear_860_1672)"/>
<path d="M0 1208.28L2.88 1213.43V878.93L0 884.08V1208.28Z" fill="url(#paint16_linear_860_1672)"/>
<path d="M112.599 1208.28L109.719 1213.43V878.93L112.599 884.08V1208.28Z" fill="url(#paint17_linear_860_1672)"/>
<g style="mix-blend-mode:multiply" opacity="0.5">
<path d="M81.0828 878.93H75.1328L90.2628 889.22L109.723 893.16V889.58L91.2428 885.85L81.0828 878.93Z" fill="url(#paint18_linear_860_1672)"/>
<path d="M73.1211 896.11V878.93H70.2011V888.05H58.5811L54.8111 885.52H42.3911V878.93H39.4711V893.83L22.3411 882.17L6.30109 878.93H2.87109V881.81L21.3511 885.54L39.4711 897.87V916.41L22.3411 904.75L2.88109 900.81V904.38L21.3611 908.11L39.4811 920.44V938.98L22.3511 927.32L2.89109 923.39V926.96L21.3711 930.69L39.4911 943.02V961.56L22.3611 949.9L2.90109 945.97V949.54L21.3811 953.27L39.5011 965.6V984.14L22.3711 972.48L2.91109 968.55V972.12L21.3911 975.85L39.5111 988.18V1006.72L22.3811 995.06L2.92109 991.12V994.69L21.4011 998.42L39.5211 1010.75V1029.29L22.3911 1017.63L2.93109 1013.7V1017.27L21.4111 1021L39.5311 1033.33V1051.87L22.4011 1040.21L2.94109 1036.28V1039.85L21.4211 1043.58L39.5411 1055.91V1074.45L22.4111 1062.79L2.95109 1058.85V1062.42L21.4311 1066.15L39.5511 1078.48V1097.02L22.4211 1085.36L2.96109 1081.43V1085L21.4411 1088.73L39.5611 1101.06V1119.6L22.4311 1107.94L2.97109 1104.01V1107.58L21.4511 1111.31L39.5711 1123.64V1142.18L22.4411 1130.52L2.98109 1126.59V1130.16L21.4611 1133.89L39.5811 1146.22V1164.76L22.4511 1153.1L2.99109 1149.16V1152.73L21.4711 1156.46L39.5911 1168.79V1187.33L22.4611 1175.67L3.00109 1171.74V1175.31L21.4811 1179.04L39.6011 1191.37V1209.91L22.4711 1198.25L3.01109 1194.32V1197.89L21.4911 1201.62L38.6111 1213.27H42.5311V1205.84H54.5711L58.3411 1208.37H70.3411V1213.27H73.2611V1193.64L90.3911 1205.3L109.851 1209.24V1205.67L91.3711 1201.94L73.2511 1189.61V1171.07L90.3811 1182.73L109.841 1186.66V1183.09L91.3611 1179.36L73.2411 1167.03V1148.49L90.3711 1160.15L109.831 1164.08V1160.51L91.3511 1156.78L73.2311 1144.45V1125.91L90.3611 1137.57L109.821 1141.51V1137.94L91.3411 1134.21L73.2211 1121.88V1103.34L90.3511 1115L109.811 1118.93V1115.36L91.3311 1111.63L73.2111 1099.3V1080.76L90.3411 1092.42L109.801 1096.35V1092.78L91.3211 1089.05L73.2011 1076.72V1058.18L90.3311 1069.84L109.791 1073.77V1070.2L91.3111 1066.47L73.1911 1054.14V1035.6L90.3211 1047.26L109.781 1051.2V1047.63L91.3011 1043.9L73.1811 1031.57V1013.03L90.3111 1024.69L109.771 1028.62V1025.05L91.2911 1021.32L73.1711 1008.99V990.45L90.3011 1002.11L109.761 1006.04V1002.47L91.2811 998.74L73.1611 986.41V967.87L90.2911 979.53L109.751 983.46V979.89L91.2711 976.16L73.1511 963.83V945.29L90.2811 956.95L109.741 960.88V957.31L91.2611 953.58L73.1411 941.25V922.71L90.2711 934.37L109.731 938.3V934.73L91.2511 931L73.1311 918.67V900.13L90.2611 911.79L109.721 915.72V912.15L91.2411 908.42L73.1211 896.09V896.11ZM70.2111 1206.77H58.5911L54.8211 1204.24H42.4011V1183.24H54.4411L58.2111 1185.77H70.2111V1206.77ZM70.2111 1184.01H58.5911L54.8211 1181.48H42.4011V1160.48H54.4411L58.2111 1163.01H70.2111V1184.01ZM70.2111 1161.24H58.5911L54.8211 1158.71H42.4011V1137.71H54.4411L58.2111 1140.24H70.2111V1161.24ZM70.2111 1138.47H58.5911L54.8211 1135.94H42.4011V1114.94H54.4411L58.2111 1117.47H70.2111V1138.47ZM70.2111 1115.71H58.5911L54.8211 1113.18H42.4011V1092.18H54.4411L58.2111 1094.71H70.2111V1115.72V1115.71ZM70.2111 1092.94H58.5911L54.8211 1090.41H42.4011V1069.41H54.4411L58.2111 1071.94H70.2111V1092.94ZM70.2111 1070.17H58.5911L54.8211 1067.64H42.4011V1046.63H54.4411L58.2111 1049.16H70.2111V1070.16V1070.17ZM70.2111 1047.41H58.5911L54.8211 1044.88H42.4011V1023.88H54.4411L58.2111 1026.41H70.2111V1047.41ZM70.2111 1024.64H58.5911L54.8211 1022.11H42.4011V1001.11H54.4411L58.2111 1003.64H70.2111V1024.64ZM70.2111 1001.88H58.5911L54.8211 999.35H42.4011V978.35H54.4411L58.2111 980.88H70.2111V1001.88ZM70.2111 979.11H58.5911L54.8211 976.58H42.4011V955.58H54.4411L58.2111 958.11H70.2111V979.11ZM70.2111 956.35H58.5911L54.8211 953.82H42.4011V932.82H54.4411L58.2111 935.35H70.2111V956.35ZM70.2111 933.58H58.5911L54.8211 931.05H42.4011V910.05H54.4411L58.2111 912.58H70.2111V933.58ZM70.2111 910.81H58.5911L54.8211 908.28H42.4011V887.28H54.4411L58.2111 889.81H70.2111V910.81Z" fill="url(#paint19_linear_860_1672)"/>
</g>
<path d="M552.953 34.57V0L547.623 0V34.57H552.953Z" fill="#414E5F"/>
<path d="M504.09 34.57V0L498.76 0V34.57H504.09Z" fill="#414E5F"/>
<path d="M547.621 34.5704V5.40039L504.091 5.40039V34.5704H547.621Z" fill="#5B6879"/>
<path d="M209.07 34.57V0L203.74 0V34.57H209.07Z" fill="#414E5F"/>
<path d="M160.207 34.57V0L154.877 0V34.57H160.207Z" fill="#414E5F"/>
<path d="M203.738 34.5704V5.40039L160.208 5.40039V34.5704H203.738Z" fill="#5B6879"/>
<path d="M490.32 58.4999V53.4199L239.09 53.4199V58.4999L490.32 58.4999Z" fill="#5B6879"/>
<path d="M477.641 103.2V56.9199H450.311V103.2H477.641Z" fill="#5B6879"/>
<path d="M463.984 103.21V56.9297H450.324V103.21H463.984Z" fill="#414E5F"/>
<path d="M454.09 103.2V56.9199H426.76V103.2H454.09Z" fill="#5B6879"/>
<path d="M440.422 103.2V56.9199H426.762V103.2H440.422Z" fill="#414E5F"/>
<path d="M428.91 103.21V56.9297H401.58V103.21H428.91Z" fill="#5B6879"/>
<path d="M415.254 103.21V56.9297H401.594V103.21H415.254Z" fill="#414E5F"/>
<path d="M405.352 103.21V56.9297H378.022V103.21H405.352Z" fill="#5B6879"/>
<path d="M391.695 103.21V56.9297H378.035V103.21H391.695Z" fill="#414E5F"/>
<path d="M381.32 103.21V56.9297H353.99V103.21H381.32Z" fill="#5B6879"/>
<path d="M367.664 103.21V56.9297H354.004V103.21H367.664Z" fill="#414E5F"/>
<path d="M357.762 103.2V56.9199H330.432V103.2H357.762Z" fill="#5B6879"/>
<path d="M344.105 103.21V56.9297H330.445V103.21H344.105Z" fill="#414E5F"/>
<path d="M333.73 103.2V56.9199H306.4V103.2H333.73Z" fill="#5B6879"/>
<path d="M320.074 103.21V56.9297H306.414V103.21H320.074Z" fill="#414E5F"/>
<path d="M310.18 103.2V56.9199H282.85V103.2H310.18Z" fill="#5B6879"/>
<path d="M296.512 103.21V56.9297H282.852V103.21H296.512Z" fill="#414E5F"/>
<path d="M286.148 103.2V56.9199H258.818V103.2H286.148Z" fill="#5B6879"/>
<path d="M272.48 103.2V56.9199H258.82V103.2H272.48Z" fill="#414E5F"/>
<path d="M262.59 103.2V56.9199H235.26V103.2H262.59Z" fill="#5B6879"/>
<path d="M248.922 103.2V56.9199H235.262V103.2H248.922Z" fill="#414E5F"/>
<path d="M239.078 103.21V53.4297L133.278 53.4297V103.21H239.078Z" fill="#5B6879"/>
<path d="M39.7109 103.2V39.0596H153.691V42.6996H43.3509V103.2H39.7109Z" fill="#414E5F"/>
<path d="M550.289 42.6996V39.0596H664.269V103.2H660.629V42.6996H550.289Z" fill="#414E5F"/>
<path d="M135.078 92.8904V54.1504H487.278V57.7904H138.718V92.8904H135.078Z" fill="#414E5F"/>
<path d="M688.202 1362.47V1312.93H14.332V1362.47L40.092 1380.58H662.432L688.202 1362.47Z" fill="#FFB710"/>
<path opacity="0.5" d="M688.202 1362.47V1312.93H14.332V1362.47L40.092 1380.58H662.432L688.202 1362.47Z" fill="#FFDE36"/>
<path d="M14.3292 458.48L688.199 458.48V88.2305L14.3292 88.2305V458.48Z" fill="#FFDE36"/>
<path d="M14.3292 479.79L688.199 479.79V458.47L14.3292 458.47V479.79Z" fill="#FFB710"/>
<path opacity="0.5" d="M14.3292 479.79L688.199 479.79V458.47L14.3292 458.47V479.79Z" fill="#FFDE36"/>
<path d="M14.3292 498.79L688.199 498.79V479.8L14.3292 479.8V498.79Z" fill="#FFB710"/>
<path d="M32.9316 629.311L669.602 629.311V498.791L32.9316 498.791V629.311Z" fill="#FFB710"/>
<path opacity="0.5" d="M32.9316 629.311L669.602 629.311V498.791L32.9316 498.791V629.311Z" fill="#DE7B04"/>
<path d="M32.9316 1312.93H669.602L669.602 629.311L32.9316 629.311L32.9316 1312.93Z" fill="#FFB710"/>
<path d="M669.599 1312.93H688.199L688.199 498.791H669.599L669.599 1312.93Z" fill="#FFDE36"/>
<path d="M685.159 1312.93H688.199L688.199 498.79H685.159L685.159 1312.93Z" fill="#FFB710"/>
<path opacity="0.5" d="M685.159 1312.93H688.199L688.199 498.79H685.159L685.159 1312.93Z" fill="#FFDE36"/>
<path d="M14.3219 1312.93H32.9219L32.9219 498.791H14.3219L14.3219 1312.93Z" fill="#FFDE36"/>
<path d="M32.9297 1312.93H669.6V1358.76L655.53 1366.39H46.9897L32.9297 1358.76V1312.93Z" fill="#FFB710"/>
<path d="M14.3194 1312.93H17.3594L17.3594 498.79H14.3194L14.3194 1312.93Z" fill="#FFB710"/>
<path opacity="0.5" d="M14.3194 1312.93H17.3594L17.3594 498.79H14.3194L14.3194 1312.93Z" fill="#FFDE36"/>
<path d="M685.159 458.48H688.199V88.2305H685.159V458.48Z" fill="#FFB710"/>
<path opacity="0.5" d="M685.159 458.48H688.199V88.2305H685.159V458.48Z" fill="#FFDE36"/>
<path d="M14.3194 458.48H17.3594L17.3594 88.2305H14.3194L14.3194 458.48Z" fill="#FFB710"/>
<path opacity="0.5" d="M14.3194 458.48H17.3594L17.3594 88.2305H14.3194L14.3194 458.48Z" fill="#FFDE36"/>
<g style="mix-blend-mode:multiply" opacity="0.5">
<path d="M669.199 498.781V118.021H666.719V498.781H669.199Z" fill="#DE7B04"/>
</g>
<g style="mix-blend-mode:multiply" opacity="0.5">
<path d="M34.1719 498.781L34.1719 118.021H31.6919L31.6919 498.781H34.1719Z" fill="#DE7B04"/>
</g>
<path opacity="0.3" d="M666.73 458.48V118.03L34.1704 118.03V458.48L666.73 458.48Z" fill="#DE7B04"/>
<path d="M669.199 118.03V114.87L31.6792 114.87V118.03L669.199 118.03Z" fill="#DE7B04"/>
</g>
<defs>
<linearGradient id="paint0_linear_860_1672" x1="649.53" y1="232.49" x2="649.53" y2="594.89" gradientUnits="userSpaceOnUse">
<stop stop-color="#555E61"/>
<stop offset="1" stop-color="#222B2E"/>
</linearGradient>
<linearGradient id="paint1_linear_860_1672" x1="593.23" y1="406.81" x2="596.11" y2="406.81" gradientUnits="userSpaceOnUse">
<stop stop-color="#3B4447"/>
<stop offset="1" stop-color="#222B2E"/>
</linearGradient>
<linearGradient id="paint2_linear_860_1672" x1="702.949" y1="2543.77" x2="705.829" y2="2543.77" gradientUnits="userSpaceOnUse">
<stop stop-color="#3B4447"/>
<stop offset="1" stop-color="#222B2E"/>
</linearGradient>
<linearGradient id="paint3_linear_860_1672" x1="685.661" y1="241.22" x2="685.661" y2="579.92" gradientUnits="userSpaceOnUse">
<stop stop-color="#555E61"/>
<stop offset="1" stop-color="#222B2E"/>
</linearGradient>
<linearGradient id="paint4_linear_860_1672" x1="92.2192" y1="241.22" x2="93.2192" y2="579.92" gradientUnits="userSpaceOnUse">
<stop stop-color="#555E61"/>
<stop offset="1" stop-color="#222B2E"/>
</linearGradient>
<linearGradient id="paint5_linear_860_1672" x1="56.3" y1="232.49" x2="56.3" y2="594.89" gradientUnits="userSpaceOnUse">
<stop stop-color="#555E61"/>
<stop offset="1" stop-color="#222B2E"/>
</linearGradient>
<linearGradient id="paint6_linear_860_1672" x1="0" y1="2543.77" x2="2.87" y2="2543.77" gradientUnits="userSpaceOnUse">
<stop stop-color="#3B4447"/>
<stop offset="1" stop-color="#222B2E"/>
</linearGradient>
<linearGradient id="paint7_linear_860_1672" x1="109.719" y1="2543.77" x2="112.589" y2="2543.77" gradientUnits="userSpaceOnUse">
<stop stop-color="#3B4447"/>
<stop offset="1" stop-color="#222B2E"/>
</linearGradient>
<linearGradient id="paint8_linear_860_1672" x1="92.4228" y1="241.22" x2="92.4228" y2="579.92" gradientUnits="userSpaceOnUse">
<stop stop-color="#555E61"/>
<stop offset="1" stop-color="#222B2E"/>
</linearGradient>
<linearGradient id="paint9_linear_860_1672" x1="56.3011" y1="241.22" x2="56.3011" y2="579.92" gradientUnits="userSpaceOnUse">
<stop stop-color="#555E61"/>
<stop offset="1" stop-color="#222B2E"/>
</linearGradient>
<linearGradient id="paint10_linear_860_1672" x1="649.53" y1="871.86" x2="649.53" y2="1234.26" gradientUnits="userSpaceOnUse">
<stop stop-color="#555E61"/>
<stop offset="1" stop-color="#222B2E"/>
</linearGradient>
<linearGradient id="paint11_linear_860_1672" x1="92.2196" y1="1046.18" x2="93.2196" y2="1046.18" gradientUnits="userSpaceOnUse">
<stop stop-color="#3B4447"/>
<stop offset="1" stop-color="#222B2E"/>
</linearGradient>
<linearGradient id="paint12_linear_860_1672" x1="702.949" y1="1046.18" x2="705.829" y2="1046.18" gradientUnits="userSpaceOnUse">
<stop stop-color="#3B4447"/>
<stop offset="1" stop-color="#222B2E"/>
</linearGradient>
<linearGradient id="paint13_linear_860_1672" x1="685.661" y1="880.59" x2="685.661" y2="1219.29" gradientUnits="userSpaceOnUse">
<stop stop-color="#555E61"/>
<stop offset="1" stop-color="#222B2E"/>
</linearGradient>
<linearGradient id="paint14_linear_860_1672" x1="649.529" y1="880.59" x2="649.529" y2="1219.29" gradientUnits="userSpaceOnUse">
<stop stop-color="#555E61"/>
<stop offset="1" stop-color="#222B2E"/>
</linearGradient>
<linearGradient id="paint15_linear_860_1672" x1="56.3" y1="871.86" x2="56.3" y2="1234.26" gradientUnits="userSpaceOnUse">
<stop stop-color="#555E61"/>
<stop offset="1" stop-color="#222B2E"/>
</linearGradient>
<linearGradient id="paint16_linear_860_1672" x1="0" y1="1046.18" x2="2.87" y2="1046.18" gradientUnits="userSpaceOnUse">
<stop stop-color="#3B4447"/>
<stop offset="1" stop-color="#222B2E"/>
</linearGradient>
<linearGradient id="paint17_linear_860_1672" x1="109.719" y1="1046.18" x2="112.589" y2="1046.18" gradientUnits="userSpaceOnUse">
<stop stop-color="#3B4447"/>
<stop offset="1" stop-color="#222B2E"/>
</linearGradient>
<linearGradient id="paint18_linear_860_1672" x1="92.4228" y1="880.59" x2="92.4228" y2="1219.29" gradientUnits="userSpaceOnUse">
<stop stop-color="#555E61"/>
<stop offset="1" stop-color="#222B2E"/>
</linearGradient>
<linearGradient id="paint19_linear_860_1672" x1="56.3011" y1="880.59" x2="56.3011" y2="1219.29" gradientUnits="userSpaceOnUse">
<stop stop-color="#555E61"/>
<stop offset="1" stop-color="#222B2E"/>
</linearGradient>
<clipPath id="clip0_860_1672">
<rect width="705.83" height="1380.58" fill="white"/>
</clipPath>
</defs>
</svg>
