<svg width="225" height="225" viewBox="0 0 225 225" fill="none" xmlns="http://www.w3.org/2000/svg">
<g clip-path="url(#clip0_9_9)">
<path d="M167.019 19H112.188C104.715 19 95.5693 24.2139 91.7628 30.6449L51.5669 98.5616C47.761 104.993 50.7344 110.207 58.208 110.207H98.6555L55.6374 141.356C49.5811 145.737 50.7344 149.292 58.208 149.292H81.9012L54.8797 198.839C51.3 205.397 53.1614 206.97 59.0345 202.345L128.36 147.73C134.228 143.104 133.088 139.218 125.803 139.053C118.524 138.888 112.618 138.749 112.618 138.749L158.176 97.0216C163.687 91.9727 162.097 88.015 154.624 88.1817L112.618 89.1149L171.136 28.7202C176.336 23.3512 174.493 19 167.019 19Z" fill="#FFC20F"/>
</g>
<defs>
<clipPath id="clip0_9_9">
<rect width="186" height="186" fill="white" transform="translate(19 19)"/>
</clipPath>
</defs>
</svg>
